<?xml version="1.0" encoding="utf-8"?>
<!-- Generator: Adobe Illustrator 24.0.1, SVG Export Plug-In . SVG Version: 6.00 Build 0)  -->
<svg version="1.1" xmlns="http://www.w3.org/2000/svg" xmlns:xlink="http://www.w3.org/1999/xlink" x="0px" y="0px"
	 viewBox="0 0 500 500" style="enable-background:new 0 0 500 500;" xml:space="preserve">
<style type="text/css">
	.st0{fill:#1D2241;}
	.st1{fill:#171A33;}
	.st2{fill:#9EA7D5;}
	.st3{fill:#F39200;}
	.st4{fill:#D36713;}
	.st5{fill:#FCEA10;}
	.st6{fill:#009640;}
	.st7{fill:#006633;}
	.st8{fill:#009FE3;}
	.st9{fill:#1D71B8;}
	.st10{fill:#B17F4A;}
	.st11{fill:#9D9D9C;}
	.st12{fill:#706F6F;}
	.st13{fill:#575756;}
	.st14{fill:#B2B2B2;}
	.st15{fill:#4FC3F1;}
	.st16{fill:#878787;}
	.st17{fill:#E30613;}
	.st18{fill:#F9B233;}
</style>
<g id="BG">
	<rect id="BG_AZUL" class="st0" width="500" height="500"/>
	<path class="st1" d="M0,0v500h500V0H0z M493.72,329.1c0,90.92-73.71,164.63-164.63,164.63H170.9
		c-90.92,0-164.63-73.71-164.63-164.63V170.9C6.28,79.98,79.98,6.28,170.9,6.28H329.1c90.92,0,164.63,73.71,164.63,164.63V329.1z"/>
	<g id="ESTRELLAS">
		<path class="st2" d="M39.32,221.35c0.23,0,0.23-0.36,0-0.36C39.08,220.99,39.08,221.35,39.32,221.35L39.32,221.35z"/>
		<path class="st2" d="M11.36,312.54c0.03-0.02,0.05-0.04,0.08-0.06c0.23-0.13,0.41-0.31,0.54-0.54c0.14-0.23,0.2-0.49,0.21-0.76
			c0-0.27-0.07-0.52-0.21-0.76c-0.13-0.23-0.31-0.41-0.54-0.54c-0.03-0.02-0.05-0.04-0.08-0.06c-0.25-0.14-0.51-0.21-0.79-0.21
			c-0.28,0-0.55,0.07-0.79,0.21c-0.24,0.14-0.42,0.33-0.56,0.56c-0.14,0.25-0.21,0.51-0.21,0.79c0,0.28,0.07,0.55,0.21,0.79
			c0.14,0.24,0.33,0.42,0.56,0.56c0.25,0.14,0.51,0.21,0.79,0.21C10.85,312.75,11.11,312.68,11.36,312.54L11.36,312.54z"/>
		<path class="st2" d="M24.59,348.04c0.05,0,0.05-0.07,0-0.07C24.54,347.97,24.54,348.04,24.59,348.04L24.59,348.04z"/>
		<path class="st2" d="M45.86,281.89c0.22,0,0.22-0.34,0-0.34C45.65,281.55,45.65,281.89,45.86,281.89L45.86,281.89z"/>
		<path class="st2" d="M54.46,312.88c0.08,0,0.08-0.12,0-0.12C54.38,312.76,54.38,312.88,54.46,312.88L54.46,312.88z"/>
		<path class="st2" d="M42.59,335.22c0.4,0,0.4-0.62,0-0.62C42.19,334.6,42.19,335.22,42.59,335.22L42.59,335.22z"/>
		<path class="st2" d="M25,356.05c0.36,0,0.36-0.55,0-0.55C24.64,355.5,24.64,356.05,25,356.05L25,356.05z"/>
		<path class="st2" d="M24.87,272.37c0.14,0.05,0.24,0.07,0.38,0.09c0.72,0.09,0.72-1.22-0.15-1.08c-0.12,0.02-0.22,0.08-0.33,0.15
			c-0.29,0.16-0.29,0.6,0,0.77c0.11,0.06,0.21,0.13,0.33,0.15c0.85,0.14,0.87-1.17,0.15-1.08c-0.14,0.02-0.25,0.04-0.38,0.09
			C24.41,271.59,24.41,272.21,24.87,272.37L24.87,272.37z"/>
		<path class="st2" d="M74.09,241.65c0.56,0,0.56-0.87,0-0.87C73.54,240.78,73.54,241.65,74.09,241.65L74.09,241.65z"/>
		<path class="st2" d="M57.28,92.53c0.42,0,0.42-0.65,0-0.65C56.86,91.88,56.86,92.53,57.28,92.53L57.28,92.53z"/>
		<path class="st2" d="M216.48,251.07c0.57,0,0.57-0.89,0-0.89C215.9,250.18,215.9,251.07,216.48,251.07L216.48,251.07z"/>
		<path class="st2" d="M262.21,299.88c0.05,0.03,0.11,0.05,0.16,0.08c0.01,0.01,0.03,0.01,0.04,0.02c0.03,0.01,0.06,0.03,0.08,0.04
			c0.05,0.01,0.11,0.01,0.17,0c0.06-0.02,0.1-0.05,0.14-0.08c0.04-0.02,0.06-0.05,0.09-0.09c0.02-0.04,0.03-0.08,0.03-0.12
			c0-0.04-0.01-0.08-0.03-0.12c-0.02-0.04-0.05-0.06-0.09-0.09c-0.04-0.03-0.08-0.06-0.14-0.08c-0.05-0.01-0.12-0.01-0.17,0
			c-0.03,0.01-0.06,0.02-0.08,0.04c-0.01,0.01-0.03,0.01-0.04,0.02c-0.05,0.03-0.11,0.05-0.16,0.08c-0.06,0.03-0.09,0.1-0.09,0.16
			C262.12,299.78,262.15,299.85,262.21,299.88L262.21,299.88z"/>
		<path class="st2" d="M266.39,345.85c0.39,0,0.39-0.6,0-0.6C266.01,345.25,266.01,345.85,266.39,345.85L266.39,345.85z"/>
		<path class="st2" d="M408.57,438.44c0.08-0.04,0.15-0.08,0.23-0.12c0.41-0.21,0.05-0.83-0.36-0.62c-0.15,0.08-0.21,0.19-0.31,0.32
			c-0.2,0.27,0.2,0.68,0.48,0.48c0.13-0.1,0.25-0.17,0.32-0.31c0.21-0.41-0.41-0.77-0.62-0.36c-0.04,0.08-0.08,0.15-0.12,0.23
			C408.06,438.31,408.32,438.57,408.57,438.44L408.57,438.44z"/>
		<path class="st2" d="M456.46,416.5c0.08-0.04,0.15-0.08,0.23-0.12c0.41-0.21,0.05-0.83-0.36-0.62c-0.15,0.08-0.21,0.19-0.31,0.32
			c-0.2,0.27,0.2,0.68,0.48,0.48c0.13-0.1,0.25-0.17,0.32-0.31c0.21-0.41-0.41-0.77-0.62-0.36c-0.04,0.08-0.08,0.15-0.12,0.23
			C455.95,416.37,456.21,416.62,456.46,416.5L456.46,416.5z"/>
		<path class="st2" d="M246.34,430.1c0.34,0,0.34-0.53,0-0.53C246,429.57,246,430.1,246.34,430.1L246.34,430.1z"/>
		<path class="st2" d="M254.12,380.42c0.65,0,0.65-1.01,0-1.01C253.47,379.41,253.47,380.42,254.12,380.42L254.12,380.42z"/>
		<path class="st2" d="M291.91,332.71c-0.03,0.04-0.05,0.08-0.08,0.12c0.08-0.06,0.16-0.12,0.24-0.18
			c-0.08,0.01-0.15,0.03-0.21,0.06c-0.1,0.03-0.19,0.09-0.27,0.17c-0.04,0.06-0.09,0.11-0.13,0.17c0,0.01-0.01,0.01-0.01,0.02
			c-0.01,0.02-0.02,0.05-0.03,0.07c-0.08,0.14-0.12,0.28-0.12,0.44c0,0.16,0.04,0.31,0.12,0.44c0.02,0.02,0.03,0.05,0.05,0.07
			c0.07,0.12,0.17,0.22,0.29,0.29c0.13,0.07,0.26,0.11,0.41,0.11c0.15,0,0.28-0.04,0.41-0.11c0.12-0.07,0.22-0.17,0.29-0.29
			c0.02-0.02,0.03-0.05,0.05-0.07c0.08-0.14,0.12-0.28,0.12-0.44c0-0.16-0.04-0.31-0.12-0.44c-0.01-0.02-0.02-0.05-0.03-0.07
			c-0.03-0.07-0.06-0.11-0.14-0.19c-0.06-0.04-0.11-0.09-0.17-0.13c-0.1-0.06-0.2-0.09-0.31-0.11c0.08,0.06,0.16,0.12,0.24,0.18
			c-0.03-0.04-0.05-0.08-0.08-0.12c-0.06-0.09-0.15-0.15-0.26-0.15S291.97,332.62,291.91,332.71L291.91,332.71z"/>
		<path class="st2" d="M359.22,455.53c0.77,0,0.77-1.2,0-1.2C358.45,454.33,358.45,455.53,359.22,455.53L359.22,455.53z"/>
		<path class="st2" d="M126.46,382.84c0.6,0,0.6-0.94,0-0.94C125.86,381.9,125.86,382.84,126.46,382.84L126.46,382.84z"/>
		<path class="st2" d="M436.37,46.24c0.6,0,0.6-0.94,0-0.94C435.77,45.31,435.77,46.24,436.37,46.24L436.37,46.24z"/>
		<path class="st2" d="M152.65,323.06c0.54,0,0.54-0.84,0-0.84C152.11,322.22,152.11,323.06,152.65,323.06L152.65,323.06z"/>
		<path class="st2" d="M92.63,305.5c-0.01,0.04-0.03,0.08-0.04,0.13c-0.01,0.02-0.01,0.04-0.01,0.06c-0.01,0.04-0.01,0.08,0,0.11
			c0,0.04,0.01,0.08,0.03,0.11c0,0.02,0.01,0.04,0.03,0.06c0.02,0.03,0.04,0.06,0.07,0.09c0.03,0.02,0.06,0.04,0.09,0.07
			c0,0,0.01,0,0.01,0.01c0.01,0.01,0.03,0.02,0.04,0.03c0.04,0.03,0.09,0.04,0.13,0.04c0.05,0.01,0.1,0.01,0.14-0.01
			c0.03-0.01,0.06-0.02,0.09-0.04c0.05-0.03,0.1-0.08,0.13-0.13c0.01-0.01,0.02-0.03,0.03-0.04c0,0,0.01-0.01,0.01-0.01
			c0.01-0.02,0.02-0.03,0.02-0.05c0.01-0.02,0.02-0.04,0.02-0.06c0.01-0.04,0.01-0.08,0.02-0.11c-0.01-0.04-0.01-0.08-0.02-0.11
			c-0.01-0.03-0.03-0.07-0.04-0.1c-0.02-0.03-0.05-0.06-0.07-0.09c-0.02-0.03-0.05-0.06-0.07-0.1c-0.05-0.04-0.1-0.08-0.16-0.09
			c-0.06-0.02-0.13-0.02-0.19,0c-0.06,0.02-0.11,0.05-0.16,0.09C92.68,305.38,92.64,305.44,92.63,305.5L92.63,305.5z"/>
		<path class="st2" d="M193.3,208c-0.01,0.04-0.02,0.07-0.04,0.11c-0.01,0.02-0.01,0.04-0.02,0.06c-0.02,0.07-0.02,0.15,0.01,0.22
			c0.01,0.03,0.02,0.07,0.04,0.1c0,0.01,0.01,0.01,0.01,0.02c0.01,0.03,0.02,0.05,0.03,0.07c0.02,0.04,0.06,0.07,0.1,0.1
			c0.04,0.02,0.09,0.04,0.14,0.04c0.05,0,0.1-0.02,0.14-0.04c0.07-0.04,0.1-0.1,0.13-0.17c0-0.01,0.01-0.02,0.01-0.03
			c0.01-0.03,0.02-0.07,0.04-0.1c0-0.01,0.01-0.02,0.01-0.03c0.01-0.04,0.02-0.09,0.01-0.13c0-0.02,0-0.04-0.01-0.05
			c-0.01-0.02-0.01-0.03-0.02-0.05c-0.01-0.04-0.03-0.07-0.04-0.11c-0.01-0.02-0.02-0.04-0.03-0.07c-0.02-0.03-0.04-0.06-0.07-0.08
			c-0.02-0.02-0.04-0.03-0.06-0.04c-0.03-0.02-0.07-0.03-0.11-0.02c-0.05,0-0.1,0.01-0.14,0.04
			C193.36,207.87,193.32,207.94,193.3,208L193.3,208z"/>
		<path class="st2" d="M209.58,341.33c0.9,0,0.9-1.39,0-1.39C208.68,339.94,208.68,341.33,209.58,341.33L209.58,341.33z"/>
		<path class="st2" d="M187.02,427.03c0.6,0,0.6-0.94,0-0.94C186.42,426.09,186.41,427.03,187.02,427.03L187.02,427.03z"/>
		<path class="st2" d="M298.04,152.34c1.82,0,1.83,3.51,0,3.51C296.21,155.85,296.21,152.34,298.04,152.34L298.04,152.34z"/>
		<path class="st2" d="M181.43,286.24c1.82,0,1.83-2.84,0-2.84C179.6,283.4,179.6,286.24,181.43,286.24L181.43,286.24z"/>
		<path class="st2" d="M133.42,443.2c0.36,0,0.36-0.55,0-0.55C133.06,442.65,133.06,443.2,133.42,443.2L133.42,443.2z"/>
		<path class="st2" d="M146.71,409.04c0.01,0.03,0.02,0.05,0.03,0.08c0,0,0,0.01,0,0.01c0.02,0.03,0.04,0.05,0.06,0.07
			c0.01,0.01,0.03,0.02,0.04,0.03c0.01,0.01,0.03,0.02,0.05,0.03c0.01,0.01,0.03,0.01,0.04,0.02c0.01,0.01,0.03,0.01,0.04,0.02
			c0.01,0,0.01,0,0.02,0c0.03,0.01,0.06,0.01,0.09,0.01c0,0,0.01,0,0.01,0c0.01,0,0.01,0,0.02,0c0.04,0,0.08-0.01,0.12-0.02
			c0.02-0.01,0.04-0.02,0.06-0.02c0.02-0.01,0.04-0.02,0.06-0.03c0.01,0,0.01-0.01,0.02-0.01c0.02-0.02,0.05-0.04,0.08-0.06
			c0,0,0.01,0,0.01-0.01c0.03-0.03,0.06-0.06,0.08-0.1c0,0,0,0,0-0.01c0.01-0.02,0.03-0.06,0.04-0.09c0,0,0,0,0,0
			c0-0.01,0-0.01,0-0.02c0-0.01,0.02-0.08,0.01-0.12c0-0.02-0.01-0.04-0.01-0.06c0-0.02,0-0.04-0.01-0.06
			c0-0.02-0.02-0.04-0.02-0.06c-0.01-0.02-0.02-0.04-0.03-0.06c-0.01-0.02-0.03-0.03-0.03-0.04c-0.01-0.01-0.02-0.03-0.04-0.05
			c-0.01-0.02-0.04-0.03-0.05-0.04c-0.02-0.01-0.03-0.03-0.05-0.04c-0.03-0.02-0.08-0.04-0.11-0.05c-0.01,0-0.02-0.01-0.03-0.01
			c-0.04-0.01-0.08-0.01-0.12-0.02c0,0-0.01,0-0.01,0c0,0-0.01,0-0.01,0c0,0,0,0,0,0c0,0,0,0,0,0c-0.04,0.01-0.07,0.01-0.11,0.02
			c-0.02,0-0.09,0.04-0.1,0.04c0,0,0,0,0,0c0,0,0,0-0.01,0c-0.01,0-0.01,0.01-0.02,0.01c-0.03,0.02-0.07,0.05-0.1,0.08
			c-0.01,0-0.01,0.01-0.01,0.01c-0.02,0.03-0.05,0.06-0.07,0.09c0,0,0,0-0.01,0.01c0,0.01-0.01,0.01-0.01,0.02
			c0,0.01-0.04,0.08-0.05,0.11c0,0.02-0.01,0.05-0.01,0.06c0,0.02-0.01,0.04-0.01,0.06c0,0,0,0.01,0,0.01c0,0,0,0,0,0
			c0,0.03,0.01,0.08,0.01,0.11c0,0.01,0,0.01,0.01,0.02c0.01,0.05,0.04,0.1,0.07,0.13c0.03,0.04,0.07,0.08,0.11,0.1
			c0.03,0.01,0.06,0.03,0.09,0.04c0.05,0.02,0.11,0.02,0.16,0.01c0.04,0,0.07-0.01,0.1-0.03c0.05-0.02,0.09-0.04,0.13-0.08
			c0.02-0.03,0.04-0.05,0.06-0.08c0.04-0.06,0.05-0.13,0.05-0.2c0-0.01,0-0.02,0-0.02c0,0.04-0.01,0.07-0.01,0.11
			c0-0.01,0-0.02,0.01-0.02c-0.01,0.03-0.03,0.06-0.04,0.1c0-0.01,0.01-0.02,0.01-0.02c-0.02,0.03-0.04,0.05-0.06,0.08
			c0.01-0.01,0.01-0.02,0.02-0.02c-0.03,0.02-0.06,0.04-0.08,0.06c0.01-0.01,0.02-0.01,0.03-0.02c-0.03,0.01-0.07,0.03-0.1,0.04
			c0.01,0,0.02-0.01,0.03-0.01c0.05-0.01,0.09-0.04,0.13-0.05c-0.03,0.01-0.07,0.03-0.1,0.04c0.01,0,0.02-0.01,0.04-0.01
			c-0.04,0-0.07,0.01-0.11,0.01c0.01,0,0.02,0,0.03,0c-0.04,0-0.07-0.01-0.11-0.01c0.01,0,0.02,0,0.02,0.01
			c-0.03-0.01-0.06-0.03-0.09-0.04c0.01,0,0.01,0.01,0.02,0.01c-0.03-0.02-0.05-0.04-0.08-0.06c0.01,0,0.01,0.01,0.02,0.02
			c-0.02-0.03-0.04-0.05-0.06-0.08c0,0.01,0.01,0.01,0.01,0.02c-0.01-0.03-0.02-0.06-0.04-0.09c0,0.01,0,0.01,0.01,0.02
			c0-0.03-0.01-0.06-0.01-0.1c0,0.01,0,0.02,0,0.03c0-0.03,0.01-0.06,0.01-0.1c0,0.01,0,0.02-0.01,0.03
			c0.01-0.03,0.02-0.06,0.04-0.08c-0.01,0.01-0.01,0.02-0.02,0.03c0.02-0.02,0.04-0.05,0.05-0.07c-0.01,0.01-0.02,0.02-0.03,0.03
			c0.02-0.02,0.04-0.03,0.07-0.05c-0.01,0.01-0.02,0.01-0.03,0.02c0.03-0.01,0.05-0.02,0.08-0.03c-0.01,0-0.02,0.01-0.03,0.01
			c0.03,0,0.05-0.01,0.08-0.01c-0.01,0-0.02,0-0.03,0c0.03,0,0.05,0.01,0.08,0.01c-0.01,0-0.02,0-0.02-0.01
			c0.02,0.01,0.05,0.02,0.07,0.03c-0.01,0-0.01-0.01-0.02-0.01c0.02,0.02,0.04,0.03,0.06,0.05c0,0,0,0,0,0
			c-0.02-0.02-0.04-0.03-0.06-0.05c-0.03-0.02-0.07-0.03-0.11-0.03c-0.03-0.01-0.05-0.01-0.08,0c-0.04,0-0.07,0.01-0.11,0.03
			c-0.02,0.02-0.04,0.03-0.06,0.05c-0.02,0.02-0.03,0.04-0.05,0.06c-0.02,0.03-0.03,0.07-0.03,0.11
			C146.69,408.97,146.69,409,146.71,409.04L146.71,409.04z"/>
		<path class="st2" d="M134.65,287c0.12,0,0.24-0.02,0.35-0.08c0.11-0.04,0.21-0.1,0.29-0.19c0.09-0.08,0.15-0.18,0.19-0.29
			c0.06-0.11,0.08-0.22,0.08-0.35c-0.01-0.08-0.02-0.16-0.03-0.24c-0.04-0.15-0.12-0.29-0.23-0.4c-0.06-0.05-0.12-0.09-0.18-0.14
			c-0.14-0.08-0.29-0.12-0.46-0.12c-0.12,0-0.24,0.02-0.35,0.08c-0.11,0.04-0.21,0.1-0.29,0.19c-0.09,0.08-0.15,0.18-0.19,0.29
			c-0.06,0.11-0.08,0.22-0.08,0.35c0.01,0.08,0.02,0.16,0.03,0.24c0.04,0.15,0.12,0.29,0.23,0.4c0.06,0.05,0.12,0.09,0.18,0.14
			C134.33,286.96,134.48,287,134.65,287L134.65,287z"/>
		<path class="st2" d="M27.45,447.18c0.22,0,0.22-0.34,0-0.34C27.24,446.85,27.23,447.18,27.45,447.18L27.45,447.18z"/>
		<path class="st2" d="M52.66,406.25c0.04-0.06,0.07-0.13,0.11-0.19c0.26-0.47-0.41-0.85-0.71-0.42c-0.1,0.15-0.09,0.29-0.09,0.46
			c0.01,0.57,0.88,0.57,0.89,0c0-0.17,0.01-0.31-0.09-0.46c-0.3-0.43-0.98-0.05-0.71,0.42c0.04,0.06,0.07,0.13,0.11,0.19
			C52.27,406.43,52.55,406.43,52.66,406.25L52.66,406.25z"/>
		<path class="st2" d="M63.37,429.56c-0.03,0.03-0.06,0.07-0.09,0.1c-0.31,0.33-0.31,0.84,0,1.17c0.03,0.03,0.06,0.07,0.09,0.1
			c0.58,0.62,1.65,0.13,1.65-0.68C65.02,429.42,63.95,428.94,63.37,429.56L63.37,429.56z"/>
		<path class="st2" d="M55.68,474.79c1.52,0,1.52-2.35,0-2.35C54.17,472.43,54.16,474.79,55.68,474.79L55.68,474.79z"/>
		<path class="st2" d="M119.51,488.86c0.66,0,0.67-1.03,0-1.03C118.84,487.82,118.84,488.86,119.51,488.86L119.51,488.86z"/>
		<path class="st2" d="M87.71,380.32c-0.08-0.02-0.16-0.04-0.24-0.05c-0.61-0.14-0.87,0.8-0.26,0.94c0.2,0.05,0.31,0.02,0.5-0.05
			C88.12,380.99,88.12,380.48,87.71,380.32c-0.19-0.07-0.3-0.1-0.5-0.05c-0.61,0.14-0.35,1.09,0.26,0.94
			c0.08-0.02,0.16-0.04,0.24-0.05C88.12,381.06,88.12,380.41,87.71,380.32L87.71,380.32z"/>
		<path class="st2" d="M108.77,351.74c-0.08-0.02-0.16-0.04-0.24-0.05c-0.61-0.14-0.87,0.8-0.26,0.94c0.2,0.05,0.31,0.02,0.5-0.05
			C109.17,352.41,109.17,351.91,108.77,351.74c-0.19-0.07-0.3-0.1-0.5-0.05c-0.61,0.14-0.35,1.09,0.26,0.94
			c0.08-0.02,0.16-0.04,0.24-0.05C109.18,352.48,109.18,351.84,108.77,351.74L108.77,351.74z"/>
		<path class="st2" d="M23.77,388.65c0.19,0,0.19-0.29,0-0.29C23.58,388.36,23.58,388.65,23.77,388.65L23.77,388.65z"/>
		<path class="st2" d="M156.33,461.7c0.46,0,0.46-0.72,0-0.72C155.87,460.98,155.87,461.7,156.33,461.7L156.33,461.7z"/>
		<path class="st2" d="M107.23,422.3c0.31,0,0.31-0.48,0-0.48C106.93,421.82,106.93,422.3,107.23,422.3L107.23,422.3z"/>
		<path class="st2" d="M207.22,486.75c0.05-0.01,0.09-0.02,0.14-0.03c0.1-0.04,0.21-0.09,0.31-0.13c0.15-0.08,0.27-0.19,0.36-0.33
			c0.08-0.08,0.13-0.18,0.17-0.28c0.08-0.15,0.12-0.32,0.11-0.5c-0.02-0.11-0.03-0.23-0.05-0.34c-0.04-0.1-0.09-0.21-0.13-0.31
			c-0.08-0.15-0.19-0.27-0.33-0.36c-0.12-0.11-0.27-0.19-0.44-0.23c-0.05-0.01-0.09-0.02-0.14-0.03c-0.23-0.06-0.47-0.06-0.7,0
			c-0.22,0.06-0.42,0.18-0.58,0.34c-0.07,0.09-0.14,0.18-0.21,0.27c-0.12,0.21-0.18,0.43-0.18,0.67c-0.01,0.18,0.03,0.35,0.11,0.51
			c0.05,0.16,0.14,0.31,0.27,0.43c0.16,0.16,0.36,0.28,0.58,0.34C206.75,486.81,206.99,486.81,207.22,486.75L207.22,486.75z"/>
		<path class="st2" d="M211.44,455.96c-0.13,0.02-0.26,0.05-0.39,0.07c-0.03,0.01-0.07,0.03-0.1,0.04
			c-0.05,0.03-0.09,0.06-0.11,0.11c-0.03,0.03-0.04,0.06-0.05,0.09c-0.03,0.05-0.04,0.1-0.04,0.16c0,0.04,0.01,0.07,0.01,0.11
			c0.01,0.03,0.03,0.07,0.04,0.1c0.03,0.05,0.06,0.09,0.11,0.11c0.04,0.04,0.09,0.06,0.14,0.07c0.13,0.02,0.26,0.05,0.39,0.07
			c0.09,0.02,0.17,0.02,0.26,0c0.08-0.02,0.15-0.06,0.21-0.12c0.03-0.03,0.05-0.06,0.08-0.1c0.04-0.07,0.07-0.16,0.07-0.24
			c0-0.07-0.01-0.13-0.04-0.19c-0.02-0.06-0.05-0.11-0.1-0.15c-0.06-0.06-0.13-0.1-0.21-0.12
			C211.61,455.94,211.52,455.94,211.44,455.96L211.44,455.96z"/>
		<path class="st2" d="M8.45,204.67C8.45,204.67,8.45,204.67,8.45,204.67c0.04,0.06,0.08,0.11,0.12,0.16
			c0.05,0.04,0.1,0.08,0.15,0.12c0.06,0.03,0.12,0.05,0.18,0.08c0.1,0.03,0.2,0.04,0.3,0.01c0.07,0,0.13-0.02,0.19-0.05
			c0.06-0.02,0.12-0.05,0.17-0.1c0.06-0.03,0.1-0.08,0.14-0.14c0.07-0.07,0.11-0.16,0.14-0.26c0,0,0,0,0-0.01
			c0.04-0.14,0.04-0.27,0-0.41c-0.04-0.13-0.1-0.24-0.2-0.34c-0.1-0.09-0.21-0.16-0.34-0.2c-0.1-0.03-0.2-0.04-0.31-0.01
			c-0.1,0-0.2,0.03-0.28,0.09c-0.12,0.07-0.21,0.16-0.27,0.27C8.31,204.13,8.31,204.43,8.45,204.67L8.45,204.67z"/>
		<path class="st2" d="M4.03,216.4c0.01,0.02,0.01,0.03,0.02,0.05c0.02,0.06,0.05,0.11,0.07,0.17c0.04,0.08,0.1,0.15,0.18,0.2
			c0.04,0.04,0.1,0.07,0.16,0.09c0.08,0.04,0.17,0.06,0.27,0.06c0,0,0.01,0,0.01,0c0.1,0,0.19-0.02,0.27-0.06
			c0.09-0.03,0.16-0.08,0.23-0.15c0.07-0.06,0.12-0.14,0.15-0.23c0.04-0.08,0.06-0.17,0.06-0.27c-0.01-0.06-0.02-0.12-0.03-0.19
			c-0.03-0.12-0.09-0.22-0.18-0.31c-0.05-0.04-0.1-0.07-0.14-0.11c-0.11-0.06-0.23-0.1-0.36-0.1c0,0-0.01,0-0.01,0
			c-0.06,0.01-0.12,0.02-0.19,0.03c-0.09,0.02-0.17,0.06-0.24,0.13c-0.05,0.03-0.1,0.07-0.13,0.13c-0.06,0.07-0.1,0.15-0.13,0.24
			c0,0.01-0.01,0.02-0.01,0.03c0,0,0,0.01,0,0.01C4,216.18,4,216.32,4.03,216.4L4.03,216.4z"/>
		<path class="st2" d="M8.38,210.78c0.03,0.04,0.07,0.07,0.1,0.11c0.02,0.02,0.03,0.04,0.05,0.05c0.01,0.01,0.02,0.02,0.03,0.03
			c0.02,0.02,0.04,0.03,0.06,0.05c0.05,0.04,0.03,0.03,0.09,0.05c0.02,0.01,0.04,0.02,0.06,0.02c0.01,0,0.02,0.01,0.03,0.01
			c0.02,0.01,0.04,0.02,0.06,0.02c0.04,0.02,0.08,0.03,0.12,0.05c0.05,0.01,0.09,0.01,0.14,0c0.04-0.01,0.08-0.04,0.12-0.07
			c0.03-0.03,0.06-0.07,0.07-0.12c0.01-0.05,0.01-0.09,0-0.14c-0.02-0.04-0.03-0.08-0.05-0.12c-0.01-0.02-0.02-0.04-0.02-0.06
			c0-0.01-0.01-0.02-0.01-0.03c0,0,0-0.01-0.01-0.01c-0.01-0.03-0.02-0.06-0.04-0.09c-0.01-0.02-0.02-0.03-0.03-0.04
			c-0.02-0.02-0.03-0.04-0.05-0.06c-0.01-0.01-0.02-0.02-0.03-0.02c-0.02-0.02-0.04-0.03-0.05-0.05c-0.04-0.03-0.07-0.07-0.11-0.1
			c-0.07-0.06-0.16-0.11-0.25-0.11c-0.05,0-0.1,0.01-0.14,0.03c-0.04,0.01-0.08,0.04-0.12,0.07c-0.06,0.07-0.11,0.16-0.11,0.25
			c0,0.03,0.01,0.06,0.01,0.1C8.3,210.69,8.33,210.74,8.38,210.78L8.38,210.78z"/>
		<path class="st2" d="M50.36,207.99c0.42,0,0.42-0.65,0-0.65C49.95,207.34,49.95,207.99,50.36,207.99L50.36,207.99z"/>
		<path class="st2" d="M137.09,112.46c0.42,0,0.42-0.65,0-0.65C136.67,111.81,136.67,112.46,137.09,112.46L137.09,112.46z"/>
		<path class="st2" d="M72.91,261.4c0.1-0.03,0.19-0.06,0.29-0.09c-0.03,0-0.06,0.01-0.08,0.01c0,0,0,0,0.01,0
			c-0.03,0-0.06-0.01-0.08-0.01c0.01,0,0.02,0.01,0.03,0.01c0.13,0.04,0.28,0,0.37-0.1c0.03-0.03,0.06-0.06,0.07-0.1
			c0.01-0.01,0.01-0.02,0.02-0.04c0.01-0.02,0.02-0.05,0.03-0.07c0.01-0.03,0.02-0.05,0.03-0.08c0.01-0.04,0.02-0.09,0.01-0.13
			c0-0.03-0.01-0.06-0.02-0.08c-0.01-0.04-0.04-0.08-0.07-0.11c-0.02-0.02-0.05-0.04-0.07-0.05c-0.03-0.01-0.05-0.02-0.08-0.03
			c-0.04-0.01-0.09-0.02-0.13-0.01c-0.04,0-0.09,0.02-0.13,0.04c-0.02,0.01-0.05,0.02-0.07,0.03c-0.01,0.01-0.02,0.01-0.03,0.02
			c0,0-0.01,0-0.01,0.01c-0.02,0.01-0.03,0.02-0.05,0.03c-0.02,0.01-0.03,0.02-0.04,0.04c-0.1,0.09-0.14,0.25-0.1,0.37
			c0,0.01,0.01,0.02,0.01,0.03c0-0.03-0.01-0.06-0.01-0.08c0,0,0,0,0,0.01c0-0.03,0.01-0.06,0.01-0.08
			c-0.03,0.1-0.06,0.19-0.09,0.29C72.7,261.33,72.8,261.43,72.91,261.4L72.91,261.4z"/>
		<path class="st2" d="M258.76,212.42c-0.03,0.07-0.06,0.13-0.09,0.2c-0.28,0.63,0.72,0.88,0.78,0.21c0.01-0.17-0.05-0.27-0.14-0.42
			c-0.12-0.21-0.44-0.21-0.56,0c-0.08,0.14-0.15,0.25-0.14,0.42c0.05,0.67,1.06,0.42,0.78-0.21c-0.03-0.07-0.06-0.13-0.09-0.2
			C259.21,212.21,258.85,212.21,258.76,212.42L258.76,212.42z"/>
		<path class="st2" d="M413.74,391.75c0.04,0.04,0.08,0.08,0.12,0.12c0.1,0.1,0.22,0.19,0.34,0.27c0.13,0.06,0.27,0.11,0.4,0.17
			c0.07,0.03,0.15,0.04,0.24,0.04c0.22,0.05,0.44,0.04,0.66-0.03c0.01,0,0.03-0.01,0.04-0.01c0.13-0.06,0.26-0.11,0.39-0.17
			c0.12-0.08,0.23-0.17,0.34-0.26c0.08-0.11,0.17-0.22,0.25-0.33c0.12-0.19,0.18-0.39,0.19-0.61c0.04-0.14,0.04-0.29,0-0.43
			c-0.01-0.22-0.07-0.42-0.19-0.61c-0.03-0.07-0.08-0.13-0.13-0.18c-0.04-0.07-0.08-0.13-0.14-0.18c-0.06-0.06-0.12-0.1-0.19-0.15
			c-0.16-0.15-0.35-0.25-0.57-0.3c-0.15-0.02-0.3-0.04-0.44-0.06c-0.08,0-0.16,0-0.24,0.03c-0.08-0.01-0.16,0.01-0.24,0.04
			c-0.05,0.02-0.1,0.04-0.16,0.06c-0.26,0.07-0.49,0.21-0.69,0.4c-0.19,0.19-0.33,0.42-0.4,0.69
			C413.19,390.77,413.35,391.36,413.74,391.75L413.74,391.75z"/>
		<path class="st2" d="M272.12,472.11c0.17,0,0.17-0.26,0-0.26C271.95,471.84,271.95,472.11,272.12,472.11L272.12,472.11z"/>
		<path class="st2" d="M263.94,443.44c0.14,0,0.14-0.22,0-0.22C263.8,443.23,263.8,443.44,263.94,443.44L263.94,443.44z"/>
		<path class="st2" d="M259.84,453.99c0.12,0,0.22-0.02,0.32-0.07c0.1-0.03,0.19-0.09,0.27-0.17c0.08-0.08,0.14-0.17,0.17-0.27
			c0.05-0.1,0.08-0.21,0.07-0.32c-0.01-0.07-0.02-0.15-0.03-0.22c-0.04-0.14-0.11-0.27-0.22-0.37c-0.06-0.04-0.11-0.09-0.17-0.13
			c-0.13-0.08-0.27-0.11-0.42-0.11c-0.12,0-0.22,0.02-0.32,0.07c-0.1,0.03-0.19,0.09-0.27,0.17c-0.08,0.08-0.14,0.17-0.17,0.27
			c-0.05,0.1-0.08,0.21-0.07,0.32c0.01,0.07,0.02,0.15,0.03,0.22c0.04,0.14,0.11,0.27,0.22,0.37c0.06,0.04,0.11,0.09,0.17,0.13
			C259.54,453.96,259.69,453.99,259.84,453.99L259.84,453.99z"/>
		<path class="st2" d="M292.66,483.52c0.03,0.09,0.06,0.19,0.1,0.28c0.2,0.59,1.15,0.34,0.94-0.26c-0.1-0.28-0.21-0.38-0.47-0.53
			c-0.42-0.24-0.9,0.24-0.66,0.66c0.14,0.25,0.26,0.38,0.53,0.47c0.6,0.2,0.85-0.74,0.26-0.94c-0.09-0.03-0.19-0.06-0.28-0.1
			C292.84,483.03,292.58,483.28,292.66,483.52L292.66,483.52z"/>
		<path class="st2" d="M265.57,489.68c0.14,0,0.14-0.22,0-0.22C265.44,489.46,265.44,489.68,265.57,489.68L265.57,489.68z"/>
		<path class="st2" d="M226.2,25.99c0.23,0,0.23-0.36,0-0.36C225.97,25.63,225.97,25.99,226.2,25.99L226.2,25.99z"/>
		<path class="st2" d="M140.63,17.29c0.23,0,0.23-0.36,0-0.36C140.4,16.93,140.4,17.29,140.63,17.29L140.63,17.29z"/>
		<path class="st2" d="M167.6,139.74c0.03-0.02,0.05-0.04,0.08-0.06c0.23-0.13,0.41-0.31,0.54-0.54c0.14-0.23,0.2-0.49,0.21-0.76
			c0-0.27-0.07-0.52-0.21-0.76c-0.13-0.23-0.31-0.41-0.54-0.54c-0.03-0.02-0.05-0.04-0.08-0.06c-0.25-0.14-0.51-0.21-0.79-0.21
			c-0.28,0-0.55,0.07-0.79,0.21c-0.24,0.14-0.42,0.33-0.56,0.56c-0.14,0.25-0.21,0.51-0.21,0.79c0,0.28,0.07,0.55,0.21,0.79
			c0.14,0.24,0.33,0.42,0.56,0.56c0.25,0.14,0.51,0.21,0.79,0.21C167.09,139.95,167.36,139.88,167.6,139.74L167.6,139.74z"/>
		<path class="st2" d="M211.48,152.68c0.05,0,0.05-0.07,0-0.07C211.43,152.61,211.43,152.68,211.48,152.68L211.48,152.68z"/>
		<path class="st2" d="M232.75,86.53c0.22,0,0.22-0.34,0-0.34C232.53,86.19,232.53,86.53,232.75,86.53L232.75,86.53z"/>
		<path class="st2" d="M241.34,117.52c0.08,0,0.08-0.12,0-0.12C241.27,117.4,241.27,117.52,241.34,117.52L241.34,117.52z"/>
		<path class="st2" d="M229.48,139.86c0.4,0,0.4-0.62,0-0.62C229.08,139.24,229.08,139.86,229.48,139.86L229.48,139.86z"/>
		<path class="st2" d="M211.88,160.69c0.36,0,0.36-0.55,0-0.55C211.53,160.14,211.53,160.69,211.88,160.69L211.88,160.69z"/>
		<path class="st2" d="M78.84,35.68c0.14,0.05,0.24,0.07,0.38,0.09c0.72,0.09,0.72-1.22-0.15-1.08c-0.12,0.02-0.22,0.08-0.33,0.15
			c-0.29,0.16-0.29,0.6,0,0.77c0.11,0.06,0.21,0.13,0.33,0.15c0.85,0.14,0.87-1.17,0.15-1.08c-0.14,0.02-0.25,0.04-0.38,0.09
			C78.39,34.9,78.39,35.52,78.84,35.68L78.84,35.68z"/>
		<path class="st2" d="M260.98,46.29c0.56,0,0.56-0.87,0-0.87C260.43,45.42,260.42,46.29,260.98,46.29L260.98,46.29z"/>
		<path class="st2" d="M279.86,17.79c0.56,0,0.56-0.87,0-0.87C279.3,16.93,279.3,17.79,279.86,17.79L279.86,17.79z"/>
		<path class="st2" d="M481.1,19.18c0.42,0,0.42-0.65,0-0.65C480.69,18.53,480.68,19.18,481.1,19.18L481.1,19.18z"/>
		<path class="st2" d="M403.37,55.71c0.57,0,0.57-0.89,0-0.89C402.79,54.82,402.79,55.71,403.37,55.71L403.37,55.71z"/>
		<path class="st2" d="M449.1,104.52c0.05,0.03,0.11,0.05,0.16,0.08c0.01,0.01,0.03,0.01,0.04,0.02c0.03,0.01,0.06,0.03,0.08,0.04
			c0.05,0.01,0.11,0.01,0.17,0c0.06-0.02,0.1-0.05,0.14-0.08c0.04-0.02,0.06-0.05,0.09-0.09c0.02-0.04,0.03-0.08,0.03-0.12
			c0-0.04-0.01-0.08-0.03-0.12c-0.02-0.04-0.05-0.06-0.09-0.09c-0.04-0.03-0.08-0.06-0.14-0.08c-0.05-0.01-0.12-0.01-0.17,0
			c-0.03,0.01-0.06,0.02-0.08,0.04c-0.01,0.01-0.03,0.01-0.04,0.02c-0.05,0.03-0.11,0.05-0.16,0.08c-0.06,0.03-0.09,0.1-0.09,0.16
			S449.04,104.49,449.1,104.52L449.1,104.52z"/>
		<path class="st2" d="M453.28,150.49c0.39,0,0.39-0.6,0-0.6C452.89,149.89,452.89,150.49,453.28,150.49L453.28,150.49z"/>
		<path class="st2" d="M467.33,221.21c0.08-0.04,0.15-0.08,0.23-0.12c0.41-0.21,0.05-0.83-0.36-0.62c-0.15,0.08-0.21,0.19-0.31,0.32
			c-0.2,0.27,0.2,0.68,0.48,0.48c0.13-0.1,0.25-0.17,0.32-0.31c0.21-0.41-0.41-0.77-0.62-0.36c-0.04,0.08-0.08,0.15-0.12,0.23
			C466.82,221.08,467.08,221.34,467.33,221.21L467.33,221.21z"/>
		<path class="st2" d="M433.23,234.74c0.34,0,0.34-0.53,0-0.53C432.89,234.21,432.89,234.74,433.23,234.74L433.23,234.74z"/>
		<path class="st2" d="M441.01,185.06c0.65,0,0.65-1.01,0-1.01C440.36,184.05,440.36,185.06,441.01,185.06L441.01,185.06z"/>
		<path class="st2" d="M478.8,137.35c-0.03,0.04-0.05,0.08-0.08,0.12c0.08-0.06,0.16-0.12,0.24-0.18c-0.08,0.01-0.15,0.03-0.21,0.06
			c-0.1,0.03-0.19,0.09-0.27,0.17c-0.04,0.06-0.09,0.11-0.13,0.17c0,0.01-0.01,0.01-0.01,0.02c-0.01,0.02-0.02,0.05-0.03,0.07
			c-0.08,0.14-0.12,0.28-0.12,0.44c0,0.16,0.04,0.31,0.12,0.44c0.02,0.02,0.03,0.05,0.05,0.07c0.07,0.12,0.17,0.22,0.29,0.29
			c0.13,0.07,0.26,0.11,0.41,0.11c0.15,0,0.28-0.04,0.41-0.11c0.12-0.07,0.22-0.17,0.29-0.29c0.02-0.02,0.03-0.05,0.05-0.07
			c0.08-0.14,0.12-0.28,0.12-0.44c0-0.16-0.04-0.31-0.12-0.44c-0.01-0.02-0.02-0.05-0.03-0.07c-0.03-0.07-0.06-0.11-0.14-0.19
			c-0.06-0.04-0.11-0.09-0.17-0.13c-0.1-0.06-0.2-0.09-0.31-0.11c0.08,0.06,0.16,0.12,0.24,0.18c-0.03-0.04-0.05-0.08-0.08-0.12
			c-0.06-0.09-0.15-0.15-0.26-0.15S478.86,137.26,478.8,137.35L478.8,137.35z"/>
		<path class="st2" d="M381.84,161.03c0.77,0,0.77-1.2,0-1.2C381.06,159.83,381.06,161.03,381.84,161.03L381.84,161.03z"/>
		<path class="st2" d="M404.45,164.89c0.77,0,0.77-1.2,0-1.2C403.68,163.69,403.68,164.89,404.45,164.89L404.45,164.89z"/>
		<path class="st2" d="M319.32,173.94c0.6,0,0.6-0.94,0-0.94C318.72,173,318.72,173.94,319.32,173.94L319.32,173.94z"/>
		<path class="st2" d="M339.54,127.7c0.54,0,0.54-0.84,0-0.84C339,126.86,339,127.7,339.54,127.7L339.54,127.7z"/>
		<path class="st2" d="M279.52,110.14c-0.01,0.04-0.03,0.08-0.04,0.13c-0.01,0.02-0.01,0.04-0.01,0.06c-0.01,0.04-0.01,0.08,0,0.11
			c0,0.04,0.01,0.08,0.03,0.11c0,0.02,0.01,0.04,0.03,0.06c0.02,0.03,0.04,0.06,0.07,0.09c0.03,0.02,0.06,0.04,0.09,0.07
			c0,0,0.01,0,0.01,0.01c0.01,0.01,0.03,0.02,0.04,0.03c0.04,0.03,0.09,0.04,0.13,0.04c0.05,0.01,0.1,0.01,0.14-0.01
			c0.03-0.01,0.06-0.02,0.09-0.04c0.05-0.03,0.1-0.08,0.13-0.13c0.01-0.01,0.02-0.03,0.03-0.04c0,0,0.01-0.01,0.01-0.01
			c0.01-0.02,0.02-0.03,0.02-0.05c0.01-0.02,0.02-0.04,0.02-0.06c0.01-0.04,0.01-0.08,0.02-0.11c-0.01-0.04-0.01-0.08-0.02-0.11
			c-0.01-0.03-0.03-0.07-0.04-0.1c-0.02-0.03-0.05-0.06-0.07-0.09c-0.02-0.03-0.05-0.06-0.07-0.1c-0.05-0.04-0.1-0.08-0.16-0.09
			c-0.06-0.02-0.13-0.02-0.19,0c-0.06,0.02-0.11,0.05-0.16,0.09C279.56,110.02,279.53,110.08,279.52,110.14L279.52,110.14z"/>
		<path class="st2" d="M380.19,12.64c-0.01,0.04-0.02,0.07-0.04,0.11c-0.01,0.02-0.01,0.04-0.02,0.06
			c-0.02,0.07-0.02,0.15,0.01,0.22c0.01,0.03,0.02,0.07,0.04,0.1c0,0.01,0.01,0.01,0.01,0.02c0.01,0.03,0.02,0.05,0.03,0.07
			c0.02,0.04,0.06,0.07,0.1,0.1c0.04,0.02,0.09,0.04,0.14,0.04c0.05,0,0.1-0.02,0.14-0.04c0.07-0.04,0.1-0.1,0.13-0.17
			c0-0.01,0.01-0.02,0.01-0.03c0.01-0.03,0.02-0.07,0.04-0.1c0-0.01,0.01-0.02,0.01-0.03c0.01-0.04,0.02-0.09,0.01-0.13
			c0-0.02,0-0.04-0.01-0.05c-0.01-0.02-0.01-0.03-0.02-0.05c-0.01-0.04-0.03-0.07-0.04-0.11c-0.01-0.02-0.02-0.04-0.03-0.07
			c-0.02-0.03-0.04-0.06-0.07-0.08c-0.02-0.02-0.04-0.03-0.06-0.04c-0.03-0.02-0.07-0.03-0.11-0.02c-0.05,0-0.1,0.01-0.14,0.04
			C380.25,12.51,380.21,12.58,380.19,12.64L380.19,12.64z"/>
		<path class="st2" d="M309.61,20.98c-0.01,0.04-0.02,0.07-0.04,0.11c-0.01,0.02-0.01,0.04-0.02,0.06
			c-0.02,0.07-0.02,0.15,0.01,0.22c0.01,0.03,0.02,0.07,0.04,0.1c0,0.01,0.01,0.01,0.01,0.02c0.01,0.03,0.02,0.05,0.03,0.07
			c0.02,0.04,0.06,0.07,0.1,0.1c0.04,0.02,0.09,0.04,0.14,0.04s0.1-0.02,0.14-0.04c0.07-0.04,0.1-0.1,0.13-0.17
			c0-0.01,0.01-0.02,0.01-0.03c0.01-0.03,0.02-0.07,0.04-0.1c0-0.01,0.01-0.02,0.01-0.03c0.01-0.04,0.02-0.09,0.01-0.13
			c0-0.02,0-0.04-0.01-0.05c-0.01-0.02-0.01-0.03-0.02-0.05c-0.01-0.04-0.03-0.07-0.04-0.11c-0.01-0.02-0.02-0.04-0.03-0.07
			c-0.02-0.03-0.04-0.06-0.07-0.08c-0.02-0.02-0.04-0.03-0.06-0.04c-0.03-0.02-0.07-0.03-0.11-0.02c-0.05,0-0.1,0.01-0.14,0.04
			C309.68,20.85,309.63,20.92,309.61,20.98L309.61,20.98z"/>
		<path class="st2" d="M451.67,73.3c0.9,0,0.9-1.39,0-1.39C450.77,71.91,450.77,73.3,451.67,73.3L451.67,73.3z"/>
		<path class="st2" d="M373.91,231.67c0.6,0,0.6-0.94,0-0.94C373.3,230.73,373.3,231.67,373.91,231.67L373.91,231.67z"/>
		<path class="st2" d="M167.24,205.54c1.82,0,1.83-2.84,0-2.84C165.41,202.71,165.41,205.54,167.24,205.54L167.24,205.54z"/>
		<path class="st2" d="M21.81,39.27c1.82,0,1.83-2.84,0-2.84C19.98,36.44,19.98,39.27,21.81,39.27L21.81,39.27z"/>
		<path class="st2" d="M320.31,247.84c0.36,0,0.36-0.55,0-0.55C319.95,247.29,319.95,247.84,320.31,247.84L320.31,247.84z"/>
		<path class="st2" d="M333.59,213.68c0.01,0.03,0.02,0.05,0.03,0.08c0,0,0,0.01,0,0.01c0.02,0.03,0.04,0.05,0.06,0.07
			c0.01,0.01,0.03,0.02,0.04,0.03c0.01,0.01,0.03,0.02,0.05,0.03c0.01,0.01,0.03,0.01,0.04,0.02c0.01,0.01,0.03,0.01,0.04,0.02
			c0.01,0,0.01,0,0.02,0c0.03,0.01,0.06,0.01,0.09,0.01c0,0,0.01,0,0.01,0c0.01,0,0.01,0,0.02,0c0.04,0,0.08-0.01,0.12-0.02
			c0.02-0.01,0.04-0.02,0.06-0.02c0.02-0.01,0.04-0.02,0.06-0.03c0.01,0,0.01-0.01,0.02-0.01c0.02-0.02,0.05-0.04,0.08-0.06
			c0,0,0.01,0,0.01-0.01c0.03-0.03,0.06-0.06,0.08-0.1c0,0,0,0,0-0.01c0.01-0.02,0.03-0.06,0.04-0.09c0,0,0,0,0,0
			c0-0.01,0-0.01,0-0.02c0-0.01,0.02-0.08,0.01-0.12c0-0.02-0.01-0.04-0.01-0.06c0-0.02,0-0.04-0.01-0.06
			c0-0.02-0.02-0.04-0.02-0.06c-0.01-0.02-0.02-0.04-0.03-0.06c-0.01-0.02-0.03-0.03-0.03-0.04c-0.01-0.01-0.02-0.03-0.04-0.05
			c-0.01-0.02-0.04-0.03-0.05-0.04c-0.02-0.01-0.03-0.03-0.05-0.04c-0.03-0.02-0.08-0.04-0.11-0.05c-0.01,0-0.02-0.01-0.03-0.01
			c-0.04-0.01-0.08-0.01-0.12-0.02c0,0-0.01,0-0.01,0c0,0-0.01,0-0.01,0c0,0,0,0,0,0c0,0,0,0,0,0c-0.04,0.01-0.07,0.01-0.11,0.02
			c-0.02,0-0.09,0.04-0.1,0.04c0,0,0,0,0,0c0,0,0,0-0.01,0c-0.01,0-0.01,0.01-0.02,0.01c-0.03,0.02-0.07,0.05-0.1,0.08
			c-0.01,0-0.01,0.01-0.01,0.01c-0.02,0.03-0.05,0.06-0.07,0.09c0,0,0,0-0.01,0.01c0,0.01-0.01,0.01-0.01,0.02
			c0,0.01-0.04,0.08-0.05,0.11c0,0.02-0.01,0.05-0.01,0.06c0,0.02-0.01,0.04-0.01,0.06c0,0,0,0.01,0,0.01c0,0,0,0,0,0
			c0,0.03,0.01,0.08,0.01,0.11c0,0.01,0,0.01,0.01,0.02c0.01,0.05,0.04,0.1,0.07,0.13c0.03,0.04,0.07,0.08,0.11,0.1
			c0.03,0.01,0.06,0.03,0.09,0.04c0.05,0.02,0.11,0.02,0.16,0.01c0.04,0,0.07-0.01,0.1-0.03c0.05-0.02,0.09-0.04,0.13-0.08
			c0.02-0.03,0.04-0.05,0.06-0.08c0.04-0.06,0.05-0.13,0.05-0.2c0-0.01,0-0.02,0-0.02c0,0.04-0.01,0.07-0.01,0.11
			c0-0.01,0-0.02,0.01-0.02c-0.01,0.03-0.03,0.06-0.04,0.1c0-0.01,0.01-0.02,0.01-0.02c-0.02,0.03-0.04,0.05-0.06,0.08
			c0.01-0.01,0.01-0.02,0.02-0.02c-0.03,0.02-0.06,0.04-0.08,0.06c0.01-0.01,0.02-0.01,0.03-0.02c-0.03,0.01-0.07,0.03-0.1,0.04
			c0.01,0,0.02-0.01,0.03-0.01c0.05-0.01,0.09-0.04,0.13-0.05c-0.03,0.01-0.07,0.03-0.1,0.04c0.01,0,0.02-0.01,0.04-0.01
			c-0.04,0-0.07,0.01-0.11,0.01c0.01,0,0.02,0,0.03,0c-0.04,0-0.07-0.01-0.11-0.01c0.01,0,0.02,0,0.02,0.01
			c-0.03-0.01-0.06-0.03-0.09-0.04c0.01,0,0.01,0.01,0.02,0.01c-0.03-0.02-0.05-0.04-0.08-0.06c0.01,0,0.01,0.01,0.02,0.02
			c-0.02-0.03-0.04-0.05-0.06-0.08c0,0.01,0.01,0.01,0.01,0.02c-0.01-0.03-0.02-0.06-0.04-0.09c0,0.01,0,0.01,0.01,0.02
			c0-0.03-0.01-0.06-0.01-0.1c0,0.01,0,0.02,0,0.03c0-0.03,0.01-0.06,0.01-0.1c0,0.01,0,0.02-0.01,0.03
			c0.01-0.03,0.02-0.06,0.04-0.08c-0.01,0.01-0.01,0.02-0.02,0.03c0.02-0.02,0.04-0.05,0.05-0.07c-0.01,0.01-0.02,0.02-0.03,0.03
			c0.02-0.02,0.04-0.03,0.07-0.05c-0.01,0.01-0.02,0.01-0.03,0.02c0.03-0.01,0.05-0.02,0.08-0.03c-0.01,0-0.02,0.01-0.03,0.01
			c0.03,0,0.05-0.01,0.08-0.01c-0.01,0-0.02,0-0.03,0c0.03,0,0.05,0.01,0.08,0.01c-0.01,0-0.02,0-0.02-0.01
			c0.02,0.01,0.05,0.02,0.07,0.03c-0.01,0-0.01-0.01-0.02-0.01c0.02,0.02,0.04,0.03,0.06,0.05c0,0,0,0,0,0
			c-0.02-0.02-0.04-0.03-0.06-0.05c-0.03-0.02-0.07-0.03-0.11-0.03c-0.03-0.01-0.05-0.01-0.08,0c-0.04,0-0.07,0.01-0.11,0.03
			c-0.02,0.02-0.04,0.03-0.06,0.05c-0.02,0.02-0.03,0.04-0.05,0.06c-0.02,0.03-0.03,0.07-0.03,0.11
			C333.58,213.61,333.58,213.64,333.59,213.68L333.59,213.68z"/>
		<path class="st2" d="M321.54,91.64c0.12,0,0.24-0.02,0.35-0.08c0.11-0.04,0.21-0.1,0.29-0.19c0.09-0.08,0.15-0.18,0.19-0.29
			c0.06-0.11,0.08-0.22,0.08-0.35c-0.01-0.08-0.02-0.16-0.03-0.24c-0.04-0.15-0.12-0.29-0.23-0.4c-0.06-0.05-0.12-0.09-0.18-0.14
			c-0.14-0.08-0.29-0.12-0.46-0.12c-0.12,0-0.24,0.02-0.35,0.08c-0.11,0.04-0.21,0.1-0.29,0.19c-0.09,0.08-0.15,0.18-0.19,0.29
			c-0.06,0.11-0.08,0.22-0.08,0.35c0.01,0.08,0.02,0.16,0.03,0.24c0.04,0.15,0.12,0.29,0.23,0.4c0.06,0.05,0.12,0.09,0.18,0.14
			C321.22,91.6,321.37,91.64,321.54,91.64L321.54,91.64z"/>
		<path class="st2" d="M417.74,81.44c0.12,0,0.24-0.02,0.35-0.08c0.11-0.04,0.21-0.1,0.29-0.19c0.09-0.08,0.15-0.18,0.19-0.29
			c0.06-0.11,0.08-0.22,0.08-0.35c-0.01-0.08-0.02-0.16-0.03-0.24c-0.04-0.15-0.12-0.29-0.23-0.4c-0.06-0.05-0.12-0.09-0.18-0.14
			c-0.14-0.08-0.29-0.12-0.46-0.12c-0.12,0-0.24,0.02-0.35,0.08c-0.11,0.04-0.21,0.1-0.29,0.19c-0.09,0.08-0.15,0.18-0.19,0.29
			c-0.06,0.11-0.08,0.22-0.08,0.35c0.01,0.08,0.02,0.16,0.03,0.24c0.04,0.15,0.12,0.29,0.23,0.4c0.06,0.05,0.12,0.09,0.18,0.14
			C417.42,81.4,417.58,81.44,417.74,81.44L417.74,81.44z"/>
		<path class="st2" d="M214.34,251.83c0.22,0,0.22-0.34,0-0.34C214.12,251.49,214.12,251.83,214.34,251.83L214.34,251.83z"/>
		<path class="st2" d="M239.55,210.89c0.04-0.06,0.07-0.13,0.11-0.19c0.26-0.47-0.41-0.85-0.71-0.42c-0.1,0.15-0.09,0.29-0.09,0.46
			c0.01,0.57,0.88,0.57,0.89,0c0-0.17,0.01-0.31-0.09-0.46c-0.3-0.43-0.98-0.05-0.71,0.42c0.04,0.06,0.07,0.13,0.11,0.19
			C239.15,211.08,239.44,211.08,239.55,210.89L239.55,210.89z"/>
		<path class="st2" d="M466.45,473.87c-0.03,0.07-0.06,0.13-0.09,0.2c-0.28,0.63,0.72,0.88,0.78,0.21c0.01-0.17-0.05-0.27-0.14-0.42
			c-0.12-0.21-0.44-0.21-0.56,0c-0.08,0.14-0.15,0.25-0.14,0.42c0.05,0.67,1.06,0.42,0.78-0.21c-0.03-0.07-0.06-0.13-0.09-0.2
			C466.9,473.67,466.54,473.67,466.45,473.87L466.45,473.87z"/>
		<path class="st2" d="M447.24,472.34c0.04-0.06,0.07-0.13,0.11-0.19c0.26-0.47-0.41-0.85-0.71-0.42c-0.1,0.15-0.09,0.29-0.09,0.46
			c0.01,0.57,0.88,0.57,0.89,0c0-0.17,0.01-0.31-0.09-0.46c-0.3-0.43-0.98-0.05-0.71,0.42c0.04,0.06,0.07,0.13,0.11,0.19
			C446.84,472.53,447.13,472.53,447.24,472.34L447.24,472.34z"/>
		<path class="st2" d="M85.55,180.96c-0.03,0.03-0.06,0.07-0.09,0.1c-0.31,0.33-0.31,0.84,0,1.17c0.03,0.03,0.06,0.07,0.09,0.1
			c0.58,0.62,1.65,0.13,1.65-0.68C87.21,180.83,86.14,180.34,85.55,180.96L85.55,180.96z"/>
		<path class="st2" d="M242.57,279.43c1.52,0,1.52-2.35,0-2.35C241.06,277.07,241.05,279.43,242.57,279.43L242.57,279.43z"/>
		<path class="st2" d="M455.88,344.59c1.52,0,1.52-2.35,0-2.35C454.37,342.24,454.37,344.59,455.88,344.59L455.88,344.59z"/>
		<path class="st2" d="M328.63,412.79c1.52,0,1.52-2.35,0-2.35C327.12,410.44,327.11,412.79,328.63,412.79L328.63,412.79z"/>
		<path class="st2" d="M341.27,339.27c0.66,0,0.67-1.03,0-1.03C340.6,338.24,340.6,339.27,341.27,339.27L341.27,339.27z"/>
		<path class="st2" d="M321.54,406.37c0.66,0,0.67-1.03,0-1.03C320.87,405.34,320.87,406.37,321.54,406.37L321.54,406.37z"/>
		<path class="st2" d="M116.3,70.63c-0.08-0.02-0.16-0.04-0.24-0.05c-0.61-0.14-0.87,0.8-0.26,0.94c0.2,0.05,0.31,0.02,0.5-0.05
			C116.71,71.3,116.71,70.8,116.3,70.63c-0.19-0.07-0.3-0.1-0.5-0.05c-0.61,0.14-0.35,1.09,0.26,0.94c0.08-0.02,0.16-0.04,0.24-0.05
			C116.71,71.37,116.72,70.73,116.3,70.63L116.3,70.63z"/>
		<path class="st2" d="M210.66,193.29c0.19,0,0.19-0.29,0-0.29C210.47,193.01,210.47,193.29,210.66,193.29L210.66,193.29z"/>
		<path class="st2" d="M343.22,266.34c0.46,0,0.46-0.72,0-0.72C342.76,265.62,342.76,266.34,343.22,266.34L343.22,266.34z"/>
		<path class="st2" d="M294.12,226.94c0.31,0,0.31-0.48,0-0.48C293.81,226.46,293.81,226.94,294.12,226.94L294.12,226.94z"/>
		<path class="st2" d="M394.11,291.39c0.05-0.01,0.09-0.02,0.14-0.03c0.1-0.04,0.21-0.09,0.31-0.13c0.15-0.08,0.27-0.19,0.36-0.33
			c0.08-0.08,0.13-0.18,0.17-0.28c0.08-0.15,0.12-0.32,0.11-0.5c-0.02-0.11-0.03-0.23-0.05-0.34c-0.04-0.1-0.09-0.21-0.13-0.31
			c-0.08-0.15-0.19-0.27-0.33-0.36c-0.12-0.11-0.27-0.19-0.44-0.23c-0.05-0.01-0.09-0.02-0.14-0.03c-0.23-0.06-0.47-0.06-0.7,0
			c-0.22,0.06-0.42,0.18-0.58,0.34c-0.07,0.09-0.14,0.18-0.21,0.27c-0.12,0.21-0.18,0.43-0.18,0.67c-0.01,0.18,0.03,0.35,0.11,0.51
			c0.05,0.16,0.14,0.31,0.27,0.43c0.16,0.16,0.36,0.28,0.58,0.34C393.64,291.45,393.88,291.45,394.11,291.39L394.11,291.39z"/>
		<path class="st2" d="M414.69,127.22c-0.13,0.02-0.26,0.05-0.39,0.07c-0.03,0.01-0.07,0.03-0.1,0.04
			c-0.05,0.03-0.09,0.06-0.11,0.11c-0.03,0.03-0.04,0.06-0.05,0.09c-0.03,0.05-0.04,0.1-0.04,0.16c0,0.04,0.01,0.07,0.01,0.11
			c0.01,0.03,0.03,0.07,0.04,0.1c0.03,0.05,0.06,0.09,0.11,0.11c0.04,0.04,0.09,0.06,0.14,0.07c0.13,0.02,0.26,0.05,0.39,0.07
			c0.09,0.02,0.17,0.02,0.26,0c0.08-0.02,0.15-0.06,0.21-0.12c0.03-0.03,0.05-0.06,0.08-0.1c0.04-0.07,0.07-0.16,0.07-0.24
			c0-0.07-0.01-0.13-0.04-0.19c-0.02-0.06-0.05-0.11-0.1-0.15c-0.06-0.06-0.13-0.1-0.21-0.12
			C414.86,127.2,414.78,127.2,414.69,127.22L414.69,127.22z"/>
		<path class="st2" d="M195.33,9.31C195.33,9.31,195.34,9.31,195.33,9.31c0.04,0.06,0.08,0.11,0.12,0.16
			c0.05,0.04,0.1,0.08,0.15,0.12c0.06,0.03,0.12,0.05,0.18,0.08c0.1,0.03,0.2,0.04,0.3,0.01c0.07,0,0.13-0.02,0.19-0.05
			c0.06-0.02,0.12-0.05,0.17-0.1c0.06-0.03,0.1-0.08,0.14-0.14c0.07-0.07,0.11-0.16,0.14-0.26c0,0,0,0,0-0.01
			c0.04-0.14,0.04-0.27,0-0.41c-0.04-0.13-0.1-0.24-0.2-0.34c-0.1-0.09-0.21-0.16-0.34-0.2c-0.1-0.03-0.2-0.04-0.31-0.01
			c-0.1,0-0.2,0.03-0.28,0.09c-0.12,0.07-0.21,0.16-0.27,0.27C195.2,8.77,195.19,9.07,195.33,9.31L195.33,9.31z"/>
		<path class="st2" d="M49.94,141.41c0.01,0.02,0.01,0.03,0.02,0.05c0.02,0.06,0.05,0.11,0.07,0.17c0.04,0.08,0.1,0.15,0.18,0.2
			c0.04,0.04,0.1,0.07,0.16,0.09c0.08,0.04,0.17,0.06,0.27,0.06c0,0,0.01,0,0.01,0c0.1,0,0.19-0.02,0.27-0.06
			c0.09-0.03,0.16-0.08,0.23-0.15c0.07-0.06,0.12-0.14,0.15-0.23c0.04-0.08,0.06-0.17,0.06-0.27c-0.01-0.06-0.02-0.12-0.03-0.19
			c-0.03-0.12-0.09-0.22-0.18-0.31c-0.05-0.04-0.1-0.07-0.14-0.11c-0.11-0.06-0.23-0.1-0.36-0.1c0,0-0.01,0-0.01,0
			c-0.06,0.01-0.12,0.02-0.19,0.03c-0.09,0.02-0.17,0.06-0.24,0.13c-0.05,0.03-0.1,0.07-0.13,0.13c-0.06,0.07-0.1,0.15-0.13,0.24
			c0,0.01-0.01,0.02-0.01,0.03c0,0,0,0.01,0,0.01C49.92,141.19,49.91,141.33,49.94,141.41L49.94,141.41z"/>
		<path class="st2" d="M171.1,71.4c0.03,0.04,0.07,0.07,0.1,0.11c0.02,0.02,0.03,0.04,0.05,0.05c0.01,0.01,0.02,0.02,0.03,0.03
			c0.02,0.02,0.04,0.03,0.06,0.05c0.05,0.04,0.03,0.03,0.09,0.05c0.02,0.01,0.04,0.02,0.06,0.02c0.01,0,0.02,0.01,0.03,0.01
			c0.02,0.01,0.04,0.02,0.06,0.02c0.04,0.02,0.08,0.03,0.12,0.05c0.05,0.01,0.09,0.01,0.14,0c0.04-0.01,0.08-0.04,0.12-0.07
			c0.03-0.03,0.06-0.07,0.07-0.12c0.01-0.05,0.01-0.09,0-0.14c-0.02-0.04-0.03-0.08-0.05-0.12c-0.01-0.02-0.02-0.04-0.02-0.06
			c0-0.01-0.01-0.02-0.01-0.03c0,0,0-0.01-0.01-0.01c-0.01-0.03-0.02-0.06-0.04-0.09c-0.01-0.02-0.02-0.03-0.03-0.04
			c-0.02-0.02-0.03-0.04-0.05-0.06c-0.01-0.01-0.02-0.02-0.03-0.02c-0.02-0.02-0.04-0.03-0.05-0.05c-0.04-0.03-0.07-0.07-0.11-0.1
			c-0.07-0.06-0.16-0.11-0.25-0.11c-0.05,0-0.1,0.01-0.14,0.03c-0.04,0.01-0.08,0.04-0.12,0.07c-0.06,0.07-0.11,0.16-0.11,0.25
			c0,0.03,0.01,0.06,0.01,0.1C171.02,71.3,171.05,71.36,171.1,71.4L171.1,71.4z"/>
		<path class="st2" d="M237.25,12.63c0.42,0,0.42-0.65,0-0.65C236.83,11.98,236.83,12.63,237.25,12.63L237.25,12.63z"/>
		<path class="st2" d="M259.79,66.04c0.1-0.03,0.19-0.06,0.29-0.09c-0.03,0-0.06,0.01-0.08,0.01c0,0,0,0,0.01,0
			c-0.03,0-0.06-0.01-0.08-0.01c0.01,0,0.02,0.01,0.03,0.01c0.13,0.04,0.28,0,0.37-0.1c0.03-0.03,0.06-0.06,0.07-0.1
			c0.01-0.01,0.01-0.02,0.02-0.04c0.01-0.02,0.02-0.05,0.03-0.07c0.01-0.03,0.02-0.05,0.03-0.08c0.01-0.04,0.02-0.09,0.01-0.13
			c0-0.03-0.01-0.06-0.02-0.08c-0.01-0.04-0.04-0.08-0.07-0.11c-0.02-0.02-0.05-0.04-0.07-0.05c-0.03-0.01-0.05-0.02-0.08-0.03
			c-0.04-0.01-0.09-0.02-0.13-0.01c-0.04,0-0.09,0.02-0.13,0.04c-0.02,0.01-0.05,0.02-0.07,0.03c-0.01,0.01-0.02,0.01-0.03,0.02
			c0,0-0.01,0-0.01,0.01c-0.02,0.01-0.03,0.02-0.05,0.03c-0.02,0.01-0.03,0.02-0.04,0.04c-0.1,0.09-0.14,0.25-0.1,0.37
			c0,0.01,0.01,0.02,0.01,0.03c0-0.03-0.01-0.06-0.01-0.08c0,0,0,0,0,0.01c0-0.03,0.01-0.06,0.01-0.08
			c-0.03,0.1-0.06,0.19-0.09,0.29C259.58,65.97,259.69,66.07,259.79,66.04L259.79,66.04z"/>
		<path class="st2" d="M445.65,17.06c-0.03,0.07-0.06,0.13-0.09,0.2c-0.28,0.63,0.72,0.88,0.78,0.21c0.01-0.17-0.05-0.27-0.14-0.42
			c-0.12-0.21-0.44-0.21-0.56,0c-0.08,0.14-0.15,0.25-0.14,0.42c0.05,0.67,1.06,0.42,0.78-0.21c-0.03-0.07-0.06-0.13-0.09-0.2
			C446.1,16.85,445.74,16.85,445.65,17.06L445.65,17.06z"/>
		<path class="st2" d="M324.62,45.24c0.04,0.04,0.08,0.08,0.12,0.12c0.1,0.1,0.22,0.19,0.34,0.27c0.13,0.06,0.27,0.11,0.4,0.17
			c0.07,0.03,0.15,0.04,0.24,0.04c0.22,0.05,0.44,0.04,0.66-0.03c0.01,0,0.03-0.01,0.04-0.01c0.13-0.06,0.26-0.11,0.39-0.17
			c0.12-0.08,0.23-0.17,0.34-0.26c0.08-0.11,0.17-0.22,0.25-0.33c0.12-0.19,0.18-0.39,0.19-0.61c0.04-0.14,0.04-0.29,0-0.43
			c-0.01-0.22-0.07-0.42-0.19-0.61c-0.03-0.07-0.08-0.13-0.13-0.18c-0.04-0.07-0.08-0.13-0.14-0.18c-0.06-0.06-0.12-0.1-0.19-0.15
			c-0.16-0.15-0.35-0.25-0.57-0.3c-0.15-0.02-0.3-0.04-0.44-0.06c-0.08,0-0.16,0-0.24,0.03c-0.08-0.01-0.16,0.01-0.24,0.04
			c-0.05,0.02-0.1,0.04-0.16,0.06c-0.26,0.07-0.49,0.21-0.69,0.4c-0.19,0.19-0.33,0.42-0.4,0.69
			C324.07,44.26,324.23,44.85,324.62,45.24L324.62,45.24z"/>
		<path class="st2" d="M459.01,276.75c0.17,0,0.17-0.26,0-0.26C458.84,276.48,458.84,276.75,459.01,276.75L459.01,276.75z"/>
		<path class="st2" d="M450.83,248.08c0.14,0,0.14-0.22,0-0.22C450.69,247.87,450.69,248.08,450.83,248.08L450.83,248.08z"/>
		<path class="st2" d="M446.73,258.64c0.12,0,0.22-0.02,0.32-0.07c0.1-0.03,0.19-0.09,0.27-0.17c0.08-0.08,0.14-0.17,0.17-0.27
			c0.05-0.1,0.08-0.21,0.07-0.32c-0.01-0.07-0.02-0.15-0.03-0.22c-0.04-0.14-0.11-0.27-0.22-0.37c-0.06-0.04-0.11-0.09-0.17-0.13
			c-0.13-0.08-0.27-0.11-0.42-0.11c-0.12,0-0.22,0.02-0.32,0.07c-0.1,0.03-0.19,0.09-0.27,0.17c-0.08,0.08-0.14,0.17-0.17,0.27
			c-0.05,0.1-0.08,0.21-0.07,0.32c0.01,0.07,0.02,0.15,0.03,0.22c0.04,0.14,0.11,0.27,0.22,0.37c0.06,0.04,0.11,0.09,0.17,0.13
			C446.43,258.6,446.57,258.64,446.73,258.64L446.73,258.64z"/>
		<path class="st2" d="M479.55,288.16c0.03,0.09,0.06,0.19,0.1,0.28c0.2,0.59,1.15,0.34,0.94-0.26c-0.1-0.28-0.21-0.38-0.47-0.53
			c-0.42-0.24-0.9,0.24-0.66,0.66c0.14,0.25,0.26,0.38,0.53,0.47c0.6,0.2,0.85-0.74,0.26-0.94c-0.09-0.03-0.19-0.06-0.28-0.1
			C479.73,287.67,479.47,287.92,479.55,288.16L479.55,288.16z"/>
		<path class="st2" d="M452.46,294.32c0.14,0,0.14-0.22,0-0.22C452.32,294.1,452.32,294.32,452.46,294.32L452.46,294.32z"/>
	</g>
</g>
<g id="Layer_2">
	<g id="PLANETILLA_x5F_01">
		<circle class="st3" cx="462.23" cy="443.56" r="11.31"/>
		<path class="st4" d="M470.96,436.37c2.12,2.58,3.09,6.08,2.32,9.6c-1.33,6.1-7.35,9.97-13.45,8.64c-2.27-0.49-4.23-1.64-5.73-3.2
			C468.43,456.11,473.48,441.56,470.96,436.37z"/>
		<path class="st5" d="M461.45,450.03c-13.02-2.84-23.89-7.36-23.25-10.31c0.34-1.58,5.54-2.02,13.77-0.89c0,0-0.13,0.28-0.21,0.5
			c-0.08,0.22-0.05,0.16-0.05,0.16c-8.53-1.17-11.7-0.53-11.57,0.57c0.16,1.37,7.68,5.34,21.99,8.17c14.14,2.8,21.9,2.36,22.14,1.11
			c0.04-0.5-3.03-2.9-10.75-5.1l0.02-0.69c7.91,2.39,11.12,4.54,12.14,5.79C488.59,452.88,475.06,452.65,461.45,450.03z"/>
		<path class="st5" d="M461.63,446.98c-6.43-1.4-19.7-4.97-19.32-6.73c0.08-0.39,0.35-1.18,9.06,0.18c0,0-0.05,0.16-0.09,0.32
			c-0.01,0.03-0.02,0.07-0.02,0.1c-1.69-0.34-8.79-1.33-7.64-0.26c0.97,0.9,8.01,3.42,18.06,5.61c10.1,2.2,17.82,2.81,18.87,2.3
			c0.47-0.23-2.18-1.4-7.22-2.83c0,0,0.03-0.14,0.04-0.23c0.01-0.08,0.03-0.21,0.03-0.21c8.4,2.37,8.7,3.49,8.2,3.78
			C479.4,450.28,468.06,448.38,461.63,446.98z"/>
	</g>
	<g id="PLANETILLA_x5F_02">
		<circle class="st6" cx="25.3" cy="474.1" r="8.77"/>
		<path class="st7" d="M30.43,466.98c2.1,1.52,3.51,3.95,3.63,6.74c0.2,4.84-3.55,8.93-8.39,9.13c-1.8,0.08-3.5-0.4-4.93-1.27
			C32.42,482.28,33.34,470.38,30.43,466.98z"/>
		<g id="TOPOS">
			<circle class="st7" cx="20.92" cy="471.38" r="1.55"/>
			<circle class="st7" cx="25.03" cy="469.36" r="0.47"/>
			<circle class="st7" cx="28.6" cy="471.46" r="1.47"/>
			<circle class="st7" cx="25.26" cy="473.01" r="0.31"/>
			<circle class="st7" cx="18.9" cy="476.89" r="1.24"/>
			<circle class="st7" cx="23.09" cy="467.89" r="0.23"/>
			<circle class="st7" cx="24.02" cy="475.57" r="0.62"/>
		</g>
	</g>
	<g id="PLANETILLA_x5F_03">
		<circle class="st8" cx="32.63" cy="24.18" r="11.15"/>
		<path class="st9" d="M39.15,15.14c2.67,1.93,4.47,5.02,4.62,8.57c0.26,6.15-4.52,11.35-10.67,11.61c-2.29,0.1-4.45-0.5-6.27-1.61
			C41.68,34.59,42.85,19.45,39.15,15.14z"/>
		<g>
			<path class="st10" d="M30.58,29.01c-0.09-0.2-0.22-0.37-0.41-0.55c-0.15-0.14-0.31-0.28-0.44-0.43c0.34-0.34,0.59-0.77,0.71-1.27
				c0.29-1.19-0.51-2.41-1.73-2.54c-0.01-0.07,0-0.14-0.02-0.21c-0.01-0.02-0.01-0.04-0.01-0.06c0.12-0.22,0.27-0.6,0.28-0.62
				c0.1-0.28,0.11-0.59,0.06-0.88c0.25-0.31,0.4-0.67,0.45-1.08c0.11-0.79-0.05-1.56-0.44-2.26c-0.13-0.22-0.3-0.38-0.48-0.5
				c0.05-0.17,0.09-0.35,0.11-0.53c0.03-0.47-0.45-0.7-0.83-0.64c-0.77,0.12-1.41,0.75-1.94,1.27c-0.51,0.51-0.92,1.12-0.84,1.88
				c0.07,0.64,0.52,1.1,1.09,1.25c-0.12,0.32-0.09,0.68,0.05,0.99c-0.21,0.32-0.33,0.7-0.33,1.08c0,0.08,0.02,0.17,0.04,0.25
				c-0.6,0.02-1.2,0.06-1.77,0.2c0.01,0.01,0.01,0.03,0.02,0.04c-0.44,0.11-0.83,0.36-1.02,0.85c-0.26,0.64-0.08,1.63,0.63,1.93
				c0.26,0.11,0.53,0.19,0.8,0.28c0.04,1.21,0.92,2.11,2.03,2.48c0.49,0.16,1,0.19,1.5,0.08c0.05-0.02,0.08-0.04,0.13-0.05
				c0.1,0.09,0.2,0.17,0.29,0.25c0.26,0.22,0.51,0.32,0.78,0.41c0.53,0.41,1.17,0.77,1.78,0.28c0.46-0.36,0.5-0.99,0.1-1.49
				C31.02,29.26,30.8,29.14,30.58,29.01z M26.25,19.52C26.17,19.63,26.1,19.54,26.25,19.52L26.25,19.52z M28.44,29.9
				c-0.02,0.01-0.03,0.01-0.04,0.02c-0.01,0-0.01,0-0.02,0C28.62,29.82,28.64,29.81,28.44,29.9z"/>
			<path class="st10" d="M38.4,16.98c-0.15-0.12-0.28-0.2-0.47-0.27c-0.51-0.18-0.97,0.29-1,0.76c-0.01,0.15-0.03,0.46,0.04,0.7
				c-0.01,0.03-0.02,0.05-0.03,0.08c-0.1-0.1-0.2-0.2-0.32-0.29c-0.38-0.29-0.83-0.4-1.27-0.32c-0.11-0.05-0.22-0.11-0.34-0.14
				c-0.01,0-0.02-0.01-0.03-0.01c-0.09-0.07-0.18-0.14-0.28-0.19c0-0.26-0.07-0.51-0.33-0.58c-0.12-0.04-0.28,0.01-0.39,0.06
				c-0.13,0.06-0.12,0.13-0.17,0.23c0,0.03,0,0.05,0,0.08c-0.04,0-0.07,0-0.11-0.01c-0.04,0.01-0.1,0-0.15,0.01
				c-0.13,0.02-0.27,0.07-0.4,0.12c-0.02,0.01-0.07,0.02-0.13,0.04c0,0,0.01-0.01,0.01-0.01c0.03-0.03,0.17-0.13,0.19-0.19
				c0.07-0.02,0.14-0.03,0.2-0.05c0,0-0.01-0.01-0.01-0.01c0.44-0.12,0.46-0.85-0.11-0.87c-0.27-0.01-0.55,0.05-0.81,0.14
				c-0.29,0.1-0.44,0.26-0.62,0.5c-0.15,0.2,0.05,0.54,0.3,0.52c0.04,0,0.08-0.01,0.12-0.01c-0.04,0.11-0.05,0.22,0,0.34
				c0.14,0.31,0.56,0.34,0.81,0.15c0.12-0.09,0.19-0.23,0.29-0.35c0.07-0.08,0.12-0.17,0.25-0.15c0.06,0.01,0.11,0.05,0.18,0.06
				c-0.09,0.09-0.12,0.22-0.1,0.35c-0.1,0.04-0.2,0.08-0.28,0.13c-0.99,0.66-1.13,1.95-0.6,2.96c0.2,0.38,0.51,0.67,0.89,0.86
				c-0.21,0.4-0.16,0.92,0.17,1.25c0.11,0.11,0.25,0.19,0.39,0.24c0.06,0.07,0.12,0.14,0.2,0.19c-0.08,0.04-0.16,0.07-0.24,0.11
				c-0.07,0.01-0.14,0.01-0.2,0.03c-0.1,0.03-0.2,0.09-0.29,0.13c-0.09,0.04-0.08,0.15-0.03,0.21c-0.06,0.06-0.13,0.11-0.19,0.17
				c-0.1,0.1-0.17,0.22-0.23,0.33c-0.34,0.09-0.62,0.26-0.81,0.59c-0.24,0.41-0.22,0.9,0,1.31c0.31,0.59,0.98,0.86,1.61,0.88
				c0.36,0.01,0.71-0.08,1.07-0.14c0.05-0.01,0.1-0.01,0.14-0.01c0.13,0.14,0.23,0.32,0.37,0.44c0.12,0.1,0.27,0.17,0.4,0.26
				c-0.01,0.29-0.07,0.61-0.13,0.85c0.05-0.01,0.05,0.01-0.01,0.05c-0.03,0.03-0.06,0.07-0.07,0.12c-0.04,0.09-0.06,0.19-0.08,0.28
				c-0.06,0.3,0.05,0.5,0.24,0.72c0.41,0.46,0.97,0.02,1.02-0.43c0,0,0.01,0,0.01,0c0-0.01-0.01-0.02,0-0.04c0-0.05,0-0.1-0.02-0.15
				c-0.02-0.16-0.08-0.3-0.19-0.44c-0.03-0.04-0.09-0.09-0.13-0.13c0.01-0.11-0.01-0.22-0.08-0.32c-0.05-0.34-0.2-0.66-0.28-0.99
				c-0.02-0.08-0.02-0.16-0.02-0.25c0.18,0.01,0.36,0.02,0.55-0.01c0.26,0.14,0.61,0.06,0.83-0.13c0.28-0.25,0.32-0.67,0.18-1
				c-0.12-0.28-0.32-0.47-0.56-0.65c-0.05-0.04-0.12-0.06-0.18-0.09c0.02-0.22,0-0.45-0.13-0.62c-0.03-0.04-0.06-0.06-0.09-0.1
				c0.13-0.14,0.2-0.32,0.18-0.53c-0.03-0.26-0.22-0.47-0.47-0.54c-0.19-0.05-0.37-0.14-0.56-0.19c-0.05-0.01-0.1-0.01-0.15-0.02
				c0.01-0.08,0.01-0.16,0-0.24c-0.01-0.07-0.03-0.13-0.05-0.2c0.09-0.1,0.17-0.22,0.21-0.37c0.07-0.25,0.03-0.56-0.12-0.78
				c0.08-0.07,0.15-0.14,0.22-0.22c0.23,0.11,0.47,0.18,0.73,0.18c0.59-0.01,1.08-0.44,1.16-1.03c0.01-0.06-0.01-0.12-0.01-0.18
				c0.01,0.01,0.02,0.02,0.03,0.02c0.03-0.44-0.16-0.78-0.41-1.08c0.23-0.04,0.42-0.17,0.55-0.37c0.1-0.16,0.16-0.34,0.15-0.53
				c0-0.03-0.01-0.06-0.02-0.1C38.68,17.81,38.74,17.24,38.4,16.98z M34.09,17.1c0,0.01-0.02,0.02-0.03,0.03c0,0,0-0.01,0-0.01
				c0.01-0.03,0-0.07-0.01-0.1C34.06,17.04,34.08,17.07,34.09,17.1z M36.88,24.35C36.89,24.34,36.9,24.34,36.88,24.35L36.88,24.35z"
				/>
		</g>
	</g>
	<g id="LUNA">
		<circle class="st11" cx="48.8" cy="15.66" r="4.04"/>
		<path class="st12" d="M51.17,12.37c0.97,0.7,1.62,1.82,1.67,3.11c0.09,2.23-1.64,4.12-3.87,4.21c-0.83,0.04-1.61-0.18-2.27-0.59
			C52.08,19.43,52.51,13.94,51.17,12.37z"/>
		<circle class="st12" cx="47.8" cy="14.3" r="1.5"/>
		<circle class="st12" cx="46.3" cy="17.12" r="0.42"/>
		<circle class="st12" cx="48.88" cy="17.46" r="0.58"/>
		<circle class="st12" cx="49.91" cy="15.56" r="0.36"/>
		<circle class="st12" cx="49" cy="16.18" r="0.1"/>
		<circle class="st12" cx="50.76" cy="13.35" r="0.48"/>
		<circle class="st12" cx="50.47" cy="14.15" r="0.09"/>
		<circle class="st12" cx="49.41" cy="12.45" r="0.19"/>
		<circle class="st12" cx="45.53" cy="15.42" r="0.46"/>
		<circle class="st12" cx="46.85" cy="16.41" r="0.09"/>
		<circle class="st12" cx="47.32" cy="18.36" r="0.51"/>
		<circle class="st12" cx="50.75" cy="16.84" r="0.13"/>
		<circle class="st13" cx="50.51" cy="18.76" r="0.44"/>
		<circle class="st13" cx="51.52" cy="17.65" r="0.07"/>
		<circle class="st13" cx="52.23" cy="16.44" r="0.15"/>
		<circle class="st13" cx="52.31" cy="15.56" r="0.04"/>
		<circle class="st13" cx="49.46" cy="18.94" r="0.09"/>
		<circle class="st13" cx="48.79" cy="19.46" r="0.04"/>
	</g>
	<g id="UFO">
		<path class="st14" d="M490.03,36.68c0.22,0.45,0.13,0.95-0.13,1.38c-0.98,1.61-3.96,5.04-11.77,8.95
			c-7.8,3.9-12.37,4.22-14.25,4.06c-0.5-0.04-0.95-0.27-1.18-0.72l-0.51-1.01l27.33-13.66L490.03,36.68z"/>
		<path class="st11" d="M489.53,35.67c0,0-1.9,4.7-12.15,9.82c-9.53,4.76-15.18,3.84-15.18,3.84l7.03-7.34l10.21-5.1L489.53,35.67z"
			/>
		<path class="st15" d="M470.01,30.75L470.01,30.75c-2.81,1.41-3.99,4.85-2.59,7.66l2.28,4.57l10.19-5.09l-2.28-4.57
			C476.21,30.51,472.83,29.35,470.01,30.75z"/>
		<path class="st16" d="M475.24,41.2c-3.19,1.6-6.72,2.37-7.03,1.75l-1.01-2.02c-0.31-0.62-0.06-1.38,0.56-1.69
			c0,0,2.32-0.28,5.55-1.9c3.23-1.62,4.85-3.3,4.85-3.3c0.62-0.31,1.38-0.06,1.69,0.56l1.01,2.02
			C481.16,37.25,478.43,39.61,475.24,41.2z"/>
		<g id="LUCES">
			<path class="st17" d="M475.41,44.28c-0.28-0.57-0.05-1.26,0.51-1.54s1.26-0.05,1.54,0.51c-0.04,0.17-0.27,0.57-0.83,0.85
				S475.67,44.35,475.41,44.28z"/>
			<path class="st17" d="M468.61,46.11c-0.14-0.5,0.16-1.01,0.65-1.15c0.5-0.14,1.01,0.16,1.15,0.65c-0.06,0.13-0.3,0.41-0.8,0.55
				C469.11,46.3,468.81,46.21,468.61,46.11z"/>
			<path class="st17" d="M482.97,38.79c-0.32-0.41-0.9-0.48-1.31-0.17c-0.41,0.32-0.48,0.9-0.17,1.31c0.14,0.03,0.51,0.01,0.92-0.31
				C482.82,39.31,482.93,39.01,482.97,38.79z"/>
			<path class="st17" d="M465.51,45.86c-0.01,0.17-0.23,0.46-0.37,0.63c-0.12,0.14-0.43,0.41-0.72,0.51
				c-0.06-0.05-0.4-0.59-0.05-1.04C464.72,45.51,465.28,45.66,465.51,45.86z"/>
			<path class="st17" d="M484.77,36.23c0.15,0.1,0.51,0.09,0.73,0.08c0.18-0.01,0.59-0.1,0.84-0.27c0-0.08-0.23-0.68-0.8-0.67
				C484.97,35.39,484.75,35.93,484.77,36.23z"/>
		</g>
	</g>
	<g id="COMETA">
		<path id="ESTELA_GRANDE" class="st18" d="M20.11,81.58c-0.62-0.31,0.88-1.9,1.4-2.57c4.4-5.77,10.26-11.11,17.95-10.86
			c3.5,0.12,5.46,1.77,5.24,3.5c-0.22,1.72-1.94,3.3-4.14,2.85c-2.09-0.43-7.31-1.04-11.65,0.52c-1.17,0.42-3.11,1.14-6.59,4.71
			C21.79,80.26,20.63,81.85,20.11,81.58z"/>
		<path id="ESTELA_PEQ" class="st3" d="M26.19,75.5c1.97-1.84,3.77-2.76,6.53-4.08c2.84-1.36,4.41-1.77,6.17-1.97
			c1.75-0.19,3.71-0.05,4.18,1.34c0.35,1.05-0.65,2.4-1.97,2.5c-2.42,0.19-2.62-0.85-7.19-0.36C32.77,73.05,30.51,72.97,26.19,75.5z
			"/>
		<circle id="NCLEO" class="st17" cx="40.78" cy="71.32" r="1.36"/>
		<circle id="RASTRO_x5F_01" class="st18" cx="19.57" cy="82.32" r="0.43"/>
		<circle id="RASTRO_x5F_02" class="st18" cx="18.88" cy="83.49" r="0.28"/>
	</g>
</g>
</svg>
