<?xml version="1.0" encoding="utf-8"?>
<!-- Generator: Adobe Illustrator 24.0.1, SVG Export Plug-In . SVG Version: 6.00 Build 0)  -->
<svg version="1.1" xmlns="http://www.w3.org/2000/svg" xmlns:xlink="http://www.w3.org/1999/xlink" x="0px" y="0px"
	 viewBox="0 0 227.98 505.99" style="enable-background:new 0 0 227.98 505.99;" xml:space="preserve">
<style type="text/css">
	.st0{fill:#A3897A;}
	.st1{fill:none;stroke:#634E42;stroke-miterlimit:10;}
	.st2{fill:#937769;}
	.st3{fill:#7A6A58;}
	.st4{fill:#634E42;}
	.st5{fill:#D357A1;}
	.st6{fill:#422918;}
	.st7{fill:#BD1622;}
	.st8{fill:#820C1A;}
	.st9{fill:#FF8500;}
	.st10{fill:#FFCE00;}
	.st11{fill:#ECECEC;}
	.st12{fill:#3C3C3B;}
	.st13{fill:#E84E1B;}
	.st14{fill:#F5F5F5;}
</style>
<g id="ASTEROIDE_GAME_OVER">
</g>
<g id="ASTEROIDE_OK">
	<g id="FUEGO_NARANJA">
		<path id="NARANJA_GRANDE" class="st9" d="M6.73,382.5c-4.44-40.7,0.19-49.25,11.31-74.49c4.92-11.16,6.76-41.45,11.31-56.53
			c6.64-22.06,18.95-31.26,15.96-15.96c-5.29,27.02,3.74,26.89,4.32,17.96c1-15.3,10.19-60.62,15.3-80.14
			c2.33-8.9,4.6-13.47,5.88-16.07c4.01-8.13,6.76-3.22,4.87,2.32c-0.69,2.03,2.11,3.77,5.1-4.54c1.28-3.57,17.44-46.65,19.29-51.1
			c12.19-29.37,24.16-21.39,15.3,2.55c-2.26,6.09-8.34,24.46-5.69,35.09c0.88,3.54,5.8,2.75,8.69-1.94
			c2.2-3.58,6.13-15.66,9.53-30.37c3.96-17.14,6.84-37.35,7.87-42.68c5.32-27.49,23.06-24.83,21.28,3.1
			c-1.1,17.28-0.92,97.13,5.99,105.3c1.77,2.1,5.13,3.94,6.98-4.32c1-4.44,1.46-9.9,1-16.96c-1.11-17.07,8.65-22.83,13.52-2.88
			c6.49,26.57,8.46,57.26,10.67,94.61c0.62,10.46,5.19,8.13,5.13,3.07c-0.06-5.35,6.69-5.83,8.59,4.63
			c6.98,38.57-5.99,45.23,5.32,85.46c1.2,4.28,5.32,4.99,5.99-1.66c0.2-2.01,3.2-1.6,3.99,4.32c1.24,9.3-1.33,16.96,0.21,24.77
			c2.45,12.43,1.15,25.2-6.86,38.41c-24.61,40.57-27.52,54.37-45.23,73.16c-7.77,8.25-18.21,14.23-29.93,18.62
			c-11.72,4.39-25.12,6.19-37.24,5.99C62.24,501.48,61.7,475.87,37.99,453C17.27,433.02,9.12,404.43,6.73,382.5z"/>
		<path id="NARANJA_PEQ_x5F_01" class="st9" d="M44.87,222.16c0.41-1.41,2.58-4.94,3.76-4.6c1.18,0.34,0.91,4.42,0.5,5.83
			c-0.41,1.41-1.7,2.28-2.87,1.94C45.08,224.99,44.46,223.57,44.87,222.16z"/>
		<path id="NARANJA_PEQ_x5F_02" class="st9" d="M189.09,77.5c-4.86,0.95-10.05-6.32-11.36-14.47c-1.31-8.15-4.05-25.49-5.47-33.43
			c-3.22-17.95,9.31-11.28,15.62,5.23c3.01,7.87,5.91,17.66,6.59,26.01S192.24,76.88,189.09,77.5z"/>
		<path id="NARANJA_PEQ_x5F_03" class="st9" d="M76.73,149.61c-2.73,1.48-3.14-3.52-0.5-10.34c2.64-6.82,9.24-17.47,9.89-14.86
			c0.74,3-3.08,9.43-4.01,13.34C81.23,141.44,78.56,148.61,76.73,149.61z"/>
		
			<ellipse id="NARANJA_PEQ_x5F_04" transform="matrix(0.9767 -0.2145 0.2145 0.9767 2.2535 36.6606)" class="st9" cx="170.08" cy="7.94" rx="3.99" ry="4.99"/>
	</g>
	<g id="FUEGO_AMARILLO">
		<path id="AMARILLO_GRANDE" class="st10" d="M23.36,381.84c-3.99-36.58,5.81-12.71,9.31-37.24c2.66-18.62,9.77-40.29,17.01-45.16
			c14.92-10.04,14.77-0.55,24.23-2.39c11.97-2.33,15.86-12,20.95-27.27c6.98-20.95,20.62-22.28,19.62,5.99
			c-0.27,7.78-2.32,14.29,5.65,6.32c2.33-2.33,7.85-17.59,6.98-26.6c-1.66-17.29,16.63-19.62,22.95-2.66
			c5.43,14.58,7.43,37.88,13.63,45.23c3.84,4.55,7.98,2.43,9.31-2c3.99-13.3,11.64-22.28,17.96,4.66
			c7.67,32.69,28.6,60.52,11.97,100.43c-16.16,38.79-21.2,46.55-37.11,63.44c-6.98,7.41-17.54,9.76-28.07,13.71
			c-10.53,3.95-21.03,9.5-31.92,9.31c-38.57-0.67-37.22-28-58.53-48.55C28.68,421.08,25.51,401.54,23.36,381.84z"/>
		<path id="AMARILLO_PEQ_x5F_01" class="st10" d="M175.66,261.46c-0.67,9.31,1.66,12.45,4.99,13.63c4.66,1.66,6.65-2.99,3.99-9.98
			s-5.32-14.96-7.98-14.63S175.92,257.79,175.66,261.46z"/>
		<path id="AMARILLO_PEQ_x5F_02" class="st10" d="M71.43,269.74c5.84,2.3,14.87-6.01,13.41-15.56c-1.47-9.55-1.68-7.36-3.67-14.19
			c-1.99-6.83,3.68-15.03-1.61-19.11c-2.54-1.96-7.52,5.63-9.28,9.03c-3.06,5.93-7.65,15.02-9.24,23.83
			C59.49,262.28,65.56,267.43,71.43,269.74z"/>
		<path id="AMARILLO_PEQ_x5F_03" class="st10" d="M130.77,184.24c0.7,6.87-2,20.83,4.1,22.24c9.61,2.21,7.09-15.25,4.18-21.65
			C136.15,178.42,129.53,172.01,130.77,184.24z"/>
		<path id="AMARILLO_PEQ_x5F_04" class="st10" d="M79,211.88c0.57-1.94,3.77-6.03,5.71-5.46s1.07,5.38,0.5,7.32
			s-1.81,3.27-3.74,2.69S78.43,213.82,79,211.88z"/>
	</g>
	<g id="PIEDRA">
		<g id="BASE">
			<path class="st0" d="M70.8,443.47c4.88,19.95,28.67,29.43,49.22,22.17s43.11-4.66,43.06-20.29
				c-0.05-15.63,25.91-33.49,22.69-49.17c-3.23-15.68,16.67-30.57-7.93-62.28c-49.15-74.51-69.04-10.34-92.22-12.12
				c-49.4-3.79-47.39,61.52-44.62,77.86C43.75,415.98,65.92,423.52,70.8,443.47z"/>
		</g>
		<g id="BASE_SOMBRA">
			<g id="BASE_SOMBRA_x5F_03">
				<path class="st2" d="M70.8,443.47c4.88,19.95,28.67,29.43,49.22,22.17s43.11-4.66,43.06-20.29
					c-0.05-15.63,25.91-33.49,22.69-49.17c-3.23-15.68,16.67-30.57-7.93-62.28c5.16,22.88-0.64,41.83-2.79,59.47
					c-3.7,30.37-10.02,16.07-17.01,35.02c-2.85,7.73-12.3,1.01-23.39,5.1c-14.41,5.32-19.38-6.11-21.73-4.66
					c12.19,21.95,7.4,22.09,5.54,24.16C104.17,468.96,78.81,452.82,70.8,443.47z"/>
			</g>
			<path id="BASE_SOMBRA_x5F_02" class="st2" d="M144.74,304.85c0.82,1.06-2.99,8.48-6.65,9.14c-3.66,0.67-8.81,3.49-11.64,5.65
				c-2.83,2.16-7.65,2.99-7.81,7.32c4.66-4.66,9.48-5.32,11.97-4.49c2.49,0.83,8.15-0.33,10.97-2.66s7.48-7.98,7.65-9.81
				s-0.83-9.48-7.32-9.31C146.4,305.35,143.57,303.36,144.74,304.85z"/>
			<path id="BASE_SOMBRA_x5F_01" class="st2" d="M58.83,411.99c2.01,0.62,8.42,2.66,10.64-0.22c2.22-2.88,3.77-7.54,3.33-10.86
				s-0.89-7.98,0.89-10.64c0.44,3.33,0.44,9.09,1.33,12.19c0.89,3.1,3.77,11.31-2.66,13.3c-6.43,2-7.76,0.89-11.53-0.67
				c-3.77-1.55-7.32-5.1-7.54-7.09S55.95,411.1,58.83,411.99z"/>
			<path class="st2" d="M138.92,412.76c-0.5-1.07-0.33,4.16-2.66,5.65s-6.98-1-8.15-2.33c0.83,2.99,6.48,8.65,10.31,6.48
				C142.24,420.41,140.08,415.26,138.92,412.76z"/>
		</g>
		<g id="CRÁTERES">
			<g>
				<path class="st3" d="M58.27,392.64c-0.67,2.49-2.47,2.78-3.47,6.4c-1.12,4.07,0.91,8.79,4.63,10.77s8.77,1.04,11.53-2.16
					c0.39-0.46,0.76-0.99,0.81-1.59c0.05-0.58-0.18-1.14-0.39-1.68c-1.1-2.9-1.44-6.09-0.99-9.16c0.4-2.71,1.36-5.67-0.03-8.03
					c-1.31-2.21-4.17-2.9-6.73-3.02c-1.53-0.07-3.55-0.37-4.42,0.9C56.94,388.4,58.94,390.15,58.27,392.64z"/>
			</g>
			<g>
				<path class="st3" d="M74.73,419.93c-1.21,3.62-0.82,7.61,0.22,11.28c3.87,13.66,17.44,23.95,31.64,23.97
					c2.73,0,5.55-0.36,7.93-1.7c2.38-1.34,4.25-3.83,4.27-6.56c0.02-2.22-1.13-4.26-2.28-6.15c-2.57-4.22-5.33-8.31-8.28-12.27
					c-1.18-1.58-2.42-3.17-4.12-4.17c-1.55-0.91-3.36-1.25-4.99-2c-3.53-1.62-6.05-5.4-5.88-9.28c0.14-3.27,2.03-6.28,2.17-9.56
					c0.18-4.46-3.76-8.87-8.21-8.56s-5.2,1.02-5.26,9.76S76.72,413.95,74.73,419.93z"/>
			</g>
			<g>
				<path class="st3" d="M164.21,337.79c-0.13,1.07,0.46,2.12,1.28,2.81c0.82,0.69,1.84,1.09,2.84,1.48
					c1.08,0.42,2.38,0.81,3.32,0.13c0.69-0.5,0.91-1.43,1.01-2.28c0.22-1.83-0.01-3.94-1.48-5.06c-1.66-1.27-4.84-1.38-6,0.02
					C164.02,336.28,164.27,337.35,164.21,337.79z"/>
			</g>
			<g>
				<path class="st3" d="M171.96,356.7c2.01,0.98,4.34,2.43,4.27,4.67c-0.03,1.01-0.57,1.93-1.04,2.83
					c-1.65,3.2-2.43,6.99-1.43,10.45c0.23,0.79,0.58,1.6,1.26,2.06c0.81,0.57,1.94,0.51,2.84,0.1c0.9-0.41,1.64-1.11,2.34-1.81
					c1.35-1.34,2.73-2.79,3.24-4.62c0.72-2.6-0.46-5.31-0.58-8c-0.08-1.88,0.36-3.74,0.51-5.61c0.15-1.88-0.05-3.9-1.21-5.38
					c-1.14-1.44-2.99-2.11-4.78-2.53c-1.68-0.39-3.45-0.63-5.13-0.22s-3.26,1.57-3.77,3.22c-0.21,0.68-0.22,1.44,0.12,2.07
					C169.27,355.18,171.96,356.7,171.96,356.7z"/>
			</g>
			<g>
				<path class="st3" d="M153.3,444.11c-0.26,1.32-2.73,2.2-4.12,4.43c-0.4,0.65-0.77,1.5-0.32,2.12c0.21,0.29,0.55,0.45,0.88,0.55
					c2.71,0.83,5.39-1.2,7.51-3.1c0.57-0.51,1.17-1.06,1.42-1.79c0.45-1.31,0.59-2.78-0.61-3.48s-4.09-1.55-5.01-0.89
					C152.13,442.61,153.55,442.78,153.3,444.11z"/>
			</g>
			<path class="st3" d="M122.68,305.96c-2.92,3.15-9.81,6.79-12.65,8.49c-2.84,1.7-10.03,10-2.62,8.3c7.41-1.7,15-3.03,19.36-6.42
				c4.36-3.4,23.61-14.63,8.55-13.01C129.79,303.92,127.04,301.24,122.68,305.96z"/>
			<g>
				<path class="st4" d="M106.59,455.18c2.73,0,5.55-0.36,7.93-1.7c2.38-1.34,4.25-3.83,4.27-6.56c0.02-2.22-1.13-4.26-2.28-6.15
					c-2.57-4.22-5.33-8.31-8.28-12.27c-1.18-1.58-2.42-3.17-4.12-4.17c-1.55-0.91-3.36-1.25-4.99-2c-3.53-1.62-6.05-5.4-5.88-9.28
					c0.14-3.27,2.03-6.28,2.17-9.56c-3.87,10.6-4.74,5.41-4.2,16.92c0.22,4.63,12.37,4.75,13.63,9.64
					c1.21,4.68,7.41,8.29,9.31,11.81C116.57,446.34,116.8,453.17,106.59,455.18z"/>
			</g>
			<g>
				<path class="st4" d="M157.26,446.35c-0.26,1.32-7.32,7.54-8.08,2.18c-0.4,0.65-0.77,1.5-0.32,2.12
					c0.21,0.29,0.55,0.45,0.88,0.55c2.71,0.83,5.39-1.2,7.51-3.1c0.57-0.51,1.17-1.06,1.42-1.79c0.45-1.31,0.59-2.78-0.61-3.48
					s-4.09-1.55-5.01-0.89C158.92,443.69,157.52,445.03,157.26,446.35z"/>
			</g>
			<g>
				<path class="st4" d="M175.02,376.72c0.81,0.57,1.94,0.51,2.84,0.1c0.9-0.41,1.64-1.11,2.34-1.81c1.35-1.34,2.73-2.79,3.24-4.62
					c0.72-2.6-0.46-5.31-0.58-8c-0.08-1.88,0.36-3.74,0.51-5.61c0.15-1.88-0.05-3.9-1.21-5.38c-1.14-1.44-2.99-2.11-4.78-2.53
					c-1.68-0.39-3.45-0.63-5.13-0.22c4.2,1.02,8.78,2.26,9.95,4.59c1.17,2.33-1.08,5.74-1.44,8.98c-0.29,2.56,1.61,5.83,0.89,8.31
					C180.67,373.87,176.88,376.14,175.02,376.72z"/>
			</g>
			<g>
				<path class="st4" d="M171.78,338.61c-0.13,1.07,1.33,4.43-6.29,2c0.82,0.69,1.84,1.09,2.84,1.48c1.08,0.42,2.38,0.81,3.32,0.13
					c0.69-0.5,0.91-1.43,1.01-2.28c0.22-1.83-0.01-3.94-1.48-5.06c-1.66-1.27-4.84-1.38-6,0.02
					C172.23,332.84,171.84,338.17,171.78,338.61z"/>
			</g>
			<path class="st4" d="M136.31,307.02c-2.92,3.15-10.24,6.73-13.08,8.42c-2.84,1.7-1.66,3.44-15.81,7.31
				c7.41-1.7,15-3.03,19.36-6.42c4.36-3.4,23.61-14.63,8.55-13.01c-3.46,0.37-5.83-0.53-8.19-0.11
				C137.64,304.91,137.95,305.25,136.31,307.02z"/>
			<g>
				<path class="st4" d="M69.14,401.68c1.18,2.29,1.11,8.87-9.7,8.14c3.73,1.99,8.77,1.04,11.53-2.16c0.39-0.46,0.76-0.99,0.81-1.59
					c0.05-0.58-0.18-1.14-0.39-1.68c-1.1-2.9-1.44-6.09-0.99-9.16c0.4-2.71,1.36-5.67-0.03-8.03
					C69.91,394.03,67.36,398.24,69.14,401.68z"/>
			</g>
		</g>
	</g>
	<g id="CARA">
		<ellipse id="COLORETE_x5F_02" class="st5" cx="150.25" cy="387.25" rx="5.9" ry="4.24"/>
		<ellipse id="COLORETE_x5F_01_1_" class="st5" cx="79.67" cy="387.25" rx="5.9" ry="4.24"/>
		<g id="OJO_IZDA">
			<path id="CÓRNEA" class="st11" d="M80.08,361.99c1.89-13.89,12.6-24.93,22.27-20.18s17.09,25.05,12.53,34.81
				c-4.4,9.42-14.82,12.31-24.93,8.5C79.87,381.33,78.63,372.67,80.08,361.99z"/>
			<g id="PÁRPADO">
				<path class="st3" d="M113.37,353.68c0,0-29.74-11.64-33.28,8.31c-2-11.97,3.59-22.87,13.11-24.5
					C102.28,335.95,111.15,347.25,113.37,353.68z"/>
			</g>
			<path id="PESTAÑA_x5F_03_1_" class="st12" d="M66.36,338.98c-0.23,2.22,0.27,4.25,0.82,6.39c0.54,2.11,1.44,4.16,2.67,5.95
				c1.26,1.85,2.81,3.46,4.6,4.81c1.86,1.39,4.11,2.85,6.46,2.78c0.55-0.02,1.73-1.2,2.4-2.12c0.76-1.05-0.59-2.22-1.75-2.68
				c-1.67-0.67-3.49-0.87-5.16-1.6c-1.7-0.75-3.3-1.72-4.68-2.98c-1.44-1.31-2.65-2.86-3.59-4.57c-0.99-1.81-1.34-3.99-1.69-6
				C66.43,338.92,66.36,338.94,66.36,338.98L66.36,338.98z"/>
			<path id="PESTAÑA_x5F_02_1_" class="st12" d="M75.31,332.22c-1.1,2.44-1.36,5.37-1.34,8.03c0.02,2.56,0.69,5.01,1.62,7.37
				c0.86,2.18,2.17,4.26,3.78,5.98c1.48,1.59,1.68,2.81,3.89,2.11c0.98-0.31,3.31-2.85,2.82-3.62c-0.39-0.61-1.18-0.83-1.79-1.21
				c-0.3-0.19-0.59-0.37-0.88-0.57c-0.06-0.04-0.5-0.36-0.2-0.14c0.29,0.22-0.24-0.2-0.3-0.25c-1.48-1.23-2.74-2.61-3.97-4.09
				c-1.34-1.61-2.33-3.59-3.04-5.54c-0.44-1.21-0.8-2.46-0.8-3.76c0.01-1.41,0.21-2.84,0.44-4.22
				C75.54,332.19,75.37,332.09,75.31,332.22L75.31,332.22z"/>
			<path id="PESTAÑA_x5F_01_1_" class="st12" d="M64.2,347.2c0.74,1.75,1.43,3.45,2.48,5.05c1.01,1.53,2.17,2.98,3.5,4.25
				c1.29,1.22,2.76,2.3,4.35,3.09c0.85,0.43,1.75,0.8,2.67,1.07c0.88,0.27,2.02,0.84,2.88,0.5c0.38-0.15,1.09-0.9,1.42-1.65
				c0.37-0.87-0.23-1.26-1-1.41c-0.83-0.16-1.68-0.11-2.52-0.25c-0.78-0.14-1.56-0.34-2.31-0.61c-1.57-0.55-3.06-1.4-4.38-2.41
				c-1.34-1.02-2.53-2.23-3.61-3.52c-1.14-1.36-2.29-2.75-3.27-4.23C64.32,346.96,64.15,347.07,64.2,347.2L64.2,347.2z"/>
			<circle id="PUPILA" class="st13" cx="99.95" cy="373.86" r="10.97"/>
			<circle id="BRILLO" class="st14" cx="93.63" cy="370.53" r="2.33"/>
		</g>
		<g id="OJO_IZDA_1_">
			<path id="CÓRNEA_1_" class="st11" d="M149.31,361.99c-1.89-13.89-12.6-24.93-22.27-20.18s-17.09,25.05-12.53,34.81
				c4.4,9.42,14.82,12.31,24.93,8.5C149.52,381.33,150.76,372.67,149.31,361.99z"/>
			<g id="PÁRPADO_1_">
				<path class="st3" d="M116.03,353.68c0,0,29.74-11.64,33.28,8.31c2-11.97-3.59-22.87-13.11-24.5
					C127.11,335.95,118.24,347.25,116.03,353.68z"/>
			</g>
			<path id="PESTAÑA_x5F_03_2_" class="st12" d="M163.03,338.98c0.23,2.22-0.27,4.25-0.82,6.39c-0.54,2.11-1.44,4.16-2.67,5.95
				c-1.26,1.85-2.81,3.46-4.6,4.81c-1.86,1.39-4.11,2.85-6.46,2.78c-0.55-0.02-1.73-1.2-2.4-2.12c-0.76-1.05,0.59-2.22,1.75-2.68
				c1.67-0.67,3.49-0.87,5.16-1.6c1.7-0.75,3.3-1.72,4.68-2.98c1.44-1.31,2.65-2.86,3.59-4.57c0.99-1.81,1.34-3.99,1.69-6
				C162.96,338.92,163.03,338.94,163.03,338.98L163.03,338.98z"/>
			<path id="PESTAÑA_x5F_02_2_" class="st12" d="M154.08,332.22c1.1,2.44,1.36,5.37,1.34,8.03c-0.02,2.56-0.69,5.01-1.62,7.37
				c-0.86,2.18-2.17,4.26-3.78,5.98c-1.48,1.59-1.68,2.81-3.89,2.11c-0.98-0.31-3.31-2.85-2.82-3.62c0.39-0.61,1.18-0.83,1.79-1.21
				c0.3-0.19,0.59-0.37,0.88-0.57c0.06-0.04,0.5-0.36,0.2-0.14c-0.29,0.22,0.24-0.2,0.3-0.25c1.48-1.23,2.74-2.61,3.97-4.09
				c1.34-1.61,2.33-3.59,3.04-5.54c0.44-1.21,0.8-2.46,0.8-3.76c-0.01-1.41-0.21-2.84-0.44-4.22
				C153.85,332.19,154.03,332.09,154.08,332.22L154.08,332.22z"/>
			<path id="PESTAÑA_x5F_01_2_" class="st12" d="M165.19,347.2c-0.74,1.75-1.43,3.45-2.48,5.05c-1.01,1.53-2.17,2.98-3.5,4.25
				c-1.29,1.22-2.76,2.3-4.35,3.09c-0.85,0.43-1.75,0.8-2.67,1.07c-0.88,0.27-2.02,0.84-2.88,0.5c-0.38-0.15-1.09-0.9-1.42-1.65
				c-0.37-0.87,0.23-1.26,1-1.41c0.83-0.16,1.68-0.11,2.52-0.25c0.78-0.14,1.56-0.34,2.31-0.61c1.57-0.55,3.06-1.4,4.38-2.41
				c1.34-1.02,2.53-2.23,3.61-3.52c1.14-1.36,2.29-2.75,3.27-4.23C165.07,346.96,165.25,347.07,165.19,347.2L165.19,347.2z"/>
			<circle id="PUPILA_1_" class="st13" cx="129.44" cy="373.86" r="10.97"/>
			<circle id="BRILLO_1_" class="st14" cx="123.45" cy="370.53" r="2.33"/>
		</g>
		
			<ellipse id="BOCA" transform="matrix(0.866 -0.5 0.5 0.866 -187.7207 120.6861)" class="st6" cx="131.34" cy="410.63" rx="4.75" ry="7.16"/>
	</g>
</g>
</svg>
