<?xml version="1.0" encoding="utf-8"?>
<!-- Generator: Adobe Illustrator 24.0.1, SVG Export Plug-In . SVG Version: 6.00 Build 0)  -->
<svg version="1.1" xmlns="http://www.w3.org/2000/svg" xmlns:xlink="http://www.w3.org/1999/xlink" x="0px" y="0px"
	 viewBox="0 0 227.98 505.99" style="enable-background:new 0 0 227.98 505.99;" xml:space="preserve">
<style type="text/css">
	.st0{fill:#A3897A;}
	.st1{fill:none;stroke:#634E42;stroke-miterlimit:10;}
	.st2{fill:#937769;}
	.st3{fill:#7A6A58;}
	.st4{fill:#634E42;}
	.st5{fill:#D357A1;}
	.st6{fill:#422918;}
	.st7{fill:#BD1622;}
	.st8{fill:#820C1A;}
	.st9{fill:#FF8500;}
	.st10{fill:#FFCE00;}
	.st11{fill:#ECECEC;}
	.st12{fill:#3C3C3B;}
	.st13{fill:#E84E1B;}
	.st14{fill:#F5F5F5;}
</style>
<g id="ASTEROIDE_GAME_OVER">
	<g id="PIEDRA_2_">
		<g id="BASE_3_">
			<path class="st0" d="M70.8,443.47c4.88,19.95,28.67,29.43,49.22,22.17s43.11-4.66,43.06-20.29
				c-0.05-15.63,25.91-33.49,22.69-49.17c-3.23-15.68,16.67-30.57-7.93-62.28c-3.85-5.84-7.53-10.83-11.04-15.07
				c-0.42-0.5-5.97,2.24-5.97,2.24l-5.78-1.42l-5.99,10.48l2.99-7.32l0.42-4.81l7.39-0.34c0,0,1.25-5.18,0.85-5.59
				c-37.05-37.66-54.82,11.27-75.1,9.72c-49.4-3.79-47.39,61.52-44.62,77.86C43.75,415.98,65.92,423.52,70.8,443.47z"/>
		</g>
		<polyline class="st1" points="60.27,328.46 66.14,336.39 63.04,349.91 66.59,361.88 75.68,362.33 		"/>
		<polyline class="st1" points="80.11,341.49 76.12,333.73 66.14,336.39 		"/>
		<g id="BASE_SOMBRA_2_">
			<g id="BASE_SOMBRA_x5F_03_4_">
				<path class="st2" d="M70.8,443.47c4.88,19.95,28.67,29.43,49.22,22.17s43.11-4.66,43.06-20.29
					c-0.05-15.63,25.91-33.49,22.69-49.17c-3.23-15.68,16.67-30.57-7.93-62.28c5.16,22.88-0.64,41.83-2.79,59.47
					c-3.7,30.37-10.02,16.07-17.01,35.02c-2.85,7.73-12.3,1.01-23.39,5.1c-14.41,5.32-19.38-6.11-21.73-4.66
					c12.19,21.95,7.4,22.09,5.54,24.16C104.17,468.96,78.81,452.82,70.8,443.47z"/>
			</g>
			<path id="BASE_SOMBRA_x5F_02_2_" class="st2" d="M144.74,304.85c0.82,1.06-2.99,8.48-6.65,9.14c-3.66,0.67-8.81,3.49-11.64,5.65
				c-2.83,2.16-7.65,2.99-7.81,7.32c4.66-4.66,9.48-5.32,11.97-4.49c2.49,0.83,8.15-0.33,10.97-2.66s7.48-7.98,7.65-9.81
				s-0.83-9.48-7.32-9.31C146.4,305.35,143.57,303.36,144.74,304.85z"/>
			<path id="BASE_SOMBRA_x5F_01_2_" class="st2" d="M58.83,411.99c2.01,0.62,8.42,2.66,10.64-0.22c2.22-2.88,3.77-7.54,3.33-10.86
				s-0.89-7.98,0.89-10.64c0.44,3.33,0.44,9.09,1.33,12.19c0.89,3.1,3.77,11.31-2.66,13.3c-6.43,2-7.76,0.89-11.53-0.67
				c-3.77-1.55-7.32-5.1-7.54-7.09S55.95,411.1,58.83,411.99z"/>
			<path class="st2" d="M138.92,412.76c-0.5-1.07-0.33,4.16-2.66,5.65s-6.98-1-8.15-2.33c0.83,2.99,6.48,8.65,10.31,6.48
				C142.24,420.41,140.08,415.26,138.92,412.76z"/>
		</g>
		<g id="CRÃTERES_2_">
			<g>
				<path class="st3" d="M58.27,392.64c-0.67,2.49-2.47,2.78-3.47,6.4c-1.12,4.07,0.91,8.79,4.63,10.77s8.77,1.04,11.53-2.16
					c0.39-0.46,0.76-0.99,0.81-1.59c0.05-0.58-0.18-1.14-0.39-1.68c-1.1-2.9-1.44-6.09-0.99-9.16c0.4-2.71,1.36-5.67-0.03-8.03
					c-1.31-2.21-4.17-2.9-6.73-3.02c-1.53-0.07-3.55-0.37-4.42,0.9C56.94,388.4,58.94,390.15,58.27,392.64z"/>
			</g>
			<g>
				<path class="st3" d="M74.73,419.93c-1.21,3.62-0.82,7.61,0.22,11.28c3.87,13.66,17.44,23.95,31.64,23.97
					c2.73,0,5.55-0.36,7.93-1.7c2.38-1.34,4.25-3.83,4.27-6.56c0.02-2.22-1.13-4.26-2.28-6.15c-2.57-4.22-5.33-8.31-8.28-12.27
					c-1.18-1.58-2.42-3.17-4.12-4.17c-1.55-0.91-3.36-1.25-4.99-2c-3.53-1.62-6.05-5.4-5.88-9.28c0.14-3.27,2.03-6.28,2.17-9.56
					c0.18-4.46-3.76-8.87-8.21-8.56s-5.2,1.02-5.26,9.76S76.72,413.95,74.73,419.93z"/>
			</g>
			<g>
				<path class="st3" d="M164.21,337.79c-0.13,1.07,0.46,2.12,1.28,2.81c0.82,0.69,1.84,1.09,2.84,1.48
					c1.08,0.42,2.38,0.81,3.32,0.13c0.69-0.5,0.91-1.43,1.01-2.28c0.22-1.83-0.01-3.94-1.48-5.06c-1.66-1.27-4.84-1.38-6,0.02
					C164.02,336.28,164.27,337.35,164.21,337.79z"/>
			</g>
			<g>
				<path class="st3" d="M171.96,356.7c2.01,0.98,4.34,2.43,4.27,4.67c-0.03,1.01-0.57,1.93-1.04,2.83
					c-1.65,3.2-2.43,6.99-1.43,10.45c0.23,0.79,0.58,1.6,1.26,2.06c0.81,0.57,1.94,0.51,2.84,0.1c0.9-0.41,1.64-1.11,2.34-1.81
					c1.35-1.34,2.73-2.79,3.24-4.62c0.72-2.6-0.46-5.31-0.58-8c-0.08-1.88,0.36-3.74,0.51-5.61c0.15-1.88-0.05-3.9-1.21-5.38
					c-1.14-1.44-2.99-2.11-4.78-2.53c-1.68-0.39-3.45-0.63-5.13-0.22s-3.26,1.57-3.77,3.22c-0.21,0.68-0.22,1.44,0.12,2.07
					C169.27,355.18,171.96,356.7,171.96,356.7z"/>
			</g>
			<g>
				<path class="st3" d="M153.3,444.11c-0.26,1.32-2.73,2.2-4.12,4.43c-0.4,0.65-0.77,1.5-0.32,2.12c0.21,0.29,0.55,0.45,0.88,0.55
					c2.71,0.83,5.39-1.2,7.51-3.1c0.57-0.51,1.17-1.06,1.42-1.79c0.45-1.31,0.59-2.78-0.61-3.48s-4.09-1.55-5.01-0.89
					C152.13,442.61,153.55,442.78,153.3,444.11z"/>
			</g>
			<path class="st3" d="M122.68,305.96c-2.92,3.15-9.81,6.79-12.65,8.49c-2.84,1.7-10.03,10-2.62,8.3c7.41-1.7,15-3.03,19.36-6.42
				c4.36-3.4,23.61-14.63,8.55-13.01C129.79,303.92,127.04,301.24,122.68,305.96z"/>
			<g>
				<path class="st4" d="M106.59,455.18c2.73,0,5.55-0.36,7.93-1.7c2.38-1.34,4.25-3.83,4.27-6.56c0.02-2.22-1.13-4.26-2.28-6.15
					c-2.57-4.22-5.33-8.31-8.28-12.27c-1.18-1.58-2.42-3.17-4.12-4.17c-1.55-0.91-3.36-1.25-4.99-2c-3.53-1.62-6.05-5.4-5.88-9.28
					c0.14-3.27,2.03-6.28,2.17-9.56c-3.87,10.6-4.74,5.41-4.2,16.92c0.22,4.63,12.37,4.75,13.63,9.64
					c1.21,4.68,7.41,8.29,9.31,11.81C116.57,446.34,116.8,453.17,106.59,455.18z"/>
			</g>
			<g>
				<path class="st4" d="M157.26,446.35c-0.26,1.32-7.32,7.54-8.08,2.18c-0.4,0.65-0.77,1.5-0.32,2.12
					c0.21,0.29,0.55,0.45,0.88,0.55c2.71,0.83,5.39-1.2,7.51-3.1c0.57-0.51,1.17-1.06,1.42-1.79c0.45-1.31,0.59-2.78-0.61-3.48
					s-4.09-1.55-5.01-0.89C158.92,443.69,157.52,445.03,157.26,446.35z"/>
			</g>
			<g>
				<path class="st4" d="M175.02,376.72c0.81,0.57,1.94,0.51,2.84,0.1c0.9-0.41,1.64-1.11,2.34-1.81c1.35-1.34,2.73-2.79,3.24-4.62
					c0.72-2.6-0.46-5.31-0.58-8c-0.08-1.88,0.36-3.74,0.51-5.61c0.15-1.88-0.05-3.9-1.21-5.38c-1.14-1.44-2.99-2.11-4.78-2.53
					c-1.68-0.39-3.45-0.63-5.13-0.22c4.2,1.02,8.78,2.26,9.95,4.59c1.17,2.33-1.08,5.74-1.44,8.98c-0.29,2.56,1.61,5.83,0.89,8.31
					C180.67,373.87,176.88,376.14,175.02,376.72z"/>
			</g>
			<g>
				<path class="st4" d="M171.78,338.61c-0.13,1.07,1.33,4.43-6.29,2c0.82,0.69,1.84,1.09,2.84,1.48c1.08,0.42,2.38,0.81,3.32,0.13
					c0.69-0.5,0.91-1.43,1.01-2.28c0.22-1.83-0.01-3.94-1.48-5.06c-1.66-1.27-4.84-1.38-6,0.02
					C172.23,332.84,171.84,338.17,171.78,338.61z"/>
			</g>
			<path class="st4" d="M136.31,307.02c-2.92,3.15-10.24,6.73-13.08,8.42c-2.84,1.7-1.66,3.44-15.81,7.31
				c7.41-1.7,15-3.03,19.36-6.42c4.36-3.4,23.61-14.63,8.55-13.01c-3.46,0.37-5.83-0.53-8.19-0.11
				C137.64,304.91,137.95,305.25,136.31,307.02z"/>
			<g>
				<path class="st4" d="M69.14,401.68c1.18,2.29,1.11,8.87-9.7,8.14c3.73,1.99,8.77,1.04,11.53-2.16c0.39-0.46,0.76-0.99,0.81-1.59
					c0.05-0.58-0.18-1.14-0.39-1.68c-1.1-2.9-1.44-6.09-0.99-9.16c0.4-2.71,1.36-5.67-0.03-8.03
					C69.91,394.03,67.36,398.24,69.14,401.68z"/>
			</g>
		</g>
	</g>
	<g id="CARA_2_">
		<ellipse id="COLORETE_x5F_02_2_" class="st5" cx="150.25" cy="387.25" rx="5.9" ry="4.24"/>
		<ellipse id="COLORETE_x5F_01_3_" class="st5" cx="79.67" cy="387.25" rx="5.9" ry="4.24"/>
		<path id="BOCA_2_" class="st6" d="M139.89,403.67c0.84,0.58,0.22,1.92-0.77,1.64c-2.22-0.63-4.64-0.94-7.52,0.8
			c-1.5,0.91-2.66,2.36-3.48,4.07c-0.43,0.9-1.77,0.63-1.77-0.37c0-2.5,1.48-5,3.91-6.86C133.03,400.85,137.1,401.73,139.89,403.67z
			"/>
		<g id="OJOS_1_">
			<path id="OJO_x5F_02_1_" class="st3" d="M155.8,351.72l-2.53-2.53c-0.99-0.99-2.6-0.99-3.59,0l-9.52,9.52
				c-0.99,0.99-2.6,0.99-3.59,0l-9.52-9.52c-0.99-0.99-2.6-0.99-3.59,0l-2.53,2.53c-0.99,0.99-0.99,2.6,0,3.59l9.52,9.52
				c0.99,0.99,0.99,2.6,0,3.59l-9.52,9.52c-0.99,0.99-0.99,2.6,0,3.59l2.53,2.54c0.99,0.99,2.6,0.99,3.59,0l9.52-9.52
				c0.99-0.99,2.6-0.99,3.59,0l9.52,9.52c0.99,0.99,2.6,0.99,3.59,0l2.53-2.54c0.99-0.99,0.99-2.6,0-3.59l-9.52-9.52
				c-0.99-0.99-0.99-2.6,0-3.59l9.52-9.52C156.79,354.32,156.79,352.71,155.8,351.72z"/>
			<path class="st3" d="M104.84,349.18l-9.52,9.52c-0.99,0.99-2.6,0.99-3.59,0l-9.52-9.52c-0.99-0.99-2.6-0.99-3.59,0l-2.53,2.53
				c-0.99,0.99-0.99,2.6,0,3.59l9.52,9.52c0.99,0.99,0.99,2.6,0,3.59l-9.52,9.52c-0.99,0.99-0.99,2.6,0,3.59l2.53,2.53
				c0.99,0.99,2.6,0.99,3.59,0l9.52-9.52c0.99-0.99,2.6-0.99,3.59,0l9.52,9.52c0.99,0.99,2.6,0.99,3.59,0l2.53-2.53
				c0.99-0.99,0.99-2.6,0-3.59l-9.52-9.52c-0.99-0.99-0.99-2.6,0-3.59l9.52-9.52c0.99-0.99,0.99-2.6,0-3.59l-2.53-2.53
				C107.44,348.19,105.83,348.19,104.84,349.18z"/>
		</g>
		<g id="LENGUA_2_">
			<path id="LENGUA_3_" class="st7" d="M134.68,403.12c1.08-1.08,3.49-3.66,8.15,2.66c0.51,0.7,1.81,2.56,2.16,4.41
				c0.8,4.21-3.33,6.57-6.99,1.99c-1.38-1.73-2.57-3.93-4.07-5.06c-2.53-1.92-3.99,0.33-3.99,0.33S130.02,403.37,134.68,403.12z"/>
			<path id="LENGUA_SOMRA_x5F_01_1_" class="st8" d="M141.96,412.6c1.11-0.03,2.97-1.25,3.02-2.41c0.8,4.21-3.33,6.57-6.99,1.99
				c-1.38-1.73-2.57-3.93-4.07-5.06c-2.53-1.92-3.99,0.33-3.99,0.33s0.19-0.74,1.05-1.47c0.86-0.73,2.58-0.25,4.07,1.44
				C135.7,408.13,138.17,412.69,141.96,412.6z"/>
			<path id="LENGUA_SOMRA_x5F_02_1_" class="st8" d="M134.68,403.12c0,0,2.44,0.03,3.46,2.13
				C137.34,404.37,136.12,403.45,134.68,403.12z"/>
		</g>
	</g>
</g>
<g id="ASTEROIDE_OK">
</g>
</svg>
