<?xml version="1.0" encoding="utf-8"?>
<!-- Generator: Adobe Illustrator 24.0.1, SVG Export Plug-In . SVG Version: 6.00 Build 0)  -->
<svg version="1.1" xmlns="http://www.w3.org/2000/svg" xmlns:xlink="http://www.w3.org/1999/xlink" x="0px" y="0px"
	 viewBox="0 0 699.38 989.36" style="enable-background:new 0 0 699.38 989.36;" xml:space="preserve">
<style type="text/css">
	.st0{fill:#C97BB0;}
	.st1{fill:#6B3389;}
	.st2{fill:#F7AD5A;}
	.st3{fill:#76C1A8;}
	.st4{fill:#58A588;}
	.st5{fill:#9866A7;}
	.st6{fill:#804D91;}
	.st7{fill:#61C3E1;}
	.st8{fill:#51AAD3;}
	.st9{fill:#009EE2;}
	.st10{fill:#ECECEC;}
	.st11{fill:#B1B1B1;}
	.st12{fill:#3182AF;}
	.st13{fill:#FFFFFF;}
	.st14{fill:#81358A;}
	.st15{fill:#E5007E;}
	.st16{fill:#C50967;}
	.st17{fill:#E20613;}
	.st18{fill:#D9D9D9;}
	.st19{fill:none;stroke:#FFFFFF;stroke-width:5.6693;stroke-miterlimit:10;}
	.st20{fill:#BD1622;}
	.st21{opacity:0.15;fill:#35A8E0;}
	.st22{fill:none;stroke:#9C9B9B;stroke-width:5.6693;stroke-linecap:round;stroke-linejoin:round;}
	.st23{fill:none;stroke:#9C9B9B;stroke-width:5.6693;stroke-linecap:round;stroke-linejoin:round;stroke-dasharray:2.6453,5.2906;}
	.st24{fill:none;stroke:#9C9B9B;stroke-width:5.6693;stroke-linecap:round;stroke-linejoin:round;stroke-dasharray:2.4742,4.9485;}
	.st25{fill:none;stroke:#9C9B9B;stroke-width:5.6693;stroke-linecap:round;stroke-linejoin:round;stroke-dasharray:3.1977,6.3954;}
	.st26{fill:none;stroke:#9C9B9B;stroke-width:5.6693;stroke-linecap:round;stroke-linejoin:round;stroke-dasharray:2.5399,5.0799;}
	.st27{fill:none;stroke:#9C9B9B;stroke-width:5.6693;stroke-linecap:round;stroke-linejoin:round;stroke-dasharray:2.7396,5.4792;}
	.st28{fill:none;stroke:#9C9B9B;stroke-width:5.6693;stroke-linecap:round;stroke-linejoin:round;stroke-dasharray:2.8634,5.7268;}
	.st29{fill:none;stroke:#9C9B9B;stroke-width:5.6693;stroke-linecap:round;stroke-linejoin:round;stroke-dasharray:2.6671,5.3341;}
	.st30{fill:none;stroke:#9C9B9B;stroke-width:5.6693;stroke-linecap:round;stroke-linejoin:round;stroke-dasharray:2.8042,5.6084;}
	.st31{fill:none;stroke:#9C9B9B;stroke-width:5.6693;stroke-linecap:round;stroke-linejoin:round;stroke-dasharray:3.2355,6.471;}
	.st32{fill:none;stroke:#9C9B9B;stroke-width:5.6693;stroke-linecap:round;stroke-linejoin:round;stroke-dasharray:3.3452,6.6904;}
	.st33{fill:none;stroke:#9C9B9B;stroke-width:5.6693;stroke-linecap:round;stroke-linejoin:round;stroke-dasharray:2.7254,5.4507;}
	.st34{fill:#E61B72;}
</style>
<g id="BG_REF">
</g>
<g id="MARCIANITO">
	<g id="PATA_DCHA">
		<path id="PATA_1_" class="st0" d="M590.26,983.53L590.26,983.53c3.02,1.63,6.76-0.08,7.51-3.43l6.4-28.63
			c0.34-1.51-0.02-3.1-0.98-4.32l-26.55-33.92c-1.38-1.76-3.73-2.44-5.83-1.68l-39.05,14.08c-4.68,1.69-4.52,8.36,0.24,9.82
			l51.19,15.65c2.12,0.65,3.59,2.58,3.66,4.8l0.69,23.23C587.59,980.98,588.63,982.66,590.26,983.53z"/>
		<path id="PATA_SOMBRA_1_" class="st1" d="M588.19,927.99l-11.55-14.76c-1.38-1.76-3.73-2.44-5.83-1.68l-39.05,14.08
			c-4.68,1.69-4.52,8.36,0.24,9.82l15.62,4.78l5.03,1.54C552.64,941.76,573.66,924.92,588.19,927.99z"/>
		<path id="APOYO_1_" class="st2" d="M607.22,974.61c-0.01-9.13-6.96-6.14-14.45-6.09c-7.48,0.06-12.67-2.83-12.65,6.3
			c0.01,6.07,2.94,13.13,13.67,13.15C605.93,988,607.23,979.91,607.22,974.61z"/>
	</g>
	<g id="PATA_IZDA">
		<path id="PATA" class="st0" d="M110.51,983.53L110.51,983.53c-3.02,1.63-6.76-0.08-7.51-3.43l-6.4-28.63
			c-0.34-1.51,0.02-3.1,0.98-4.32l26.55-33.92c1.38-1.76,3.73-2.44,5.83-1.68l39.05,14.08c4.68,1.69,4.52,8.36-0.24,9.82
			l-51.19,15.65c-2.12,0.65-3.59,2.58-3.66,4.8l-0.69,23.23C113.18,980.98,112.14,982.66,110.51,983.53z"/>
		<path id="PATA_SOMBRA" class="st1" d="M112.58,927.99l11.55-14.76c1.38-1.76,3.73-2.44,5.83-1.68l39.05,14.08
			c4.68,1.69,4.52,8.36-0.24,9.82l-15.62,4.78l-5.03,1.54C148.13,941.76,127.11,924.92,112.58,927.99z"/>
		<path id="APOYO" class="st2" d="M93.55,974.61c0.01-9.13,6.96-6.14,14.45-6.09c7.48,0.06,12.67-2.83,12.65,6.3
			c-0.01,6.07-2.94,13.13-13.67,13.15C94.84,988,93.54,979.91,93.55,974.61z"/>
	</g>
	<g id="BASE_NAVE">
		<path id="BAJOPLATO" class="st3" d="M696.96,779.65c0,107.32-121.95,175.61-346.34,175.61c-229.27,0-346.34-80.49-346.34-175.61
			H696.96z"/>
		<path id="BAJOPLATO_1_" class="st4" d="M696.96,779.65c0,107.32-121.95,175.61-346.34,175.61c-111.28,0-196.12-18.96-253.98-49.35
			c54.89,20.46,133.9,23.68,166.3,23.44c121.04-0.89,164.87-10.84,213.56-22.24C623.87,872.6,684.1,802.33,696.96,779.65z"/>
		<path id="PLATO" class="st5" d="M696.96,767.46C708,838.45,575.01,924.37,350.62,924.37c-229.27,0-353.65-85.44-346.34-156.91
			c7.32-71.54,155.06-144.72,346.34-144.72S685.58,694.29,696.96,767.46z"/>
		<path id="PLATO_1_" class="st6" d="M696.96,767.46C708,838.45,575.01,924.37,350.62,924.37c98.65,0,260.61-40.28,314.14-115.62
			c21.81-30.69,26.94-61.85-17-109.04C675.96,720.57,693.3,743.93,696.96,767.46z"/>
		<ellipse id="INTERIOR" class="st1" cx="350.62" cy="707.29" rx="199.36" ry="74.88"/>
		<g id="ADORNO_PLATO">
			<path class="st0" d="M350.65,629.04c26.56-0.08,53.13,1.4,79.5,4.66c3.3,0.4,6.59,0.85,9.88,1.31c3.29,0.45,6.58,0.92,9.86,1.42
				c6.57,1.01,13.12,2.13,19.65,3.38c13.05,2.52,26.03,5.52,38.85,9.13c25.59,7.26,50.88,16.42,74.11,30.06
				c5.78,3.44,11.44,7.12,16.83,11.24c2.71,2.03,5.31,4.22,7.88,6.46c2.54,2.27,4.99,4.66,7.35,7.16
				c4.65,5.05,8.92,10.61,12.14,16.91c3.22,6.28,5.51,13.24,5.73,20.69c0.23,7.38-1.61,14.67-4.62,21.16
				c-3.04,6.5-7.09,12.36-11.68,17.6c-9.19,10.53-20.22,18.92-31.75,26.19c-11.56,7.25-23.75,13.29-36.22,18.56
				c-12.48,5.24-25.24,9.72-38.19,13.46c-12.95,3.73-26.06,6.88-39.25,9.51c-13.19,2.62-26.47,4.79-39.81,6.36
				c-26.67,3.18-53.5,4.67-80.31,4.75c-26.79-0.11-53.61-1.51-80.29-4.61c-6.67-0.79-13.33-1.67-19.96-2.75
				c-6.64-1.06-13.26-2.2-19.86-3.51c-13.2-2.58-26.32-5.7-39.28-9.43c-6.48-1.86-12.92-3.91-19.28-6.17
				c-6.37-2.25-12.68-4.68-18.91-7.33c-12.45-5.31-24.63-11.41-36.13-18.78c-11.46-7.37-22.4-15.92-31.43-26.58
				c-4.5-5.32-8.48-11.2-11.45-17.7c-2.97-6.47-4.84-13.64-4.86-20.96c-0.02-3.64,0.43-7.31,1.32-10.83
				c0.89-3.52,2.2-6.88,3.8-10.06c3.2-6.35,7.44-11.95,12.16-16.95c9.47-10,20.65-17.84,32.24-24.61
				c23.33-13.44,48.64-22.5,74.23-29.73c12.82-3.61,25.8-6.58,38.85-9.11c13.06-2.52,26.21-4.46,39.39-6.14
				C297.52,630.47,324.09,628.96,350.65,629.04z M350.65,629.89c-26.52,0.03-53.05,1.65-79.35,5.04
				c-26.29,3.4-52.39,8.55-77.84,15.97c-12.72,3.72-25.28,8-37.54,13.03c-12.25,5.03-24.21,10.8-35.56,17.62
				c-11.29,6.85-22.09,14.74-31,24.48c-4.44,4.86-8.35,10.24-11.2,16.15c-2.87,5.89-4.52,12.39-4.35,18.93
				c0.12,6.54,1.89,13,4.72,18.9c2.82,5.93,6.63,11.37,10.96,16.32c8.7,9.93,19.35,18.01,30.57,24.95
				c11.26,6.95,23.23,12.69,35.49,17.67c12.27,4.97,24.88,9.1,37.63,12.65c25.54,7.06,51.72,11.69,78.05,14.68
				c26.34,2.96,52.86,4.23,79.37,4.24c26.51,0,53.03-1.34,79.36-4.38c26.32-3.06,52.48-7.8,78.02-14.87
				c12.75-3.57,25.36-7.71,37.65-12.63c12.28-4.94,24.28-10.63,35.6-17.47c11.29-6.84,22.04-14.77,30.88-24.57
				c4.42-4.88,8.27-10.29,11.15-16.18c2.85-5.89,4.57-12.38,4.48-18.91c-0.08-6.53-2.04-12.96-4.93-18.82
				c-2.9-5.9-6.85-11.24-11.22-16.16c-2.22-2.44-4.55-4.78-6.97-7.02c-2.45-2.21-4.94-4.38-7.55-6.41
				c-5.18-4.11-10.67-7.82-16.29-11.29c-11.28-6.93-23.22-12.74-35.44-17.83c-12.23-5.08-24.78-9.4-37.49-13.14
				c-25.44-7.45-51.54-12.59-77.84-15.96C403.7,631.5,377.17,629.92,350.65,629.89z"/>
		</g>
		<g id="LUCES">
			<path class="st2" d="M331.02,626.34l0.85,0c0.19,0,0.34,0.3,0.34,0.68c0,0.38-0.15,0.68-0.34,0.68h0h0l-0.84-0.01
				c-0.19,0-0.34-0.3-0.34-0.68C330.68,626.64,330.83,626.34,331.02,626.34z"/>
			<path class="st2" d="M333.07,626.34l0.85,0c0.19,0,0.34,0.3,0.34,0.68c0,0.38-0.15,0.68-0.34,0.68h0h0l-0.84-0.01
				c-0.19,0-0.34-0.3-0.34-0.68C332.73,626.64,332.88,626.34,333.07,626.34z"/>
			<path class="st2" d="M340.63,626.03l0.85,0c0.19,0,0.34,0.3,0.34,0.68c0,0.38-0.15,0.68-0.34,0.68h0h0l-0.84-0.01
				c-0.19,0-0.34-0.3-0.34-0.68C340.29,626.33,340.44,626.03,340.63,626.03z"/>
			<path class="st2" d="M342.68,626.03l0.85,0c0.19,0,0.34,0.3,0.34,0.68c0,0.38-0.15,0.68-0.34,0.68h0h0l-0.84-0.01
				c-0.19,0-0.34-0.3-0.34-0.68C342.34,626.33,342.49,626.03,342.68,626.03z"/>
			<path class="st2" d="M656.84,802.88l-1.79,2.7c-2.18,3.29-6.63,4.19-9.92,2.01c-3.29-2.18-4.19-6.63-2.01-9.92
				c0.05-0.07,0.09-0.14,0.14-0.21l0.3-0.42l1.62-2.25c2.29-3.18,6.72-3.89,9.9-1.6c3.1,2.23,3.86,6.5,1.77,9.66L656.84,802.88z"/>
			<path class="st2" d="M639.59,822.98l-2.3,2.08c-3.19,2.89-8.12,2.64-11.01-0.56c-2.89-3.19-2.64-8.12,0.56-11.01
				c0.07-0.06,0.14-0.13,0.22-0.19l0.37-0.3l2.15-1.79c3.28-2.73,8.15-2.28,10.88,1c2.66,3.19,2.3,7.9-0.75,10.66L639.59,822.98z"/>
			<path class="st2" d="M592.35,854.44l-2.68,1.32c-4.44,2.19-9.81,0.37-12-4.07c-2.19-4.44-0.37-9.81,4.07-12
				c0.08-0.04,0.16-0.08,0.25-0.12l0.37-0.17l2.57-1.16c4.48-2.02,9.75-0.03,11.78,4.45c1.98,4.38,0.12,9.52-4.16,11.64
				L592.35,854.44z"/>
			<path class="st2" d="M565.15,866.52l-2.76,1.08c-4.87,1.9-10.35-0.5-12.25-5.37s0.5-10.35,5.37-12.25
				c0.09-0.03,0.17-0.07,0.26-0.1l0.38-0.13l2.66-0.94c4.9-1.73,10.27,0.85,12,5.74c1.69,4.79-0.74,10.04-5.43,11.88L565.15,866.52z
				"/>
			<path class="st2" d="M508.95,884.21l-2.85,0.7c-5.54,1.36-11.12-2.03-12.48-7.56c-1.36-5.54,2.03-11.12,7.56-12.48
				c0.08-0.02,0.16-0.04,0.24-0.05l0.35-0.08l2.76-0.6c5.55-1.2,11.01,2.33,12.21,7.88c1.18,5.45-2.2,10.82-7.58,12.14
				L508.95,884.21z"/>
			<path class="st2" d="M480.31,890.36l-2.87,0.54c-5.77,1.07-11.32-2.73-12.4-8.51c-1.07-5.77,2.73-11.32,8.51-12.4
				c0.06-0.01,0.11-0.02,0.17-0.03l0.29-0.05l2.79-0.46c5.78-0.95,11.23,2.96,12.18,8.74c0.94,5.7-2.86,11.08-8.51,12.14
				L480.31,890.36z"/>
			<path class="st2" d="M422.56,898.41l-2.9,0.27c-6.1,0.57-11.52-3.91-12.09-10.02c-0.57-6.1,3.91-11.52,10.02-12.09
				c0.03,0,0.06-0.01,0.09-0.01l0.22-0.02l2.82-0.23c6.1-0.49,11.44,4.06,11.93,10.16c0.48,6.05-3.98,11.35-10,11.92L422.56,898.41z
				"/>
			<path class="st2" d="M393.58,900.55l-2.9,0.14c-6.2,0.31-11.47-4.46-11.78-10.66c-0.31-6.2,4.46-11.47,10.66-11.78l0.06,0l0.07,0
				l2.82-0.13l0.01,0c6.19-0.27,11.44,4.52,11.71,10.72C404.51,895.01,399.74,900.24,393.58,900.55z"/>
			<path class="st2" d="M335.65,901.54l-2.89-0.06c-6.23-0.12-11.18-5.28-11.06-11.51c0.12-6.21,5.24-11.14,11.44-11.06l0.01,0
				l2.83,0.04l0.06,0c6.24,0.09,11.22,5.22,11.13,11.45c-0.09,6.24-5.22,11.22-11.45,11.13L335.65,901.54z"/>
			<path class="st2" d="M306.71,900.57l-2.9-0.15c-6.18-0.31-10.94-5.57-10.63-11.75c0.31-6.16,5.53-10.9,11.69-10.63l0.01,0
				l2.82,0.13l0.06,0c6.19,0.28,10.98,5.52,10.7,11.7s-5.52,10.98-11.7,10.7L306.71,900.57z"/>
			<path class="st2" d="M248.84,895.36l-2.89-0.39l-0.12-0.02c-5.92-0.8-10.08-6.26-9.27-12.18c0.79-5.86,6.14-9.98,11.99-9.3
				l2.81,0.33l0.21,0.02c5.95,0.7,10.21,6.09,9.52,12.04c-0.7,5.95-6.09,10.21-12.04,9.52
				C248.99,895.38,248.88,895.37,248.84,895.36z"/>
			<path class="st2" d="M220.01,890.81l-2.88-0.53l-0.14-0.02c-5.71-1.05-9.5-6.53-8.45-12.24c1.03-5.64,6.4-9.39,12.03-8.49
				l2.79,0.45l0.23,0.04c5.75,0.93,9.66,6.35,8.73,12.1c-0.93,5.75-6.35,9.66-12.1,8.73C220.17,890.84,220.06,890.82,220.01,890.81z
				"/>
			<path class="st2" d="M162.93,877.13l-2.82-0.87l-0.17-0.05c-5.15-1.59-8.05-7.06-6.46-12.21c1.56-5.06,6.88-7.94,11.95-6.53
				l2.72,0.76l0.29,0.08c5.22,1.45,8.27,6.86,6.82,12.08c-1.45,5.22-6.86,8.27-12.08,6.82
				C163.12,877.18,163.01,877.15,162.93,877.13z"/>
			<path class="st2" d="M134.98,867.4l-2.76-1.1l-0.19-0.08c-4.77-1.89-7.1-7.3-5.2-12.06c1.85-4.67,7.08-6.99,11.77-5.31l2.65,0.95
				l0.34,0.12c4.86,1.74,7.38,7.09,5.63,11.95c-1.74,4.86-7.1,7.38-11.95,5.63C135.18,867.48,135.06,867.43,134.98,867.4z"/>
			<path class="st2" d="M81.63,840.03l-2.52-1.72l-0.13-0.09c-3.74-2.56-4.7-7.67-2.14-11.41c2.5-3.65,7.44-4.65,11.15-2.31
				l2.38,1.5l0.34,0.21c3.86,2.44,5.02,7.54,2.59,11.41c-2.44,3.86-7.54,5.02-11.41,2.59C81.81,840.15,81.7,840.08,81.63,840.03z"/>
			<path class="st2" d="M57.63,820.77l-2.22-2.2l-0.08-0.08c-2.98-2.95-3.01-7.76-0.06-10.74c2.87-2.91,7.52-3,10.52-0.27l2.07,1.88
				l0.33,0.3c3.13,2.85,3.35,7.7,0.5,10.82c-2.85,3.13-7.7,3.35-10.82,0.5C57.78,820.92,57.69,820.83,57.63,820.77z"/>
			<path class="st2" d="M27.67,772.44l-0.74-3.31c-0.77-3.41,1.38-6.81,4.79-7.57c3.33-0.75,6.64,1.28,7.51,4.55l0.03,0.11l0.7,2.66
				l0.14,0.52c0.9,3.42-1.13,6.92-4.55,7.83s-6.92-1.13-7.83-4.55C27.71,772.6,27.69,772.51,27.67,772.44z"/>
			<path class="st2" d="M27.25,746.82l1.15-3.13c1.08-2.96,4.36-4.48,7.32-3.39c2.89,1.06,4.4,4.2,3.47,7.1l-0.03,0.09l-0.85,2.62
				l-0.15,0.48c-0.98,3.03-4.23,4.69-7.26,3.71c-3.03-0.98-4.69-4.23-3.71-7.26C27.19,746.96,27.22,746.88,27.25,746.82z"/>
			<path class="st2" d="M51.16,706.51l2.25-2.04l0.06-0.05c2.07-1.88,5.28-1.73,7.16,0.35c1.83,2.02,1.72,5.12-0.19,7.02l-1.99,1.96
				l-0.23,0.23c-2.02,1.99-5.27,1.97-7.26-0.05c-1.99-2.02-1.97-5.27,0.05-7.26C51.05,706.61,51.11,706.55,51.16,706.51z"/>
			<path class="st2" d="M65.89,695.19l2.5-1.54l0.1-0.06c2.08-1.29,4.82-0.64,6.1,1.45c1.25,2.03,0.66,4.67-1.28,6l-2.33,1.58
				l-0.2,0.14c-2.06,1.4-4.85,0.86-6.25-1.2s-0.86-4.85,1.2-6.25C65.78,695.26,65.84,695.22,65.89,695.19z"/>
			<path class="st2" d="M100.55,674.53l2.62-1.24l0.09-0.04c1.93-0.91,4.23-0.09,5.14,1.84c0.89,1.88,0.12,4.11-1.7,5.07l-2.5,1.31
				l-0.16,0.08c-1.92,1-4.28,0.26-5.29-1.66c-1-1.92-0.26-4.28,1.66-5.29C100.46,674.58,100.51,674.55,100.55,674.53z"/>
			<path class="st2" d="M113.77,668.51l2.69-1.02l0.08-0.03c1.71-0.65,3.63,0.21,4.28,1.92c0.64,1.68-0.18,3.55-1.82,4.24l-2.6,1.09
				l-0.12,0.05c-1.72,0.72-3.69-0.08-4.41-1.8c-0.72-1.72,0.08-3.69,1.8-4.41C113.69,668.54,113.74,668.52,113.77,668.51z"/>
			<path class="st2" d="M154.18,653.83l2.74-0.84l0.07-0.02c1.49-0.46,3.06,0.38,3.52,1.87c0.45,1.46-0.35,3-1.78,3.49l-2.67,0.92
				l-0.1,0.04c-1.5,0.52-3.13-0.28-3.65-1.78c-0.52-1.5,0.28-3.13,1.78-3.65C154.11,653.85,154.15,653.84,154.18,653.83z"/>
			<path class="st2" d="M165.26,650.25l2.77-0.7l0.05-0.01c1.29-0.32,2.59,0.46,2.92,1.74c0.32,1.26-0.43,2.55-1.68,2.9l-2.72,0.77
				l-0.07,0.02c-1.3,0.37-2.65-0.39-3.02-1.69c-0.37-1.3,0.39-2.65,1.69-3.02C165.21,650.26,165.24,650.25,165.26,650.25z"/>
			<path class="st2" d="M193.11,642.48l2.49-0.64l0.02-0.01c0.98-0.25,1.97,0.43,2.2,1.52c0.23,1.08-0.36,2.15-1.32,2.42l-2.46,0.7
				l-0.04,0.01c-0.99,0.28-2-0.39-2.26-1.49c-0.26-1.1,0.34-2.22,1.33-2.5C193.08,642.48,193.1,642.48,193.11,642.48z"/>
			<path class="st2" d="M200.11,640.81l2.38-0.54l0.02,0c0.8-0.18,1.57,0.43,1.74,1.36c0.16,0.92-0.33,1.81-1.11,2.01l-2.36,0.6
				l-0.03,0.01c-0.81,0.2-1.61-0.4-1.8-1.34s0.32-1.88,1.12-2.08C200.09,640.81,200.1,640.81,200.11,640.81z"/>
			<path class="st2" d="M221.85,636.68l2.33-0.44l0.01,0c0.67-0.13,1.3,0.43,1.4,1.24c0.1,0.81-0.36,1.56-1.02,1.7l-2.31,0.48
				l-0.02,0c-0.68,0.14-1.32-0.41-1.43-1.23c-0.11-0.82,0.35-1.6,1.03-1.74C221.84,636.68,221.85,636.68,221.85,636.68z"/>
			<path class="st2" d="M227.45,635.39l2.32-0.31l0.01,0c0.67-0.09,1.26,0.5,1.32,1.32c0.06,0.81-0.43,1.54-1.09,1.64l-2.3,0.34
				l-0.02,0c-0.68,0.1-1.29-0.49-1.36-1.31c-0.07-0.83,0.42-1.58,1.1-1.68C227.44,635.39,227.45,635.39,227.45,635.39z"/>
			<path class="st2" d="M247.91,632.81l1.78-0.2l0.01,0c0.45-0.05,0.84,0.37,0.89,0.93c0.04,0.56-0.28,1.05-0.72,1.11l-1.77,0.23
				l-0.01,0c-0.45,0.06-0.86-0.36-0.91-0.93c-0.05-0.57,0.28-1.08,0.73-1.14C247.9,632.81,247.91,632.81,247.91,632.81z"/>
			<path class="st2" d="M251.86,632.32l1.58-0.19l0,0c0.4-0.05,0.75,0.37,0.79,0.93c0.04,0.56-0.25,1.05-0.64,1.11l-1.57,0.22
				l-0.01,0c-0.4,0.06-0.77-0.36-0.81-0.93c-0.05-0.57,0.24-1.08,0.65-1.14C251.85,632.32,251.85,632.32,251.86,632.32z"/>
			<path class="st2" d="M264.24,630.89l1.69-0.2l0,0c0.43-0.05,0.81,0.32,0.86,0.83c0.05,0.5-0.25,0.95-0.67,1.01l-1.68,0.23
				l-0.01,0c-0.43,0.06-0.83-0.31-0.88-0.82c-0.06-0.51,0.25-0.98,0.68-1.04C264.23,630.89,264.24,630.89,264.24,630.89z"/>
			<path class="st2" d="M268,630.4l1.5-0.19l0,0c0.38-0.05,0.72,0.32,0.77,0.83c0.04,0.5-0.22,0.95-0.59,1l-1.5,0.22l-0.01,0
				c-0.38,0.06-0.74-0.31-0.79-0.83S267.6,630.46,268,630.4C267.99,630.4,268,630.4,268,630.4z"/>
			<path class="st2" d="M278.32,629.12l1.7-0.15l0,0c0.43-0.04,0.8,0.35,0.83,0.85c0.03,0.5-0.28,0.94-0.7,0.98l-1.69,0.17l-0.01,0
				c-0.43,0.04-0.82-0.34-0.85-0.85c-0.04-0.52,0.28-0.97,0.71-1.01C278.31,629.12,278.31,629.12,278.32,629.12z"/>
			<path class="st2" d="M282.09,628.75l1.51-0.15l0,0c0.38-0.04,0.71,0.35,0.74,0.85c0.03,0.5-0.25,0.94-0.63,0.98l-1.5,0.17
				l-0.01,0c-0.38,0.04-0.72-0.34-0.76-0.85C281.41,629.25,281.69,628.8,282.09,628.75C282.08,628.75,282.08,628.75,282.09,628.75z"
				/>
			<path class="st2" d="M293.86,627.65l1.7-0.09l0,0c0.43-0.02,0.79,0.37,0.8,0.88c0.02,0.5-0.31,0.93-0.74,0.96l-1.69,0.12l-0.01,0
				c-0.43,0.03-0.8-0.36-0.83-0.88c-0.02-0.52,0.31-0.96,0.75-0.99C293.85,627.65,293.86,627.65,293.86,627.65z"/>
			<path class="st2" d="M297.64,627.4l1.51-0.1l0,0c0.38-0.02,0.7,0.37,0.71,0.88c0.01,0.5-0.28,0.93-0.66,0.96l-1.51,0.13l-0.01,0
				c-0.39,0.03-0.71-0.36-0.73-0.88C296.95,627.88,297.25,627.43,297.64,627.4C297.63,627.4,297.64,627.4,297.64,627.4z"/>
			<path class="st2" d="M322.13,626.32l1.32-0.08c0.31-0.02,0.57,0.35,0.58,0.83c0.01,0.48-0.23,0.87-0.54,0.9l-1.32,0.09l0,0
				c-0.31,0.02-0.58-0.35-0.59-0.83C321.57,626.74,321.82,626.34,322.13,626.32L322.13,626.32z"/>
			<path class="st2" d="M319.57,626.43l1.32-0.08c0.31-0.02,0.57,0.35,0.58,0.83c0.01,0.48-0.23,0.87-0.54,0.9l-1.32,0.09l0,0
				c-0.31,0.02-0.58-0.35-0.59-0.83S319.26,626.45,319.57,626.43L319.57,626.43z"/>
			<path class="st2" d="M310.77,626.82l1.32-0.08c0.31-0.02,0.57,0.35,0.58,0.83c0.01,0.48-0.23,0.87-0.54,0.9l-1.32,0.09l0,0
				c-0.31,0.02-0.58-0.35-0.59-0.83S310.46,626.84,310.77,626.82L310.77,626.82z"/>
			<path class="st2" d="M308.21,626.93l1.32-0.08c0.31-0.02,0.57,0.35,0.58,0.83c0.01,0.48-0.23,0.87-0.54,0.9l-1.32,0.09l0,0
				c-0.31,0.02-0.58-0.35-0.59-0.83S307.9,626.95,308.21,626.93L308.21,626.93z"/>
			<path class="st2" d="M369.2,626.34l-0.85,0c-0.19,0-0.34,0.3-0.34,0.68c0,0.38,0.15,0.68,0.34,0.68h0h0l0.84-0.01
				c0.19,0,0.34-0.3,0.34-0.68C369.54,626.64,369.39,626.34,369.2,626.34z"/>
			<path class="st2" d="M367.15,626.34l-0.85,0c-0.19,0-0.34,0.3-0.34,0.68c0,0.38,0.15,0.68,0.34,0.68h0h0l0.84-0.01
				c0.19,0,0.34-0.3,0.34-0.68C367.49,626.64,367.34,626.34,367.15,626.34z"/>
			<path class="st2" d="M360.24,626.02l-0.85,0c-0.19,0-0.34,0.3-0.34,0.68s0.15,0.68,0.34,0.68h0l0,0l0.84-0.01
				c0.19,0,0.34-0.3,0.34-0.68C360.58,626.32,360.43,626.02,360.24,626.02z"/>
			<path class="st2" d="M358.19,626.02l-0.85,0c-0.19,0-0.34,0.3-0.34,0.68c0,0.38,0.15,0.68,0.34,0.68h0l0,0l0.84-0.01
				c0.19,0,0.34-0.3,0.34-0.68C358.53,626.32,358.38,626.02,358.19,626.02z"/>
			<path class="st2" d="M351.8,626.03l-0.85,0c-0.19,0-0.34,0.3-0.34,0.68c0,0.38,0.15,0.68,0.34,0.68h0h0l0.84-0.01
				c0.19,0,0.34-0.3,0.34-0.68C352.13,626.33,351.98,626.03,351.8,626.03z"/>
			<path class="st2" d="M349.74,626.03l-0.85,0c-0.19,0-0.34,0.3-0.34,0.68c0,0.38,0.15,0.68,0.34,0.68h0h0l0.84-0.01
				c0.19,0,0.34-0.3,0.34-0.68C350.08,626.33,349.93,626.03,349.74,626.03z"/>
			<path class="st2" d="M672.55,772.44l0.74-3.31c0.77-3.41-1.38-6.81-4.79-7.57c-3.33-0.75-6.64,1.28-7.51,4.55l-0.03,0.11
				l-0.7,2.66l-0.14,0.52c-0.9,3.42,1.13,6.92,4.55,7.83c3.42,0.9,6.92-1.13,7.83-4.55C672.51,772.6,672.53,772.51,672.55,772.44z"
				/>
			<path class="st2" d="M672.97,746.82l-1.15-3.13c-1.08-2.96-4.36-4.48-7.32-3.39c-2.89,1.06-4.4,4.2-3.47,7.1l0.03,0.09l0.85,2.62
				l0.15,0.48c0.98,3.03,4.23,4.69,7.26,3.71c3.03-0.98,4.69-4.23,3.71-7.26C673.03,746.96,673,746.88,672.97,746.82z"/>
			<path class="st2" d="M644.97,709.8l-2.19-2.11l-0.05-0.05c-2.02-1.94-5.22-1.88-7.17,0.13c-1.89,1.96-1.88,5.06-0.02,7.02
				l1.93,2.02l0.22,0.23c1.96,2.05,5.21,2.13,7.26,0.17c2.05-1.96,2.13-5.21,0.17-7.26C645.08,709.9,645.02,709.84,644.97,709.8z"/>
			<path class="st2" d="M630.58,698.04l-2.45-1.62l-0.1-0.06c-2.04-1.35-4.79-0.78-6.14,1.26c-1.31,1.99-0.81,4.65,1.1,6.03
				l2.28,1.65l0.2,0.14c2.01,1.46,4.83,1.01,6.28-1.01c1.46-2.01,1.01-4.83-1.01-6.28C630.69,698.11,630.63,698.07,630.58,698.04z"
				/>
			<path class="st2" d="M599.65,676.35l-2.62-1.24l-0.09-0.04c-1.93-0.91-4.23-0.09-5.14,1.84c-0.89,1.88-0.12,4.11,1.7,5.07
				l2.5,1.31l0.16,0.08c1.92,1,4.28,0.26,5.29-1.66c1-1.92,0.26-4.28-1.66-5.29C599.74,676.39,599.69,676.37,599.65,676.35z"/>
			<path class="st2" d="M586.43,670.32l-2.69-1.02l-0.08-0.03c-1.71-0.65-3.63,0.21-4.28,1.92c-0.64,1.68,0.18,3.55,1.82,4.24
				l2.6,1.09l0.12,0.05c1.72,0.72,3.69-0.08,4.41-1.8c0.72-1.72-0.08-3.69-1.8-4.41C586.51,670.35,586.46,670.33,586.43,670.32z"/>
			<path class="st2" d="M550.18,655.81l-2.74-0.84l-0.07-0.02c-1.49-0.46-3.06,0.38-3.52,1.87c-0.45,1.46,0.35,3,1.78,3.49
				l2.67,0.92l0.1,0.04c1.5,0.52,3.13-0.28,3.65-1.78c0.52-1.5-0.28-3.13-1.78-3.65C550.25,655.83,550.21,655.81,550.18,655.81z"/>
			<path class="st2" d="M539.1,652.23l-2.77-0.7l-0.05-0.01c-1.29-0.32-2.59,0.46-2.92,1.74c-0.32,1.26,0.43,2.55,1.68,2.9
				l2.72,0.77l0.07,0.02c1.3,0.37,2.65-0.39,3.02-1.69s-0.39-2.65-1.69-3.02C539.15,652.24,539.12,652.23,539.1,652.23z"/>
			<path class="st2" d="M507.33,643.81l-2.49-0.64l-0.02-0.01c-0.98-0.25-1.97,0.43-2.2,1.52c-0.23,1.08,0.36,2.15,1.32,2.42
				l2.46,0.7l0.04,0.01c0.99,0.28,2-0.39,2.26-1.49c0.26-1.1-0.34-2.22-1.33-2.5C507.36,643.81,507.34,643.81,507.33,643.81z"/>
			<path class="st2" d="M500.33,642.14l-2.38-0.54l-0.02,0c-0.8-0.18-1.57,0.43-1.74,1.36c-0.16,0.92,0.33,1.81,1.11,2.01l2.36,0.6
				l0.03,0.01c0.81,0.2,1.61-0.4,1.8-1.34c0.19-0.95-0.32-1.88-1.12-2.08C500.35,642.14,500.34,642.14,500.33,642.14z"/>
			<path class="st2" d="M478.04,637.55l-2.33-0.44l-0.01,0c-0.67-0.13-1.3,0.43-1.4,1.24c-0.1,0.81,0.36,1.56,1.02,1.7l2.31,0.48
				l0.02,0c0.68,0.14,1.32-0.41,1.43-1.23c0.11-0.82-0.35-1.6-1.03-1.74C478.05,637.56,478.04,637.55,478.04,637.55z"/>
			<path class="st2" d="M472.44,636.26l-2.32-0.31l-0.01,0c-0.67-0.09-1.26,0.5-1.32,1.32c-0.06,0.81,0.43,1.54,1.09,1.64l2.3,0.34
				l0.02,0c0.68,0.1,1.29-0.49,1.36-1.31c0.07-0.83-0.42-1.58-1.1-1.68C472.45,636.27,472.44,636.27,472.44,636.26z"/>
			<path class="st2" d="M453.54,633.54l-1.77-0.24l-0.01,0c-0.45-0.06-0.85,0.35-0.91,0.91c-0.05,0.56,0.26,1.06,0.7,1.13l1.76,0.27
				l0.01,0c0.45,0.07,0.87-0.34,0.93-0.91c0.06-0.57-0.25-1.09-0.71-1.16C453.55,633.54,453.55,633.54,453.54,633.54z"/>
			<path class="st2" d="M449.61,632.96l-1.58-0.23l0,0c-0.4-0.06-0.76,0.35-0.81,0.92c-0.05,0.56,0.22,1.06,0.61,1.12l1.57,0.26
				l0.01,0c0.4,0.07,0.77-0.34,0.83-0.91c0.06-0.57-0.22-1.09-0.62-1.15C449.62,632.96,449.61,632.96,449.61,632.96z"/>
			<path class="st2" d="M437.14,631.12l-1.69-0.2l0,0c-0.43-0.05-0.81,0.32-0.86,0.83c-0.05,0.5,0.25,0.95,0.67,1.01l1.68,0.23
				l0.01,0c0.43,0.06,0.83-0.31,0.88-0.82c0.06-0.51-0.25-0.98-0.68-1.04C437.15,631.12,437.14,631.12,437.14,631.12z"/>
			<path class="st2" d="M433.38,630.63l-1.5-0.19l0,0c-0.38-0.05-0.72,0.32-0.77,0.83c-0.04,0.5,0.22,0.95,0.59,1l1.5,0.22l0.01,0
				c0.38,0.06,0.74-0.31,0.79-0.83S433.77,630.69,433.38,630.63C433.39,630.63,433.38,630.63,433.38,630.63z"/>
			<path class="st2" d="M421.9,629.12l-1.7-0.15l0,0c-0.43-0.04-0.8,0.35-0.83,0.85c-0.03,0.5,0.28,0.94,0.7,0.98l1.69,0.17l0.01,0
				c0.43,0.04,0.82-0.34,0.85-0.85s-0.28-0.97-0.71-1.01C421.91,629.12,421.91,629.12,421.9,629.12z"/>
			<path class="st2" d="M418.13,628.75l-1.51-0.15l0,0c-0.38-0.04-0.71,0.35-0.74,0.85c-0.03,0.5,0.25,0.94,0.63,0.98l1.5,0.17
				l0.01,0c0.38,0.04,0.72-0.34,0.76-0.85C418.81,629.25,418.53,628.8,418.13,628.75C418.14,628.75,418.14,628.75,418.13,628.75z"/>
			<path class="st2" d="M406.36,627.65l-1.7-0.09l0,0c-0.43-0.02-0.79,0.37-0.8,0.88c-0.02,0.5,0.31,0.93,0.74,0.96l1.69,0.12
				l0.01,0c0.43,0.03,0.8-0.36,0.83-0.88c0.02-0.52-0.31-0.96-0.75-0.99C406.37,627.65,406.36,627.65,406.36,627.65z"/>
			<path class="st2" d="M402.58,627.4l-1.51-0.1l0,0c-0.38-0.02-0.7,0.37-0.71,0.88c-0.01,0.5,0.28,0.93,0.66,0.96l1.51,0.13l0.01,0
				c0.39,0.03,0.71-0.36,0.73-0.88S402.97,627.43,402.58,627.4C402.59,627.4,402.58,627.4,402.58,627.4z"/>
			<path class="st2" d="M378.09,626.32l-1.32-0.08c-0.31-0.02-0.57,0.35-0.58,0.83c-0.01,0.48,0.23,0.87,0.54,0.9l1.32,0.09l0,0
				c0.31,0.02,0.58-0.35,0.59-0.83S378.4,626.34,378.09,626.32L378.09,626.32z"/>
			<path class="st2" d="M380.65,626.43l-1.32-0.08c-0.31-0.02-0.57,0.35-0.58,0.83c-0.01,0.48,0.23,0.87,0.54,0.9l1.32,0.09l0,0
				c0.31,0.02,0.58-0.35,0.59-0.83S380.96,626.45,380.65,626.43L380.65,626.43z"/>
			<path class="st2" d="M389.45,626.82l-1.32-0.08c-0.31-0.02-0.57,0.35-0.58,0.83c-0.01,0.48,0.23,0.87,0.54,0.9l1.32,0.09l0,0
				c0.31,0.02,0.58-0.35,0.59-0.83S389.76,626.84,389.45,626.82L389.45,626.82z"/>
			<path class="st2" d="M392.01,626.93l-1.32-0.08c-0.31-0.02-0.57,0.35-0.58,0.83c-0.01,0.48,0.23,0.87,0.54,0.9l1.32,0.09l0,0
				c0.31,0.02,0.58-0.35,0.59-0.83S392.32,626.95,392.01,626.93L392.01,626.93z"/>
		</g>
		<path id="BANDA_VERDE_TRASERA" class="st3" d="M350.62,631.74c18.96-0.08,37.94,0.81,56.81,2.81c18.87,1.98,37.69,4.81,56.2,9.32
			c18.47,4.51,36.85,10.14,54.01,19.11c8.53,4.53,16.81,9.87,23.89,16.99c1.77,1.77,3.43,3.69,4.97,5.72
			c1.54,2.04,2.96,4.21,4.15,6.54c2.4,4.64,3.93,9.95,4.04,15.4c0.12,5.45-1.2,10.88-3.44,15.7c-1.1,2.43-2.45,4.7-3.93,6.84
			c-1.48,2.14-3.09,4.18-4.81,6.06c-6.9,7.58-15.09,13.41-23.56,18.43c-8.51,4.98-17.39,9.09-26.43,12.67
			c-9.05,3.56-18.25,6.65-27.59,9.15c-9.33,2.54-18.74,4.69-28.21,6.5c-4.73,0.91-9.48,1.74-14.24,2.48
			c-4.75,0.77-9.53,1.39-14.31,1.94c-19.12,2.21-38.33,3.32-57.55,3.39c-19.21-0.1-38.43-1.19-57.55-3.41
			c-4.78-0.53-9.55-1.21-14.3-1.96c-4.76-0.74-9.5-1.57-14.24-2.48c-9.47-1.81-18.88-3.96-28.21-6.49c-2.33-0.63-4.66-1.3-6.98-1.98
			c-2.31-0.71-4.62-1.45-6.92-2.21c-4.6-1.53-9.16-3.18-13.69-4.97c-9.04-3.58-17.92-7.7-26.42-12.67
			c-8.46-5.01-16.65-10.84-23.55-18.42c-1.72-1.88-3.33-3.91-4.81-6.06c-1.48-2.14-2.83-4.41-3.93-6.83
			c-2.23-4.82-3.55-10.24-3.43-15.68c0.11-5.44,1.64-10.75,4.04-15.39c1.18-2.34,2.6-4.5,4.14-6.54c1.54-2.04,3.2-3.95,4.97-5.72
			c7.07-7.11,15.35-12.45,23.88-16.98c17.15-8.97,35.53-14.6,54-19.12c18.5-4.51,37.33-7.34,56.19-9.32
			C312.68,632.55,331.65,631.66,350.62,631.74z M350.62,632.6c-18.93,0.03-37.87,1.02-56.68,3.14
			c-18.81,2.12-37.51,5.33-55.84,10.06c-9.16,2.36-18.22,5.13-27.09,8.41c-8.86,3.28-17.55,7.09-25.81,11.68
			c-8.22,4.62-16.1,10.01-22.58,16.85c-3.22,3.42-6.06,7.22-8.11,11.42c-2.04,4.2-3.25,8.81-3.25,13.47
			c0.01,4.66,1.22,9.27,3.27,13.46c2.05,4.2,4.9,7.99,8.13,11.4c6.49,6.82,14.38,12.2,22.59,16.8c8.26,4.57,16.95,8.35,25.81,11.62
			c8.87,3.26,17.93,6.01,27.09,8.35c18.32,4.69,37.02,7.86,55.82,9.95c18.8,2.07,37.73,3.03,56.64,3.03
			c18.92,0,37.84-0.95,56.64-3.03c18.8-2.09,37.49-5.25,55.82-9.95c9.16-2.34,18.22-5.1,27.09-8.35
			c8.86-3.27,17.55-7.05,25.81-11.62c8.22-4.6,16.11-9.98,22.59-16.79c3.22-3.41,6.07-7.2,8.13-11.4c2.05-4.19,3.26-8.8,3.27-13.46
			c0-4.66-1.2-9.28-3.25-13.47c-2.05-4.21-4.89-8.01-8.11-11.42c-6.48-6.84-14.36-12.23-22.58-16.85
			c-8.26-4.59-16.94-8.39-25.81-11.68c-8.87-3.28-17.93-6.05-27.09-8.41c-18.33-4.73-37.03-7.93-55.84-10.06
			C388.48,633.62,369.55,632.63,350.62,632.6z"/>
		<g id="CUERPO">
			<path class="st7" d="M202.33,568.08c-7.04,44.87-7.79,131.52,41.47,207.48c39.54,10.57,144.77,23.74,237.07-8.71
				c-34.02-31.92-42.02-69.63-7.71-157.23c24.74-63.18,13.84-131.52-8.34-169.25c-24.23-41.22-82.92-67.82-118.85-61.77
				C268.95,391.58,216.17,479.83,202.33,568.08z"/>
		</g>
		<g>
			<path class="st8" d="M231.89,754.32c3.18,6.78,7.11,13.85,11.9,21.24c39.54,10.57,144.77,23.74,237.07-8.71
				c-23.16-21.73-34.26-46.15-28.16-87.16C434.97,755.54,296.64,792.12,231.89,754.32z"/>
		</g>
		<g id="PUNTITOS">
			<circle class="st9" cx="471.1" cy="539.66" r="11.76"/>
			<circle class="st9" cx="457.81" cy="555.58" r="5.45"/>
			<circle class="st9" cx="450.66" cy="543.33" r="4.72"/>
			<circle class="st9" cx="430.99" cy="440.96" r="8.84"/>
			<circle class="st9" cx="247.94" cy="652.98" r="8.69"/>
			<circle class="st9" cx="237.98" cy="610.49" r="26.36"/>
			<circle class="st9" cx="406.69" cy="436.02" r="4.85"/>
			<circle class="st9" cx="218.51" cy="650.88" r="10.22"/>
			<circle class="st9" cx="281.61" cy="738.52" r="7.11"/>
			<circle class="st9" cx="287.96" cy="721.39" r="3.56"/>
			<path class="st9" d="M479.78,476.7L479.78,476.7c-2.45-2.86-8.69-22.36-8.99-24.83h0c3.3-1.07,6.99,3.05,9.86,11.2
				C482.99,469.69,482.48,475.75,479.78,476.7z"/>
			<path class="st9" d="M203.97,558.46c1.16,2.11-2.16,30.04-4.21,33.03c-5.6-1.88-5.43-12.12-4.66-18.07
				C196.04,566.22,198.54,558.96,203.97,558.46z"/>
			<path class="st9" d="M234.31,471.55c0.61,2.9-13.5,35.29-16.99,38.07c-5.91-4.24-3.86-15.13-0.17-22.86
				C221.48,477.7,227.74,470.18,234.31,471.55z"/>
			<path class="st9" d="M204.49,555.85c-0.74-0.5-1.1-1.09-0.58-4.45c0.5-3.22,1.5-4.19,2.42-4.19c0.47,0.47,0.3,2.49,0,4.46
				C206,553.83,205.21,555.51,204.49,555.85z"/>
		</g>
		<g id="BOCA_TOTAL">
			<g id="DIENTE_x5F_GRANDE">
				<path class="st10" d="M345.85,723.18c-5.99-11.21,3.32-62.42,3.32-62.42l24.61,3.33l23.94-2c0,0,6.27,32.67,11.31,49.22
					c4.66,15.3-13.02,21.19-29.26,23.61C363.53,737.35,351.84,734.39,345.85,723.18z"/>
				<path class="st11" d="M377.17,663.98c-0.01,3.56,0.15,7.14,0.31,10.72c0.17,3.58,0.37,7.16,0.59,10.73
					c0.46,7.15,0.94,14.31,1.59,21.44c-0.81-7.12-1.46-14.26-2.09-21.41c-0.3-3.57-0.59-7.15-0.84-10.72
					c-0.25-3.58-0.49-7.16-0.56-10.76c-0.01-0.28,0.21-0.5,0.49-0.51s0.5,0.21,0.51,0.49c0,0,0,0.01,0,0.01L377.17,663.98z"/>
				<path class="st11" d="M383.93,664.39c0.13,2.09,0.32,4.22,0.49,6.33l0.56,6.34l0.63,6.33c0.23,2.11,0.45,4.22,0.81,6.31
					c-0.44-2.08-0.74-4.18-1.06-6.28l-0.88-6.31l-0.81-6.32c-0.26-2.11-0.53-4.2-0.74-6.34c-0.03-0.27,0.17-0.52,0.45-0.55
					c0.27-0.03,0.52,0.17,0.55,0.45c0,0.01,0,0.01,0,0.02L383.93,664.39z"/>
			</g>
			<g id="DIENTE_PEQUE">
				<path class="st10" d="M410.03,691.36c-6.1-8.79-11.6-31.66-11.6-31.66s5.91-1,14.6-5.92c8.69-4.92,12.97-10.97,12.97-10.97
					s8.65,14.17,17.62,28.27c6.98,10.97-0.66,18.65-9.64,23.28C424.37,699.3,416.14,700.15,410.03,691.36z"/>
				<path class="st11" d="M421.11,650.22c1.5,2.97,3.03,5.92,4.59,8.86l2.38,4.39c0.82,1.45,1.63,2.9,2.56,4.28
					c-0.99-1.34-1.88-2.75-2.77-4.16l-2.6-4.27c-1.71-2.86-3.39-5.74-5.04-8.63c-0.14-0.24-0.05-0.55,0.19-0.68
					c0.24-0.14,0.55-0.05,0.68,0.19C421.11,650.21,421.11,650.22,421.11,650.22z"/>
			</g>
			<g id="LINEAS_BOCA">
				<path class="st12" d="M292.65,649.79c4.51-1.25,9.25-1.76,13.96-1.62c4.72,0.11,9.42,0.78,14.03,1.75
					c4.62,0.98,9.16,2.24,13.65,3.62c4.48,1.39,8.92,2.89,13.35,4.2c2.21,0.65,4.43,1.26,6.63,1.72c2.16,0.46,4.5,0.74,6.76,1.02
					c4.56,0.54,9.14,0.73,13.68,0.69c9.09-0.11,18.09-1.73,26.36-5.1c8.25-3.42,15.69-8.66,21.88-15.18
					c6.16-6.56,11.33-14.15,15.46-22.33c2.13-4.06,4.02-8.26,5.73-12.55c1.71-4.29,3.31-8.63,4.72-13.05
					c2.88-8.83,5.19-17.87,7.38-26.98c-0.81,9.33-2.31,18.62-4.48,27.79c-2.19,9.16-5.11,18.2-9.09,26.87
					c-2.01,4.32-4.29,8.53-6.89,12.57c-2.58,4.05-5.51,7.91-8.83,11.44c-3.29,3.56-6.97,6.78-10.94,9.61
					c-4,2.79-8.34,5.11-12.87,6.92c-4.54,1.79-9.25,3.13-14.04,3.88c-4.79,0.75-9.62,1.04-14.42,0.96c-4.8-0.1-9.56-0.63-14.25-1.42
					c-2.36-0.41-4.64-0.82-7.04-1.41c-2.35-0.6-4.61-1.34-6.84-2.11c-8.9-3.12-17.46-6.71-26.41-9.16
					C311.26,649.52,301.9,648.08,292.65,649.79z"/>
				<path class="st12" d="M444.45,566.33c-0.07,0.28-0.16,0.58-0.12,0.8c0.02,0.12,0.07,0.1,0.1,0.09c0.05,0,0.15-0.01,0.26-0.03
					c0.46-0.11,1-0.31,1.51-0.52c1.05-0.39,2.12-0.82,3.24-1.13c2.22-0.67,4.64-1.07,7.14-0.75c2.48,0.28,5.06,1.59,6.54,3.69
					c1.51,2.06,2.05,4.52,1.94,6.83c-1.04-2.08-2.14-4.01-3.61-5.37c-1.48-1.35-3.26-2.08-5.26-2.34c-1.99-0.27-4.13-0.11-6.33,0.1
					c-1.1,0.12-2.22,0.24-3.38,0.33c-0.59,0.01-1.17,0.07-1.84-0.06c-0.17-0.05-0.36-0.09-0.55-0.24c-0.22-0.16-0.27-0.49-0.2-0.65
					C444.03,566.74,444.24,566.53,444.45,566.33z"/>
			</g>
		</g>
		<path id="CÓRNEA" class="st13" d="M266.71,563.33c-9.31-51.88,34.84-120.16,77.81-120.16s85.13,70.94,77.81,120.16
			c-6.32,42.51-36.17,59.86-79.14,59.86S274.3,605.63,266.71,563.33z"/>
		<g id="PUPILA">
			<circle id="PUPILA_BASE" class="st14" cx="383.03" cy="560.94" r="28.33"/>
			<circle id="BRILLO_PUPILA_x5F_01" class="st13" cx="366.1" cy="551.86" r="6.37"/>
			<circle id="BRILLO_PUPILA_x5F_02" class="st13" cx="373.19" cy="542.73" r="3.01"/>
		</g>
		<path id="ARRUGA_OJO_x5F_02" class="st8" d="M425.8,551.68c1.56,8.31,1.3,16.98-0.53,25.36c-0.87,4.21-2.28,8.31-3.99,12.29
			c-1.78,3.95-4,7.72-6.57,11.24c-2.63,3.48-5.7,6.62-9.03,9.41c-3.34,2.79-7.04,5.11-10.89,7.04c-1.95,0.91-3.88,1.87-5.92,2.55
			c-1.01,0.35-1.99,0.78-3.03,1.05l-3.07,0.88c-1.02,0.3-2.07,0.5-3.11,0.7l-3.12,0.6c-2.08,0.36-4.19,0.54-6.28,0.75l-0.05-0.28
			c8.19-1.55,16.2-4.2,23.51-8.2c7.29-4.01,13.75-9.54,18.73-16.2c4.99-6.65,8.55-14.34,10.66-22.4c1.07-4.03,1.79-8.14,2.21-12.29
			c0.41-4.14,0.53-8.33,0.2-12.48L425.8,551.68z"/>
		<path id="ARRUGA_OJO_x5F_01" class="st8" d="M262.25,558.38c-2.1-6.28-2.61-12.99-2.39-19.6l0.08-2.49
			c0.07-0.83,0.17-1.65,0.25-2.47c0.17-1.65,0.33-3.3,0.63-4.94c0.12-0.82,0.29-1.63,0.44-2.45c0.15-0.82,0.29-1.63,0.51-2.44
			l1.19-4.83c0.47-1.59,1.03-3.15,1.55-4.73l0.8-2.35c0.31-0.77,0.61-1.54,0.95-2.3c0.66-1.52,1.3-3.05,1.98-4.55
			c0.73-1.48,1.51-2.94,2.3-4.39l1.17-2.18c0.42-0.71,0.86-1.41,1.32-2.1l2.7-4.13c0.45-0.69,0.96-1.34,1.47-1.98
			c0.51-0.65,1.01-1.3,1.54-1.93c1.03-1.28,2.09-2.53,3.17-3.76l0.23,0.16l-2.59,4.11l-1.29,2.06c-0.44,0.68-0.87,1.37-1.24,2.09
			l-2.31,4.27c-0.38,0.71-0.78,1.42-1.15,2.14l-1.02,2.2l-2.03,4.41c-0.61,1.5-1.17,3.02-1.76,4.52l-0.87,2.26l-0.74,2.31
			c-0.48,1.54-1,3.08-1.44,4.63c-1.77,6.22-2.99,12.6-3.6,19.04c-0.58,6.43-0.63,12.97,0.44,19.34L262.25,558.38z"/>
		<g id="PELOS">
			<path id="PELO_x5F_04" class="st15" d="M309.27,382.42c-20.26-6.04-25.49,38.36-24.21,58.5c1.39,21.83,17.29,38.4,22.99,60.02
				c-2.17,6.83-24.45-4.39-27.82-5.93c-37.29-19.71-55.93-60.79-33.35-92.15C274.02,365.14,300.4,373.34,309.27,382.42z"/>
			<path id="PELO_x5F_04_SOMBRA" class="st16" d="M309.27,382.42c-20.26-6.04-25.49,38.36-24.21,58.5
				c0.82,12.84,6.65,23.86,12.48,35.16c-16.65-11.4-26.5-38.93-27.29-47.98c-2-23.06,7.87-50.88,19.29-51.88
				C299.84,375.33,305.06,378.12,309.27,382.42z"/>
			<path id="PELO_x5F_03" class="st15" d="M353.83,374.89c-2.74,0.06-36.8,15.3-34.36,52.76c1.17,18.01,15.27,40.06,18.62,58.53
				c-0.25,5.71-12.86,2.38-16.59,1.55c-39.94-14.55-59.2-49.27-31.93-100.14C310.82,352.06,345.63,364.92,353.83,374.89z"/>
			<path id="PELO_x5F_03_SOMBRA" class="st16" d="M353.83,374.89c-2.74,0.06-36.8,15.3-34.36,52.76
				c0.52,8.03-27.28-63.42,9.75-61.85C340.48,366.55,350.03,370.26,353.83,374.89z"/>
			<path id="PELO_x5F_02" class="st15" d="M378.62,380.31c-5.72-6.08-14.96-8.23-19.81-4.49c-5.8,4.46-7.55,14.27-0.65,20
				c5.02,4.17,20.7,26.69,22.75,49.17c0.17,1.86-1.31,3.44-3.18,3.46c-12.42,0.17-27.69-2.74-32.54-5.27
				c-27.17-13.02-36.92-51.97-27.27-65.18c9.66-13.21,28.37-23.02,35.7-23.56C371.63,353.12,379.56,376.03,378.62,380.31z"/>
			<path id="PELO_x5F_02_SOMBRA" class="st16" d="M378.62,380.31c-5.72-6.08-14.96-8.23-19.81-4.49c-5.8,4.46-7.55,14.27-0.65,20
				c-12.53-6.51-10.09-27.13-3.88-35.11c2.08-2.67,5.08-4.72,7.76-3.55C373.63,362.24,379.38,376.83,378.62,380.31z"/>
			<path id="PELO_x5F_01" class="st15" d="M378.62,380.31c2.81-21.49,30.69-33.45,47.53-18.67c14.34,12.59,22.92,36.01,9.18,59.05
				c-0.94,1.58-2.99,2.07-4.6,1.17C399.31,404.26,408.48,353.31,378.62,380.31z"/>
			<path id="PELO_x5F_01_SOMBRA" class="st16" d="M378.62,380.31c3.37-8.74,3.48-11.75,10.9-13.39c5.56,0.72,11.75,5.32,12.42,13.18
				c-3.29-5.9-6.99-9.14-13.24-6.7C385.92,374.48,382.62,376.69,378.62,380.31z"/>
		</g>
		<g id="PANEL_BOTÓN">
			<path id="BOTÓN" class="st17" d="M471.45,742.09l-26.86,4.93c-1.25,0.23-2.4-0.73-2.4-2v-15.56c0-6.34,4.53-11.77,10.76-12.91
				l7.62-1.4c6.53-1.2,12.55,3.82,12.55,10.46v14.49C473.12,741.08,472.42,741.92,471.45,742.09z"/>
			<path id="LATERAL" class="st18" d="M422.9,743.92l12.77-7.09l-0.35,40.45l-19.65,4.43V754.1
				C415.66,747.82,418.61,746.54,422.9,743.92z"/>
			<path id="FRENTE" class="st13" d="M484.63,729.32l-45.81,6.46c-4.82,0.68-8.41,4.81-8.41,9.67v32.26l63.41-14.36v-26.04
				C493.83,732.41,489.49,728.64,484.63,729.32z"/>
		</g>
		<g id="PALANCA_x5F_01">
			<line id="PALO" class="st19" x1="234.1" y1="771.98" x2="247.76" y2="724.33"/>
			<circle id="BOLA" class="st20" cx="247.76" cy="724.33" r="12.64"/>
		</g>
		<path id="BANDA_VERDE_FRONTAL" class="st3" d="M185.2,665.88c-8.22,4.62-16.1,10.01-22.58,16.85c-3.22,3.42-6.06,7.22-8.11,11.42
			c-2.04,4.2-3.25,8.81-3.25,13.47c0.01,4.66,1.22,9.27,3.27,13.46c2.05,4.2,4.9,7.99,8.13,11.4c6.49,6.82,14.38,12.2,22.59,16.8
			c8.26,4.57,16.95,8.35,25.81,11.62c8.87,3.26,17.93,6.01,27.09,8.35c18.32,4.69,37.02,7.86,55.82,9.95
			c18.8,2.07,37.73,3.03,56.64,3.03c18.92,0,37.84-0.95,56.64-3.03c18.8-2.09,37.49-5.25,55.82-9.95c9.16-2.34,18.22-5.1,27.09-8.35
			c8.86-3.27,17.55-7.05,25.81-11.62c8.22-4.6,16.11-9.98,22.59-16.79c3.22-3.41,6.07-7.2,8.13-11.4c2.05-4.19,3.26-8.8,3.27-13.46
			c0-4.66-1.2-9.28-3.25-13.47c-2.05-4.21-4.89-8.01-8.11-11.42c-6.48-6.84-14.36-12.23-22.58-16.85
			c-8.26-4.59-16.94-8.39-25.81-11.68c-8.87-3.28-17.93-6.05-27.09-8.41l0.49-1.92c18.47,4.51,36.85,10.14,54.01,19.11
			c8.53,4.53,16.81,9.87,23.89,16.99c1.77,1.77,3.43,3.69,4.97,5.72c1.54,2.04,2.96,4.21,4.15,6.54c2.4,4.64,3.93,9.95,4.04,15.4
			c0.12,5.45-1.2,10.88-3.44,15.7c-1.1,2.43-2.45,4.7-3.93,6.84c-1.48,2.14-3.09,4.18-4.81,6.06c-6.9,7.58-15.09,13.41-23.56,18.43
			c-8.51,4.98-17.39,9.09-26.43,12.67c-9.05,3.56-18.25,6.65-27.59,9.15c-9.33,2.54-18.74,4.69-28.21,6.5
			c-4.73,0.91-9.48,1.74-14.24,2.48c-4.75,0.77-9.53,1.39-14.31,1.94c-19.12,2.21-38.33,3.32-57.55,3.39
			c-19.21-0.1-38.43-1.19-57.55-3.41c-4.78-0.53-9.55-1.21-14.3-1.96c-4.76-0.74-9.5-1.57-14.24-2.48
			c-9.47-1.81-18.88-3.96-28.21-6.49c-2.33-0.63-4.66-1.3-6.98-1.98c-2.31-0.71-4.62-1.45-6.92-2.21c-4.6-1.53-9.16-3.18-13.69-4.97
			c-9.04-3.58-17.92-7.7-26.42-12.67c-8.46-5.01-16.65-10.84-23.55-18.42c-1.72-1.88-3.33-3.91-4.81-6.06
			c-1.48-2.14-2.83-4.41-3.93-6.83c-2.23-4.82-3.55-10.24-3.43-15.68c0.11-5.44,1.64-10.75,4.04-15.39c1.18-2.34,2.6-4.5,4.14-6.54
			c1.54-2.04,3.2-3.95,4.97-5.72c7.07-7.11,15.35-12.45,23.88-16.98L185.2,665.88z"/>
	</g>
	<g id="CRISTAL_1_">
		<g id="BRILLOS">
			<path id="BRILLO_CORTO" class="st13" d="M138.01,447.48c-7.04,0-12.76-5.71-12.76-12.76c0-4.51,2.6-19.69,5.5-25.97
				c2.95-6.4,10.53-9.19,16.93-6.24c6.39,2.95,9.18,10.51,6.25,16.9c-1.07,2.54-3.01,12.73-3.16,15.46
				C150.69,441.85,145.01,447.48,138.01,447.48z M150.77,434.73c0,0.03,0,0.06,0,0.08C150.77,434.78,150.77,434.75,150.77,434.73z"
				/>
			<path id="BRILLO_LARGO" class="st13" d="M153.64,397.27c-1.55,0-3.12-0.28-4.65-0.88c-6.56-2.57-9.79-9.98-7.22-16.53
				c17.42-44.41,49.23-80.39,92-104.03c32.23-17.82,59.32-22.44,60.46-22.62c6.95-1.15,13.52,3.56,14.66,10.51
				c1.15,6.94-3.55,13.5-10.49,14.66c-0.51,0.09-24.75,4.39-53.1,20.24c-37.62,21.03-64.46,51.5-79.78,90.57
				C163.55,394.19,158.73,397.27,153.64,397.27z"/>
		</g>
		<path id="CRISTAL" class="st21" d="M350.62,238.33c-158.54,0-258.08,135.86-232.72,279.3l33.39,188.91
			c-0.01,0.27-0.03,0.54-0.03,0.81c0,41.36,89.26,74.88,199.36,74.88s199.36-33.53,199.36-74.88c0-0.27-0.02-0.54-0.03-0.81
			l33.39-188.91C608.69,374.19,509.15,238.33,350.62,238.33z"/>
		<path id="CRISTAL_x5F_SOMBRA" class="st21" d="M350.62,238.33c202.07,19.47,235.99,201.05,201.08,318.78
			c-43.72,147.42-57.86,213.51-201.08,225.12c110.1,0,199.36-33.53,199.36-74.88c0-0.27-0.02-0.54-0.03-0.81l33.39-188.91
			C608.69,374.19,509.15,238.33,350.62,238.33z"/>
	</g>
	<g id="ARMA_CHUNGA">
		<g id="CABLE">
			<g>
				<line class="st22" x1="351.04" y1="204.52" x2="351.07" y2="203.1"/>
				<polyline class="st23" points="351.19,197.81 351.34,191.55 359.96,179.4 				"/>
				<polyline class="st22" points="361.49,177.25 362.31,176.09 360.91,176.29 				"/>
				<line class="st24" x1="356.01" y1="176.97" x2="336.4" y2="179.71"/>
				<polyline class="st22" points="333.95,180.05 332.55,180.25 333.3,179.04 				"/>
				<line class="st25" x1="336.69" y1="173.62" x2="340.08" y2="168.2"/>
				<polyline class="st22" points="341.78,165.49 342.53,164.28 343.94,164.44 				"/>
				<line class="st26" x1="348.99" y1="164.99" x2="369.19" y2="167.18"/>
				<polyline class="st22" points="371.71,167.46 373.12,167.61 372.97,166.2 				"/>
				<line class="st27" x1="372.38" y1="160.75" x2="370.91" y2="147.13"/>
				<polyline class="st22" points="370.61,144.41 370.46,143 369.08,143.31 				"/>
				<line class="st28" x1="363.49" y1="144.55" x2="332.74" y2="151.38"/>
				<polyline class="st22" points="329.94,152.01 328.56,152.31 328.38,150.91 				"/>
				<line class="st29" x1="327.72" y1="145.61" x2="325.08" y2="124.44"/>
				<polyline class="st22" points="324.74,121.8 324.57,120.39 325.88,120.94 				"/>
				<line class="st30" x1="331.04" y1="123.12" x2="351.72" y2="131.83"/>
				<polyline class="st22" points="354.3,132.92 355.61,133.47 355.98,132.1 				"/>
				<line class="st31" x1="357.68" y1="125.86" x2="361.92" y2="110.25"/>
				<polyline class="st22" points="362.77,107.12 363.14,105.76 361.99,106.58 				"/>
				<line class="st32" x1="356.53" y1="110.44" x2="351.07" y2="114.31"/>
				<polyline class="st22" points="348.34,116.24 347.18,117.06 347.2,115.65 				"/>
				<line class="st33" x1="347.27" y1="110.2" x2="347.57" y2="88.4"/>
				<line class="st22" x1="347.61" y1="85.67" x2="347.63" y2="84.25"/>
			</g>
		</g>
		<g id="BASE">
			<path id="BASE_x5F_01" class="st5" d="M398.95,242.6c0,0-18.42,2.6-47.91,2.6c-29.49,0-47.86-2.6-47.86-2.6v-10.86v0
				c0-6.41,4.74-11.83,11.09-12.71c8.63-1.2,21.66-2.53,36.8-2.53c15.13,0,28.17,1.34,36.8,2.53c6.35,0.88,11.09,6.29,11.09,12.71v0
				V242.6z"/>
			<path id="BASE_x5F_02" class="st2" d="M382.31,218.34c0,0-12.02,1.7-31.26,1.7s-31.23-1.7-31.23-1.7v-7.09l0,0
				c0-4.18,3.09-7.72,7.24-8.29c5.63-0.78,14.14-1.65,24.01-1.65s18.38,0.87,24.01,1.65c4.15,0.57,7.24,4.11,7.24,8.29l0,0V218.34z"
				/>
		</g>
		<path id="PODER_CHUNGO" class="st34" d="M337.58,99.39c-0.64-3.53-1.41-6.53-3.3-6.61c-0.06-4.96-1.24-7-7.5-2.67
			c3.39-7.54,1.71-8.7-7.32-4.44c5.03-5.81,2.71-6.2-4.08-4.01c1.43-2.26-1.62-1.96-5.1-1.35c1.72-3.06,3.02-5.83,0.69-7.9
			c4.03-3,4.43-5.3-2-7.75c6.28-1.82,5.74-3.8-0.48-6.3c4.15-1.26,2.62-3.04-0.12-5.07c-1.35-1.5-3.91-3.23-7-5
			c1.82-0.72,3.49-1.44,5.04-2.16s2.95-1.45,3.4-2.21c2.1-0.74,3.24-1.5,0.6-3c4.34-0.21,4.9-1.16,1.1-3.85
			c5.28,0.95,6.2,0.17,2.16-3.95c5.14,2.18,5.32,1.01,2.62-3.05c3.15,1.91,3.41,0.92,2.28-1.93c1.22,0.57,1.06-0.73,0.77-2.11
			c-0.29-1.38-0.7-2.84-1.24-4.41c-0.54-1.56-1.2-3.23-1.99-5c3.36,1.49,6.38,2.68,9.12,3.52s5.18,1.35,6.01-0.29
			c3.62,1.9,5.62,1.64,6.24-3.05c3.03,3.36,4.7,2.29,6.34-1.19c1.47,0.43,2.91-1.55,4.31-4.01c1.39-2.46,2.74-5.41,4.09-8.87
			c1.33,3.91,2.62,7.3,3.96,10.19c1.34,2.89,2.73,5.28,4.25,7.19c1.52,1.95,3.17,3.41,5.61,1.64c1.29,3.84,3.37,4.44,7.24,1.79
			c0.88,3.05,3.55,2.86,6.7,2.16c2.94-0.43,6.37-1.37,10.26-2.64c-2.42,3.32-4.39,6.3-5.46,8.79c-1.92,2.99-2.95,5.48,1.51,7.22
			c-5.58,2.92-5.66,5.09,1.77,8.18c-6.65,1.12-5.78,3.16,1.75,5.44c-4.83,1.84-2.99,3.92,1.58,6.15c0.09,2.16,2.9,4.47,6.22,6.97
			c-3.76,0.18-7.01,0.51-7.62,2.03c-5.01-0.44-7.37,0.3-4.72,6.7c-6.58-4.43-8.15-3.19-7,5.7c-3.61-5.83-4.49-4.01-4.15,2.44
			c-1.55-2.11-1.87,0.39-1.94,3.3c-0.09,2.87,0.06,6.15,0.4,9.86c-2.86-2.69-5.45-4.77-7.88-6.24c-2.43-1.47-4.7-2.35-6.01,0.77
			c-3.07-3.71-5.19-3.43-7.16,2.32c-2.31-4.06-4.46-2.66-6.85,1.35C342.54,93.92,340.16,96.39,337.58,99.39z"/>
		<circle id="BOLA_BLANCA" class="st13" cx="348.31" cy="54.98" r="31.71"/>
	</g>
</g>
</svg>
