<?xml version="1.0" encoding="utf-8"?>
<!-- Generator: Adobe Illustrator 24.0.1, SVG Export Plug-In . SVG Version: 6.00 Build 0)  -->
<svg version="1.1" id="MINIASTEROIDE_x5F_02" xmlns="http://www.w3.org/2000/svg" xmlns:xlink="http://www.w3.org/1999/xlink"
	 x="0px" y="0px" viewBox="0 0 200 200" style="enable-background:new 0 0 200 200;" xml:space="preserve">
<style type="text/css">
	.st0{fill:#A1877A;}
	.st1{fill:#7A6A58;}
	.st2{fill:#634E42;}
	.st3{fill:#927769;}
</style>
<g id="BASE_1_">
	<path class="st0" d="M80.36,29.3c-2.46-0.34-12.77,6.78-11.88,8c1.83,2.49,4.27,8.67,4.41,10.64c-2.53-1.17-3.99-2-6.48-4.66
		c-2.11-0.44-4.49,0.17-7.81,0.17C48.7,48.46,42.62,53.9,34.64,61.58c-3.83,3.68-1.17,13.03,2,17.29c3.78,5.1,0.12,19.56-4.66,20.62
		c-12.89,2.85-4.52,34.15,1.66,49.22c1.63,3.97,3.38,8.08,6.58,10.94c4.28,3.84,10.35,4.77,16.05,5.56
		c9.99,1.39,27.1,0.15,36.3,4.31c5.62,2.54,11.17,6.12,17.33,5.86c3.73-0.16,7.22-1.73,10.62-3.28c5.09-2.32,7.47-6.72,12.22-3.78
		c1.37,0.85,17.06-10.81,17.62-12.3c3.58-9.55,10.07-4.44,17.29-11.64c6.46-6.43,5.47-24.06,6.79-33.08
		c0.68-4.67-0.66-9.35-1.55-13.98c-1.48-7.76-1.78-16.01-5.7-22.87c-2.55-4.46-1.1-8.93-2.53-13.87c-0.82-2.81-6.19-5.06-6.92-7.89
		c-2.06-8.02-10.13-13.01-18.04-15.44c-7.91-2.43-10.2-1.23-17.61-4.93c-1.89-0.94-9.53,2.38-11.64,2.33
		c-1.74-0.04-3.9-5.76-5.64-5.71c-4.35,0.11-8.15-3.98-12.46-3.35c-2.9,0.42-5.7,2.94-8.41,1.82L80.36,29.3z"/>
</g>
<g id="CRÁTERES">
	<path id="CRÁTER_x5F_03_1_" class="st1" d="M42.29,98.16c-2.01,2.01-7.65,4.99-5.99,14.96s-0.33,27.27,7.98,31.59
		c8.31,4.32,25.27,5.32,23.28,1c-2-4.32-10.64-8.65-11.31-19.62s2-30.93-0.67-37.91c-2.66-6.98-10.64-21.28-14.3-20.62
		c-3.66,0.67-0.67,3.33,2.66,10.31C47.28,84.85,44.62,95.83,42.29,98.16z"/>
	<path id="CRÁTER_x5F_01_1_" class="st1" d="M113.78,41.62c3.6,0.65,16.63-6.65,21.95,2c5.32,8.65,5.99,11.64,10.31,13.63
		s11.97,2,12.97,7.98s0.67,14.96,2.99,19.95c2.33,4.99,6.98,10.64-3.66,17.29s-25.61,7.65-22.95-1.33s8.65-23.94,3.99-29.93
		s-16.96-19.29-20.62-21.62c-3.66-2.33-16.29-4.66-21.95-3.66c-5.65,1-9.98-11.31-13.63-9.31c-3.66,2-4.66-3.99,0.33-4.99
		c4.99-1,14.96,4.99,18.95,6.98C106.47,40.63,110.13,40.96,113.78,41.62z"/>
	<path id="CRÁTER_x5F_02_1_" class="st1" d="M123.76,122.1c-3.45,5.91-6.65,19.95-14.96,19.95s-9.64,11.31-0.33,8.65
		s23.94-11.31,24.61-14.96C133.74,132.07,130.74,110.13,123.76,122.1z"/>
	<g id="SOMBRAS">
		<path id="SOMBRA_x5F_CRÁTER_x5F_03" class="st2" d="M50.93,118.77c-0.83,2.72-0.33,11.31,4.99,18.29
			c6.13,8.04-1.66,5.32-11.64,7.65c8.31,4.32,25.27,5.32,23.28,1c-2-4.32-10.64-8.65-11.31-19.62s2-30.93-0.67-37.91
			C55.92,102.15,53.26,111.12,50.93,118.77z"/>
		<path id="SOMBRA_x5F_CRÁTER_x5F_01" class="st2" d="M146.04,57.25c4.32,2,11.97,2,12.97,7.98s0.67,14.96,2.99,19.95
			c2.33,4.99,6.98,10.64-3.66,17.29s-25.61,7.65-22.95-1.33c2.99,9.64,24.94-4.66,23.28-10.64
			C157.48,86.21,161.01,67.23,146.04,57.25z"/>
		<path id="SOMBRA_x5F_CRÁTER_x5F_02_1_" class="st2" d="M123.76,122.1c6.65-0.33,11.97,14.63,3.66,14.63
			c0,0-5.65,6.32-18.95,13.97c9.31-2.66,23.94-11.31,24.61-14.96C133.74,132.07,130.74,110.13,123.76,122.1z"/>
	</g>
</g>
<g id="SOMBRAS_1_">
	<g id="BASE_SOMBRA_1_">
		<path class="st3" d="M136.07,157.02c-1.68,1.61-22.1,6.04-37.58,4.32c-18.65-2.07-44.98,10.24-64.85-12.64
			c1.63,3.97,3.38,8.08,6.58,10.94c4.28,3.84,10.35,4.77,16.05,5.56c9.99,1.39,27.1,0.15,36.3,4.31c5.62,2.54,11.17,6.12,17.33,5.86
			c3.73-0.16,7.22-1.73,10.62-3.28c5.09-2.32,7.47-6.72,12.22-3.78c1.37,0.85,17.06-10.81,17.62-12.3
			c3.58-9.55,10.07-4.44,17.29-11.64c6.46-6.43,5.47-24.06,6.79-33.08c0.68-4.67-0.66-9.35-1.55-13.98
			c-1.48-7.76-1.78-16.01-5.7-22.87c-2.55-4.46-1.1-8.93-2.53-13.87c-0.82-2.81-6.19-5.06-6.92-7.89
			c3.26,14.88,6.92,7.89,4.59,25.52c-1.14,8.6,9.35,16.04,4.66,21.62c-4.7,5.57-20.83,12.65-34.92,8.98
			c-0.71,4.13,29.26,4.32,20.29,23.28C145.12,147.35,138.47,154.7,136.07,157.02z"/>
	</g>
	<path id="BASE_x5F_SOMBRA_x5F_01_1_" class="st3" d="M61.24,120.44c0,3.33-2,7.65,2,10.97s9.98,11.31,10.64,14.63
		c0.67,3.33-11.64,5.65-16.29,5.32c-4.66-0.33-18.95-5.65-20.62-8.65c5.32,6.32,19.62,14.3,28.93,11.97s18.95-5.65,15.63-10.64
		c-3.33-4.99-16.96-13.97-17.62-17.62c-0.67-3.66-2.66-21.28-1.66-24.61C59.91,105.47,61.24,120.44,61.24,120.44z"/>
	<path id="BASE_x5F_SOMBRA_x5F_02_1_" class="st3" d="M132.74,119.77c-1-0.67,8.69,17.48,2,20.95
		c-8.98,4.66-12.97,15.96-33.25,11.97c8.31,5.65,23.28,1.33,29.6-3.99c6.32-5.32,11.64-5.99,9.31-15.3
		C138.06,124.09,134.74,121.1,132.74,119.77z"/>
</g>
</svg>
