<?xml version="1.0" encoding="utf-8"?>
<!-- Generator: Adobe Illustrator 24.0.1, SVG Export Plug-In . SVG Version: 6.00 Build 0)  -->
<svg version="1.1" id="MINIASTEROIDE_x5F_01" xmlns="http://www.w3.org/2000/svg" xmlns:xlink="http://www.w3.org/1999/xlink"
	 x="0px" y="0px" viewBox="0 0 200 200" style="enable-background:new 0 0 200 200;" xml:space="preserve">
<style type="text/css">
	.st0{fill:#A1877A;}
	.st1{fill:#927769;}
	.st2{fill:#7A6A58;}
	.st3{fill:#634E42;}
</style>
<g id="BASE">
	<path class="st0" d="M80.36,29.3c-2.46-0.34-4.81,1.27-6.38,3.2c-1.57,1.93-2.65,4.22-4.28,6.1c-2.99,3.44-7.45,5.12-11.51,7.18
		c-9.88,5.01-18.02,12.8-26,20.48c-3.83,3.68-7.96,8.12-7.52,13.42c0.35,4.23,3.59,7.7,4.52,11.84c0.53,2.4,0.26,4.89,0.14,7.34
		c-0.8,16.27,5.11,32.05,11.29,47.12c1.63,3.97,3.38,8.08,6.58,10.94c4.28,3.84,10.35,4.77,16.05,5.56
		c9.99,1.39,20.13,2.88,29.33,7.03c5.62,2.54,11.17,6.12,17.33,5.86c3.73-0.16,7.22-1.73,10.62-3.28
		c5.09-2.32,10.18-4.64,15.27-6.96c1.47-0.67,2.98-1.37,4.06-2.57c1.07-1.19,1.6-2.74,2.16-4.24c3.58-9.55,9.24-18.31,16.47-25.51
		c6.46-6.43,14.66-12.5,15.97-21.52c0.68-4.67-0.66-9.35-1.55-13.98c-1.48-7.76-1.78-16.01-5.7-22.87
		c-2.55-4.46-6.56-8.17-7.99-13.1c-0.82-2.81-0.73-5.82-1.46-8.66c-2.06-8.02-10.13-13.01-18.04-15.44
		c-7.91-2.43-16.4-3.19-23.81-6.88c-1.89-0.94-3.79-2.1-5.91-2.15c-1.74-0.04-3.43,0.68-5.17,0.72c-4.35,0.11-8.15-3.98-12.46-3.35
		c-2.9,0.42-5.7,2.94-8.41,1.82L80.36,29.3z"/>
</g>
<g id="SOMBRAS">
	<g id="BASE_SOMBRA">
		<path class="st1" d="M146.37,129.41c-1.9,3.6-10.42,27.4-22.61,30.93c-6.95,2.01-9.62,0.45-10.58-2.83
			c-1.44-4.87-6.87-7.25-11.42-5c-9.06,4.49-23.04,8.97-54.56,4.41c4.28,3.84,10.35,4.77,16.05,5.56
			c9.99,1.39,20.13,2.88,29.33,7.03c5.62,2.54,11.17,6.12,17.33,5.86c3.73-0.16,7.22-1.73,10.62-3.28
			c5.09-2.32,10.18-4.64,15.27-6.96c1.47-0.67,2.98-1.37,4.06-2.57c1.07-1.19,1.6-2.74,2.16-4.24c3.58-9.55,9.24-18.31,16.47-25.51
			c6.46-6.43,14.66-12.5,15.97-21.52c0.68-4.67-0.66-9.35-1.55-13.98c-1.48-7.76-1.78-16.01-5.7-22.87
			c-2.55-4.46-6.56-8.17-7.99-13.1c-0.82-2.81-0.73-5.82-1.46-8.66c-2.06-8.02-10.13-13.01-18.04-15.44
			c17.64,12.36,12.34,22.4,9.99,31.32c-3.33,12.64,5.32,17.62,8.65,23.94C172.11,118.65,153.02,116.78,146.37,129.41z"/>
	</g>
	<path id="BASE_x5F_SOMBRA_x5F_03" class="st1" d="M90.84,30.32c0,0,3.66,2.33,1.33,8.31c-2.33,5.99-5.65,14.3-11.97,15.3
		s-18.95,5.65-18.95,5.65s13.63-1.66,22.95-4.66c9.31-2.99,15.3-12.97,14.3-16.96C97.49,33.98,95.16,29.32,90.84,30.32z"/>
	<path id="BASE_x5F_SOMBRA_x5F_02" class="st1" d="M47.28,135.4c0,0,4.32,10.64,14.63,13.97s16.29,9.31,21.28,5.65
		c4.99-3.66,4.32-11.64,4.99-15.3c0.67-3.66-5.32-13.63-7.98-14.3c3.33,4.32,7.65,10.97,4.99,17.29c-2.66,6.32-8.98,10.97-15.3,7.65
		C63.57,147.04,52.6,145.38,47.28,135.4z"/>
	<path id="BASE_x5F_SOMBRA_x5F_01" class="st1" d="M115.78,61.91c0,0,12.84,5.54,19.29,20.29c2.33,5.32,0.33,12.97-1,22.28
		c-1.33,9.31-18.29,19.29-22.61,19.95s-8.65,9.64-12.97-1c0,4.66,0.67,10.64,13.63,6.32c12.97-4.32,18.95-10.97,22.61-13.3
		c3.66-2.33,7.32-11.31,7.65-15.96c0.33-4.66,4.99-18.62,3.33-21.62c-1.66-2.99-8.65-5.65-11.31-8.65
		C131.74,67.23,122.76,60.25,115.78,61.91z"/>
</g>
<g id="CRÁTERES_1_">
	<path id="CRÁTER_x5F_01" class="st2" d="M46.94,100.48c-4.19,3.78-8.31,6.98-3.99,12.64s1.66,10.64,7.32,20.95
		s28.93,17.62,29.6,11.64c0.67-5.99,5.99-6.98,0-14.3s-2.33-3.99-8.31-8.65c-5.99-4.66-4.32-1.66-7.65-9.31
		c-3.33-7.65-2-6.32-4.32-10.31C57.25,99.15,50.27,97.49,46.94,100.48z"/>
	<path id="CRÁTER_x5F_02" class="st2" d="M157.35,120.77c-4.52,3.77-13.97,18.95-16.63,27.6c-2.66,8.65-23.28,20.29-23.61,9.64
		s5.99-22.28,15.96-28.93s20.62-28.27,26.6-25.27C165.66,106.8,165.33,114.12,157.35,120.77z"/>
	<path id="CRÁTER_x5F_03" class="st2" d="M99.15,65.57c-5.55,3.66-12.64,5.65-4.32,11.64c8.31,5.99,13.97,7.65,13.3,15.63
		c-0.67,7.98-11.31,17.96-9.64,23.28c1.66,5.32,2.33,12.97,8.65,8.98c6.32-3.99,21.95-12.3,24.28-22.28s4.66-16.96,0.33-23.61
		C127.42,72.55,112.79,56.59,99.15,65.57z"/>
	<path id="CRÁTER_x5F_04" class="st2" d="M77.54,35.31c-3.14,2.12-3.33,7.65-7.98,9.31c-4.66,1.66-14.63,4.32-16.96,9.31
		c-2.33,4.99-3.99,9.64,1,5.32s6.32-1,17.29-5.65s12.3-3.99,15.63-12.64C89.84,32.31,89.84,26.99,77.54,35.31z"/>
	<g id="SOMBRAS_1_">
		<path id="SOMBRA_x5F_CRÁTER_x5F_01_1_" class="st3" d="M74.55,143.55c-4.19,3.78-13.47-1.33-24.28-9.48
			c5.65,10.31,28.93,17.62,29.6,11.64c0.67-5.99,5.99-6.98,0-14.3C81.03,138.39,77.87,140.55,74.55,143.55z"/>
		<path id="SOMBRA_x5F_CRÁTER_x5F_02" class="st3" d="M157.35,120.77c-2.42,2.02-6.25,7.3-9.7,13.11
			c-2.99,5.04-5.69,10.47-6.93,14.49c-2.66,8.65-23.28,20.29-23.61,9.64c5.49,4.49,12.8-0.83,20.12-8.65
			c2.88-3.08,5.35-10.14,9.31-16.46c7.31-11.65,21.62-21.2,13.14-29.1C165.66,106.8,165.33,114.12,157.35,120.77z"/>
		<path id="SOMBRA_x5F_CRÁTER_x5F_03_1_" class="st3" d="M131.08,87.51c2.48,9.94-6.32,20.95-14.96,29.26
			c-5.77,5.55-14.3,7.98-17.62-0.67c1.66,5.32,2.33,12.97,8.65,8.98c6.32-3.99,21.95-12.3,24.28-22.28s4.66-16.96,0.33-23.61
			c-1.55-2.39-4.44-5.98-8.13-9.19C130.08,77.21,130.41,84.85,131.08,87.51z"/>
		<path id="SOMBRA_x5F_CRÁTER_x5F_04" class="st3" d="M82.19,42.95c-2.97,3.95-5.32,2.99-8.81,6.82c-3.71,4.07-9.81,1.5-19.79,9.48
			c4.99-4.32,6.32-1,17.29-5.65s12.3-3.99,15.63-12.64c1.66-4.32,2.49-7.81,1.37-9.19C88.35,35.64,86.18,37.63,82.19,42.95z"/>
	</g>
</g>
</svg>
