<?xml version="1.0" encoding="utf-8"?>
<!-- Generator: Adobe Illustrator 24.0.1, SVG Export Plug-In . SVG Version: 6.00 Build 0)  -->
<svg version="1.1" id="MINIASTEROIDE_x5F_03" xmlns="http://www.w3.org/2000/svg" xmlns:xlink="http://www.w3.org/1999/xlink"
	 x="0px" y="0px" viewBox="0 0 200 200" style="enable-background:new 0 0 200 200;" xml:space="preserve">
<style type="text/css">
	.st0{fill:#A1877A;}
	.st1{fill:#927769;}
	.st2{fill:#7A6A58;}
	.st3{fill:#634E42;}
</style>
<g id="BASE">
	<path class="st0" d="M63.79,36.54c-7.63,2.39-15.3,6.96-18.11,14.45c-2.5,6.67-0.82,14.79-4.94,20.6
		c-1.31,1.85-3.17,3.37-3.92,5.51c-0.65,1.86-0.36,3.9-0.56,5.86c-0.43,4.3-3.21,8.37-2.41,12.61c0.68,3.6,3.84,6.47,4.1,10.13
		c0.48,6.77-8.51,10.16-11.04,16.45c-2.45,6.1,1.8,12.67,5.82,17.87c2.01,2.6,4.09,5.26,6.92,6.92c2.5,1.47,5.41,2.05,8.18,2.91
		c5.26,1.63,10.19,4.35,14.37,7.94c3.34,2.86,6.3,6.33,10.32,8.11c8.65,3.83,18.34-1.35,27.61-3.22
		c14.31-2.89,12.81,5.99,27.35,7.29c3.11,0.28,6.34,0.36,9.23-0.81c2.89-1.17,21.42-7.52,21.43-10.64c0-2.24,2.56-6.65,2.01-8.82
		c-1.5-5.92,3.97-10.85,7.32-15.96c2.33-8.31,2.11-10.58,6.03-16.56c2.89-4.41,5.85-9,6.68-14.2c0.62-3.88,0-7.86-1.08-11.63
		c-1.02-3.55-3.85-8.77-6.24-11.59c-5.23-6.18-11.67-15.45-13.11-24.82c-0.24-1.59-1.43-2.86-3.02-3.11
		c-9.36-1.48-13.66-2.26-18.33-9.04c-5.38-7.81-14.27-12.76-23.56-14.66c-9.29-1.9-18.96-0.97-28.19,1.21
		C86.68,29.34,71.43,34.14,63.79,36.54z"/>
</g>
<g id="SOMBRAS">
	<g id="BASE_x5F_SOMBRA">
		<path class="st1" d="M84.02,149.7c-11.74,1.58-43.16-0.07-51.28-9.68c2.01,2.6,4.09,5.26,6.92,6.92c2.5,1.47,5.41,2.05,8.18,2.91
			c5.26,1.63,10.19,4.35,14.37,7.94c3.34,2.86,6.3,6.33,10.32,8.11c8.65,3.83,18.34-1.35,27.61-3.22
			c14.31-2.89,12.81,5.99,27.35,7.29c3.11,0.28,6.34,0.36,9.23-0.81c2.89-1.17,21.42-7.52,21.43-10.64c0-2.24,2.56-6.65,2.01-8.82
			c-1.5-5.92,3.97-10.85,7.32-15.96c2.33-8.31,2.11-10.58,6.03-16.56c2.89-4.41,5.85-9,6.68-14.2c0.63-3.97-0.03-8.05-1.15-11.9
			c-1.02-3.47-3.81-8.55-6.15-11.31c-5.23-6.17-11.68-15.46-13.12-24.83c-0.24-1.59-1.43-2.86-3.02-3.11
			c0.75,11.74,5.88,18.5,8.57,24.71c1.11,2.58,2.33,6.82-1.83,5.65c8.48,7.98,9.15,13.77,7.65,16.13c-2.3,3.61-6.86,7.11-10.44,6.61
			c-1.75-0.24-3.5,0.27-4.78,1.48c-4.68,4.44-12.95,7.73-13.16,14.13c-0.04,1.25,0.86,2.37,2.1,2.54
			c13.09,1.81,12.48,22.13,1.17,31.11c-5.53,4.39-29.68-0.92-41.9,0.5c-20.12,2.33-10.27-6.92-12.97-8.65
			C90.1,145.36,85.28,149.53,84.02,149.7z"/>
	</g>
	<path id="BASE_x5F_SOMBRA_x5F_01" class="st1" d="M87.68,81.86c3.16,3.82,4.99,3.82,5.99,3.33c1-0.5,2.83-1.5,3.16-3.16
		c0.33-1.66,0.5-8.31,0.5-9.64s2.16-6.15,2.99-6.98c-2,5.49-2.99,10.14-1.83,13.3c1.16,3.16-0.5,9.81-3.99,9.31
		C91.01,87.51,88.01,83.36,87.68,81.86z"/>
	<path id="BASE_x5F_SOMBRA_x5F_02" class="st1" d="M38.63,123.93c0,0,0.67,11.97,8.15,10.48c7.48-1.5,10.64-5.82,12.47-7.98
		s5.82-5.65,6.15-8.81c0.33-3.16-2-10.97-2.99-13.8c-1-2.83-3.82-5.99-2.49-10.48c1.33-4.49,10.31-14.47,11.97-16.63
		c1.66-2.16,3.33-7.98,3.16-10.31c0.17,6.15-0.33,12.3-3.82,15.46s-10.48,8.98-9.48,12.8c1,3.82,5.65,13.8,7.32,18.79
		s3.49,6.32,1.33,12.3c-2.16,5.99-9.14,13.97-15.3,14.63s-10.64,1.33-13.3-2.33C39.13,134.4,37.63,128.08,38.63,123.93z"/>
	<path id="BASE_x5F_SOMBRA_x5F_03" class="st1" d="M139.89,78.04c-0.33,1-0.83,6.48,0.17,8.98c1,2.49,4.32,8.65,1,11.81
		s-7.65,5.49-12.14,5.49c-4.49,0-14.8,0.67-18.62,4.32c-3.82,3.66-10.14,8.65-13.97,6.65c-3.82-2-9.98-4.16-11.64-5.99
		c-1.66-1.83-4.82-6.82-3.82-8.81c0,0-3.33,6.32,4.49,11.97c7.81,5.65,11.47,9.48,14.63,8.15c3.16-1.33,7.81-2.49,9.64-5.65
		c1.83-3.16,3.66-6.32,7.32-6.82c3.66-0.5,10.97,0,14.3,0.17c3.33,0.17,12.3-5.15,13.3-6.15c1-1,2.33-5.99,1.83-7.81
		c-0.5-1.83-6.48-7.32-5.82-10.48S139.89,78.04,139.89,78.04z"/>
</g>
<g id="CRÁTERES">
	<path id="CRÁTER_x5F_01" class="st2" d="M56.92,50.1c-1.98,4.87-3.16,9.31-4.99,20.62s-4.16,8.48-5.99,16.96s1,7.32,1.66,14.96
		c0.67,7.65-6.32,9.48-7.32,14.96c-1,5.49,2.16,15.13,9.98,12.8s14.63-14.96,12.14-20.62s-6.82-17.96-2.66-22.78
		s10.14-7.98,11.47-14.13s9.31-23.61,0.83-25.27C63.57,45.95,59.08,44.78,56.92,50.1z"/>
	<path id="CRÁTER_x5F_03" class="st2" d="M106.14,76.37c5.35-4.84,20.62-11.47,24.11-8.48c3.49,2.99,7.98,7.81,8.15,15.13
		c0.17,7.32,4.99,15.46-3.33,18.29s-5.32,0-17.79,3.33s-16.63,11.81-23.44,8.31c-6.82-3.49-11.81-5.99-10.14-11.31
		s-0.83-5.49,8.65-9.98S102.64,79.53,106.14,76.37z"/>
	<path id="CRÁTER_x5F_02" class="st2" d="M95.99,74.05c0.5,4.13-0.83,10.97-3.99,8.98s-7.48-6.65-4.82-10.97
		c2.66-4.32,7.32-9.48,9.48-6.48C98.82,68.56,95.5,69.89,95.99,74.05z"/>
	<path id="CRÁTER_x5F_04" class="st2" d="M166.49,89.18c2.19,3.2,7.15,5.82,2.49,10.31c-4.66,4.49-10.64,7.32-8.81,2
		c1.83-5.32,3.33-0.5,2.16-6.65s-8.98-9.31-4.32-11.64C162.67,80.86,164.33,86.02,166.49,89.18z"/>
	<path id="CRÁTER_x5F_05" class="st2" d="M152.03,133.74c-1.65,6.75-0.83,21.95-15.3,20.95c-14.47-1-30.09-2.99-34.58-1.16
		s-13.97-1.33-7.65-6.32c6.32-4.99,18.46-4.49,25.44-6.82s7.98-10.64,17.46-14.13C146.87,122.76,153.86,126.26,152.03,133.74z"/>
	<g id="SOMBRAS_1_">
		<path id="SOMBRA_x5F_CRÁTER_x5F_04" class="st3" d="M166.49,89.18c2.19,3.2,7.15,5.82,2.49,10.31c-4.66,4.49-10.64,7.32-8.81,2
			c3.84,0.83,5.01-1.72,6.15-3.99C167.71,94.75,168.49,91.9,166.49,89.18z"/>
		<path id="SOMBRA_x5F_CRÁTER_x5F_03" class="st3" d="M128.08,96.83c5.35-4.84,11.31-9.81,2.16-28.93
			c3.49,2.99,7.98,7.81,8.15,15.13c0.17,7.32,4.99,15.46-3.33,18.29s-5.32,0-17.79,3.33s-16.63,11.81-23.44,8.31
			c-6.82-3.49-11.81-5.99-10.14-11.31c2.49,5.49,12.64,9.31,19.45,4.16C111.51,99.48,124.59,99.98,128.08,96.83z"/>
		<path id="SOMBRA_x5F_CRÁTER_x5F_02" class="st3" d="M95.99,74.05c0.5,4.13-0.83,10.97-3.99,8.98c-1.52-0.96-3.31-2.54-4.47-4.4
			c4.47,4.4,3.92-0.01,5.3-2.25c2.66-4.32,3.66-7.32,3.82-10.81C98.82,68.56,95.5,69.89,95.99,74.05z"/>
		<path id="SOMBRA_x5F_CRÁTER_x5F_01" class="st3" d="M52.1,123.1c-2.99,3.66-10.64,2.33-11.81-5.49c-1,5.49,2.16,15.13,9.98,12.8
			s14.63-14.96,12.14-20.62s-6.82-17.96-2.66-22.78s10.14-7.98,11.47-14.13c-4.32,7.65-12.34,11.11-15.86,18.03
			c-2.73,5.37,4.63,21.48,3.55,26.37C57.68,122.88,54.21,120.52,52.1,123.1z"/>
		<path id="SOMBRA_x5F_CRÁTER_x5F_05" class="st3" d="M152.03,133.74c-1.65,6.75-0.83,21.95-15.3,20.95
			c-14.47-1-30.09-2.99-34.58-1.16s-13.97-1.33-7.65-6.32c-3.82,6.65,18.62-2.16,26.77,2.83c6.28,3.84,6.65-1.08,15.96-4.99
			C142.38,142.88,145.38,158.18,152.03,133.74z"/>
	</g>
</g>
</svg>
